*
G04 Mass Parameters ***
*
G04 Image ***
*
%INC:\USERS\ELEK2\DESKTOP\PROYECTO3\LINTERNA\LINTERNA4.BOT*%
%ICAS*%
%MOIN*%
%IPPOS*%
%ASAXBY*%
G74*%FSLAN2X34Y34*%
*
G04 Aperture Definitions ***
*
%ADD10C,0.1575*%
%ADD11C,0.0787*%
%ADD12R,0.0787X0.0787*%
%ADD13C,0.1575*%
%ADD14C,0.0787*%
%ADD15R,0.0787X0.0787*%
%ADD16C,0.0394*%
%ADD17C,0.0100*%
%ADD18C,0.0500*%
%ADD19C,0.1575*%
%ADD20C,0.0787*%
%ADD21R,0.0787X0.0787*%
%ADD22C,0.0120*%
*
G04 Plot Data ***
*
G54D16*
G01X-0020758Y0024226D02*
X-0021758Y0023226D01*
X-0025982D01*
X-0026179Y0023423D01*
Y0024801D01*
Y0023423D01*
X-0025982Y0023226D01*
X-0028344D01*
X-0028541Y0023423D01*
Y0024801D01*
Y0023423D01*
X-0028344Y0023226D01*
X-0029919D01*
X-0030903Y0024210D01*
Y0024801D01*
X-0027541D02*
Y0026360D01*
X-0027525Y0026376D01*
X-0021907D02*
X-0020758Y0025226D01*
X-0027541Y0024801D02*
X-0027557Y0024817D01*
Y0026376D01*
X-0025195D01*
X-0025179Y0026360D01*
Y0024801D01*
X-0020758Y0025226D02*
X-0021907Y0026376D01*
X-0027557D01*
X-0029131D01*
X-0029903Y0025604D01*
Y0024801D01*
G54D22*
G01X-0029919Y0024817D01*
Y0025588D01*
X-0029131Y0026376D01*
X-0021907D01*
X-0020758Y0025226D01*
X-0027525Y0026376D02*
X-0021907D01*
G54D19*
X-0023620Y0024801D03*
G54D20*
X-0025179D03*
X-0027541D03*
X-0029903D03*
X-0020758Y0024226D03*
Y0025226D03*
G54D21*
X-0026179Y0024801D03*
X-0028541D03*
X-0030903D03*
M02*
