*
G04 Mass Parameters ***
*
G04 Image ***
*
%INC:\USERS\ELEK2\DOWNLOADS\LAYOUT_DEFINITIVO\LAYOUT2\PROYECTO_ROBOT_AIMAR_AXIER_JOKIN_BUENO3.BOT*%
%ICAS*%
%MOIN*%
%IPPOS*%
%ASAXBY*%
G74*%FSLAN2X34Y34*%
*
G04 Aperture Definitions ***
*
%ADD10C,0.2362*%
%ADD11C,0.0984*%
%ADD12C,0.0787*%
%ADD13R,0.0787X0.0787*%
%ADD14C,0.1181*%
%ADD15R,0.1181X0.1181*%
%ADD16R,0.0984X0.0984*%
%ADD17C,0.0866*%
%ADD18C,0.0709*%
%ADD19R,0.0709X0.0709*%
%ADD20R,0.0790X0.1180*%
%ADD21C,0.0394*%
%ADD22C,0.0590*%
%ADD23C,0.0179*%
%ADD24C,0.2362*%
%ADD25C,0.0984*%
%ADD26C,0.0787*%
%ADD27R,0.0787X0.0787*%
%ADD28C,0.1181*%
%ADD29R,0.1181X0.1181*%
%ADD30R,0.0984X0.0984*%
%ADD31R,0.0560X0.0920*%
%ADD32R,0.0920X0.0560*%
%ADD33C,0.0866*%
%ADD34C,0.0709*%
%ADD35R,0.0709X0.0709*%
%ADD36C,0.0100*%
*
G04 Plot Data ***
*
G54D21*
G01X-0074129Y0052238D02*
X-0074990Y0053100D01*
X-0075163D01*
X-0075190Y0053127D01*
Y0053539D01*
X-0075392Y0053100D01*
X-0076916D01*
X-0074129Y0052238D02*
X-0074990Y0053100D01*
X-0076916D01*
X-0068104Y0055507D02*
Y0056688D01*
X-0070860Y0059444D01*
X-0074797D01*
X-0075190Y0059050D01*
Y0053127D01*
X-0075163Y0053100D01*
X-0074990D01*
X-0074129Y0052238D01*
X-0066516Y0053800D02*
Y0053552D01*
X-0066530Y0053539D01*
X-0068104Y0055113D01*
Y0055507D01*
X-0077416Y0049300D02*
X-0076327Y0050389D01*
X-0075190D01*
X-0074129Y0051451D01*
Y0052238D01*
X-0076916Y0053100D02*
X-0075392D01*
X-0075190Y0053539D01*
X-0075112Y0053100D01*
X-0074990D01*
X-0074129Y0052238D01*
X-0072828Y0048783D02*
Y0047240D01*
X-0070860D01*
X-0070466Y0047634D01*
Y0049602D01*
X-0058050Y0049496D02*
Y0047846D01*
X-0058475Y0047421D01*
X-0062380D01*
Y0049496D01*
X-0072828Y0048783D02*
Y0047240D01*
X-0075978D01*
X-0075616Y0047602D01*
Y0049100D01*
X-0075416Y0049300D01*
X-0080702Y0051177D02*
Y0047240D01*
X-0075978D01*
X-0075616Y0047602D01*
Y0049100D01*
X-0075416Y0049300D01*
X-0070466Y0049602D02*
Y0047240D01*
X-0065742D01*
X-0065360Y0047623D01*
Y0049208D01*
X-0080702Y0055507D02*
X-0084638D01*
Y0048027D01*
X-0084245Y0047634D01*
X-0081095D01*
X-0080702Y0048027D01*
Y0051177D01*
X-0062380Y0049496D02*
Y0047421D01*
X-0062174D01*
X-0064061Y0047313D01*
X-0063774Y0047678D01*
Y0052751D01*
X-0064530Y0053539D01*
X-0064516Y0053552D01*
Y0053800D01*
X-0062380Y0049496D02*
Y0047421D01*
X-0062174D01*
X-0064062Y0047313D01*
X-0064933Y0047264D01*
X-0065349Y0047240D01*
X-0065360Y0047251D01*
Y0049208D01*
X-0069285Y0054720D02*
Y0053539D01*
X-0068498Y0052751D01*
Y0052589D01*
X-0068266Y0052358D01*
X-0076916Y0052100D02*
X-0079625D01*
X-0080702Y0053177D01*
X-0060656Y0058263D02*
X-0058656Y0056263D01*
Y0052751D01*
X-0058263Y0052358D01*
X-0049602D01*
Y0058263D01*
X-0050750D01*
X-0050887Y0058400D01*
X-0068266Y0052358D02*
X-0068466Y0052558D01*
Y0052720D01*
X-0069285Y0053539D01*
Y0054720D01*
X-0054216Y0069200D02*
X-0054326Y0069090D01*
Y0067110D01*
X-0054316Y0067100D01*
X-0068466Y0049602D02*
X-0068498Y0049634D01*
Y0052358D01*
X-0068266D01*
X-0061216Y0069900D02*
Y0070270D01*
X-0061806Y0070860D01*
X-0062987D01*
X-0063216Y0070631D01*
Y0066200D01*
X-0059254Y0068498D02*
X-0059263Y0068506D01*
Y0069853D01*
X-0059216Y0069900D01*
X-0068104Y0068498D02*
X-0066136D01*
X-0065216Y0067578D01*
Y0066200D01*
X-0051858Y0064593D02*
X-0053113D01*
X-0054720Y0062987D01*
X-0060210D01*
X-0060216Y0062993D01*
Y0063200D01*
X-0051858Y0066593D02*
X-0052975Y0067711D01*
X-0054326D01*
X-0054316Y0067701D01*
Y0067100D01*
X-0051964Y0068498D02*
Y0066699D01*
X-0051858Y0066593D01*
X-0068073Y0070360D02*
Y0068530D01*
X-0068104Y0068498D01*
X-0070666Y0052358D02*
X-0072241Y0050783D01*
X-0072828D01*
X-0071009Y0070360D02*
Y0071498D01*
X-0070860Y0071647D01*
X-0050389D01*
X-0049602Y0070860D01*
Y0063593D01*
X-0051858D01*
X-0076686Y0064000D02*
X-0072828Y0050783D02*
X-0072554Y0051057D01*
Y0052238D01*
X-0066530Y0051177D02*
X-0066892D01*
X-0068466Y0049602D01*
X-0066934Y0055507D02*
X-0065349D01*
X-0072554Y0052238D02*
X-0072435Y0052358D01*
Y0053932D01*
X-0074129Y0055626D01*
Y0057988D01*
X-0069073Y0070360D02*
Y0067892D01*
X-0068498Y0067317D01*
X-0072435D01*
X-0073009Y0067892D01*
Y0070360D01*
X-0065360Y0049208D02*
Y0048804D01*
X-0065349Y0048815D01*
Y0049197D01*
X-0065360Y0049208D01*
X-0075871Y0068392D02*
Y0071647D01*
X-0070860D01*
X-0071009Y0071498D01*
Y0070360D01*
X-0066934Y0055507D02*
X-0066923Y0055518D01*
Y0056688D01*
X-0072222Y0061987D01*
Y0063194D01*
X-0072216Y0063200D01*
X-0066216D02*
X-0066222Y0063194D01*
Y0060231D01*
X-0065435Y0059444D01*
X-0061806D01*
X-0060656Y0058294D01*
Y0058263D01*
X-0055901Y0050783D02*
Y0049645D01*
X-0056050Y0049496D01*
X-0060625Y0050783D02*
X-0060380Y0050539D01*
Y0049496D01*
X-0055890Y0053539D02*
X-0057082D01*
X-0071216Y0063200D02*
X-0071222Y0063194D01*
Y0062168D01*
X-0066136Y0057082D01*
X-0063380D01*
X-0061412Y0055113D01*
Y0049527D01*
X-0061380Y0049496D01*
X-0072009Y0070360D02*
Y0068923D01*
X-0072041Y0068892D01*
X-0064179Y0055507D02*
Y0054137D01*
X-0064516Y0053800D01*
X-0075516Y0064000D02*
X-0075584Y0064068D01*
Y0065742D01*
X-0075871Y0066030D01*
Y0066392D01*
X-0051858Y0064593D02*
X-0051539D01*
X-0050783Y0065349D01*
Y0070073D01*
X-0051177Y0070466D01*
X-0054709D01*
X-0055496Y0069679D01*
X-0055386Y0069569D01*
Y0069200D01*
X-0069466Y0052358D02*
Y0050602D01*
X-0070466Y0049602D01*
X-0062168Y0061018D02*
X-0062987D01*
X-0064222Y0062254D01*
Y0063194D01*
X-0064216Y0063200D01*
X-0051858Y0063593D02*
X-0049941D01*
X-0049602Y0063254D01*
Y0058263D01*
X-0049739Y0058400D01*
X-0050887D01*
X-0051858Y0063593D02*
X-0049941D01*
X-0049602Y0063254D01*
Y0058263D01*
X-0050750D01*
X-0050887Y0058400D01*
X-0064168Y0061018D02*
X-0064561D01*
X-0065222Y0061679D01*
Y0063194D01*
X-0065216Y0063200D01*
X-0051858Y0065593D02*
X-0055316D01*
X-0055486Y0065763D01*
Y0067100D01*
X-0071009Y0070360D02*
Y0071498D01*
X-0070860Y0071647D01*
X-0064168D01*
X-0064317Y0071498D01*
X-0064412D01*
X-0064222Y0071308D01*
Y0066206D01*
X-0064216Y0066200D01*
X-0051964Y0055901D02*
X-0051987Y0056013D01*
Y0058400D01*
X-0051858Y0065593D02*
X-0057720D01*
X-0058327Y0066200D01*
X-0060216D01*
X-0067073Y0070360D02*
Y0071498D01*
X-0064412D01*
X-0064222Y0071308D01*
Y0066206D01*
X-0064216Y0066200D01*
X-0057050Y0049496D02*
Y0049964D01*
X-0057475Y0050389D01*
X-0058656D01*
X-0060231Y0051964D01*
Y0055113D01*
X-0062987Y0057869D01*
X-0065892D01*
X-0070222Y0062199D01*
Y0063194D01*
X-0070216Y0063200D01*
X-0065530Y0051177D02*
Y0050602D01*
X-0066530Y0049602D01*
Y0049208D01*
X-0063216Y0063200D02*
X-0063222Y0063194D01*
Y0062435D01*
X-0062987Y0062199D01*
X-0053539D01*
X-0052828Y0061488D01*
X-0053016Y0061300D01*
Y0061200D01*
X-0054720Y0053539D02*
X-0052358D01*
X-0051996Y0053901D01*
X-0051964D01*
X-0060050Y0060837D02*
X-0060231Y0061018D01*
X-0062168D01*
X-0072554Y0057988D02*
X-0071254Y0056688D01*
Y0054326D01*
X-0070466Y0053539D01*
X-0069285D01*
Y0054720D01*
X-0060656Y0058263D02*
X-0058682Y0056288D01*
X-0057475Y0057475D01*
Y0060263D01*
X-0058050Y0060837D01*
X-0062216Y0069900D02*
Y0066200D01*
X-0053087Y0058400D02*
X-0053016Y0058471D01*
Y0060030D01*
X-0067073Y0070360D02*
Y0071498D01*
X-0067006D01*
X-0070860Y0071647D01*
X-0071009Y0071498D01*
Y0070360D01*
X-0069073D02*
Y0067892D01*
X-0068498Y0067317D01*
X-0067317D01*
X-0066216Y0066216D01*
Y0066200D01*
X-0076686Y0064000D02*
X-0076854Y0064168D01*
X-0079521D01*
X-0060216Y0069900D02*
Y0071337D01*
X-0060231Y0071352D01*
Y0069915D01*
X-0060216Y0069900D01*
X-0075978Y0061412D02*
Y0056294D01*
X-0076765Y0055507D01*
X-0077946D01*
X-0080276Y0053177D01*
X-0080702D01*
X-0073216Y0063200D02*
X-0074797D01*
X-0075190Y0063774D01*
X-0075584D01*
X-0075516Y0063842D01*
Y0064000D01*
X-0058656Y0058263D02*
X-0059050D01*
X-0061018Y0060231D01*
X-0063380D01*
X-0064168Y0061018D01*
G54D36*
G01X-0046689Y0047201D02*
X-0049009D01*
X-0046689Y0047161D02*
X-0049009D01*
X-0046689Y0071823D02*
Y0047161D01*
Y0071823D02*
X-0049009D01*
Y0047161D01*
X-0046689Y0059621D02*
X-0049009D01*
X-0046719Y0071823D02*
Y0047161D01*
X-0046809Y0071823D02*
Y0047161D01*
X-0046899Y0071823D02*
Y0047161D01*
X-0046989Y0071823D02*
Y0047161D01*
X-0047079Y0071823D02*
Y0047161D01*
X-0047169Y0071823D02*
Y0047161D01*
X-0047259Y0071823D02*
Y0047161D01*
X-0047349Y0071823D02*
Y0047161D01*
X-0047439Y0071823D02*
Y0047161D01*
X-0047529Y0071823D02*
Y0047161D01*
X-0047619Y0071823D02*
Y0047161D01*
X-0047709Y0071823D02*
Y0047161D01*
X-0046689Y0053411D02*
X-0049009D01*
X-0047889Y0071823D02*
Y0047161D01*
X-0047979Y0071823D02*
Y0047161D01*
X-0048069Y0071823D02*
Y0047161D01*
X-0048159Y0071823D02*
Y0047161D01*
X-0048249Y0071823D02*
Y0047161D01*
X-0048339Y0071823D02*
Y0047161D01*
X-0048429Y0071823D02*
Y0047161D01*
X-0048519Y0071823D02*
Y0047161D01*
X-0048609Y0071823D02*
Y0047161D01*
X-0048699Y0071823D02*
Y0047161D01*
X-0048789Y0071823D02*
Y0047161D01*
X-0048879Y0071823D02*
Y0047161D01*
X-0046689Y0071771D02*
X-0049009D01*
X-0046689Y0071681D02*
X-0049009D01*
X-0046689Y0071591D02*
X-0049009D01*
X-0046689Y0071501D02*
X-0049009D01*
X-0046689Y0071411D02*
X-0049009D01*
X-0046689Y0071321D02*
X-0049009D01*
X-0046689Y0071231D02*
X-0049009D01*
X-0046689Y0071141D02*
X-0049009D01*
X-0046689Y0071051D02*
X-0049009D01*
X-0046689Y0070961D02*
X-0049009D01*
X-0046689Y0070871D02*
X-0049009D01*
X-0046689Y0070781D02*
X-0049009D01*
X-0046689Y0070691D02*
X-0049009D01*
X-0046689Y0070601D02*
X-0049009D01*
X-0046689Y0070511D02*
X-0049009D01*
X-0046689Y0070421D02*
X-0049009D01*
X-0046689Y0070331D02*
X-0049009D01*
X-0046689Y0070241D02*
X-0049009D01*
X-0046689Y0070151D02*
X-0049009D01*
X-0046689Y0070061D02*
X-0049009D01*
X-0046689Y0069971D02*
X-0049009D01*
X-0046689Y0069881D02*
X-0049009D01*
X-0046689Y0069791D02*
X-0049009D01*
X-0046689Y0069701D02*
X-0049009D01*
X-0046689Y0069611D02*
X-0049009D01*
X-0046689Y0069521D02*
X-0049009D01*
X-0046689Y0069431D02*
X-0049009D01*
X-0046689Y0069341D02*
X-0049009D01*
X-0046689Y0069251D02*
X-0049009D01*
X-0046689Y0069161D02*
X-0049009D01*
X-0046689Y0069071D02*
X-0049009D01*
X-0046689Y0068981D02*
X-0049009D01*
X-0046689Y0068891D02*
X-0049009D01*
X-0046689Y0068801D02*
X-0049009D01*
X-0046689Y0068711D02*
X-0049009D01*
X-0046689Y0068621D02*
X-0049009D01*
X-0046689Y0068531D02*
X-0049009D01*
X-0046689Y0068441D02*
X-0049009D01*
X-0046689Y0068351D02*
X-0049009D01*
X-0046689Y0068261D02*
X-0049009D01*
X-0046689Y0068171D02*
X-0049009D01*
X-0046689Y0068081D02*
X-0049009D01*
X-0046689Y0067991D02*
X-0049009D01*
X-0046689Y0067901D02*
X-0049009D01*
X-0046689Y0067811D02*
X-0049009D01*
X-0046689Y0067721D02*
X-0049009D01*
X-0046689Y0067631D02*
X-0049009D01*
X-0046689Y0067541D02*
X-0049009D01*
X-0046689Y0067451D02*
X-0049009D01*
X-0046689Y0067361D02*
X-0049009D01*
X-0046689Y0067271D02*
X-0049009D01*
X-0046689Y0067181D02*
X-0049009D01*
X-0046689Y0067091D02*
X-0049009D01*
X-0046689Y0067001D02*
X-0049009D01*
X-0046689Y0066911D02*
X-0049009D01*
X-0046689Y0066821D02*
X-0049009D01*
X-0046689Y0066731D02*
X-0049009D01*
X-0046689Y0066641D02*
X-0049009D01*
X-0046689Y0066551D02*
X-0049009D01*
X-0046689Y0066461D02*
X-0049009D01*
X-0046689Y0066371D02*
X-0049009D01*
X-0046689Y0066281D02*
X-0049009D01*
X-0046689Y0066191D02*
X-0049009D01*
X-0046689Y0066101D02*
X-0049009D01*
X-0046689Y0066011D02*
X-0049009D01*
X-0046689Y0065921D02*
X-0049009D01*
X-0046689Y0065831D02*
X-0049009D01*
X-0046689Y0065741D02*
X-0049009D01*
X-0046689Y0065651D02*
X-0049009D01*
X-0046689Y0065561D02*
X-0049009D01*
X-0046689Y0065471D02*
X-0049009D01*
X-0046689Y0065381D02*
X-0049009D01*
X-0046689Y0065291D02*
X-0049009D01*
X-0046689Y0065201D02*
X-0049009D01*
X-0046689Y0065111D02*
X-0049009D01*
X-0046689Y0065021D02*
X-0049009D01*
X-0046689Y0064931D02*
X-0049009D01*
X-0046689Y0064841D02*
X-0049009D01*
X-0046689Y0064751D02*
X-0049009D01*
X-0046689Y0064661D02*
X-0049009D01*
X-0046689Y0064571D02*
X-0049009D01*
X-0046689Y0064481D02*
X-0049009D01*
X-0046689Y0064391D02*
X-0049009D01*
X-0046689Y0064301D02*
X-0049009D01*
X-0046689Y0064211D02*
X-0049009D01*
X-0046689Y0064121D02*
X-0049009D01*
X-0046689Y0064031D02*
X-0049009D01*
X-0046689Y0063941D02*
X-0049009D01*
X-0046689Y0063851D02*
X-0049009D01*
X-0046689Y0063761D02*
X-0049009D01*
X-0046689Y0063671D02*
X-0049009D01*
X-0046689Y0063581D02*
X-0049009D01*
X-0046689Y0063491D02*
X-0049009D01*
X-0046689Y0063401D02*
X-0049009D01*
X-0046689Y0063311D02*
X-0049009D01*
X-0046689Y0063221D02*
X-0049009D01*
X-0046689Y0063131D02*
X-0049009D01*
X-0046689Y0063041D02*
X-0049009D01*
X-0046689Y0062951D02*
X-0049009D01*
X-0046689Y0062861D02*
X-0049009D01*
X-0046689Y0062771D02*
X-0049009D01*
X-0046689Y0062681D02*
X-0049009D01*
X-0046689Y0062591D02*
X-0049009D01*
X-0046689Y0062501D02*
X-0049009D01*
X-0046689Y0062411D02*
X-0049009D01*
X-0046689Y0062321D02*
X-0049009D01*
X-0046689Y0062231D02*
X-0049009D01*
X-0046689Y0062141D02*
X-0049009D01*
X-0046689Y0062051D02*
X-0049009D01*
X-0046689Y0061961D02*
X-0049009D01*
X-0046689Y0061871D02*
X-0049009D01*
X-0046689Y0061781D02*
X-0049009D01*
X-0046689Y0061691D02*
X-0049009D01*
X-0046689Y0061601D02*
X-0049009D01*
X-0046689Y0061511D02*
X-0049009D01*
X-0046689Y0061421D02*
X-0049009D01*
X-0046689Y0061331D02*
X-0049009D01*
X-0046689Y0061241D02*
X-0049009D01*
X-0046689Y0061151D02*
X-0049009D01*
X-0046689Y0061061D02*
X-0049009D01*
X-0046689Y0060971D02*
X-0049009D01*
X-0046689Y0060881D02*
X-0049009D01*
X-0046689Y0060791D02*
X-0049009D01*
X-0046689Y0060701D02*
X-0049009D01*
X-0046689Y0060611D02*
X-0049009D01*
X-0046689Y0060521D02*
X-0049009D01*
X-0046689Y0060431D02*
X-0049009D01*
X-0046689Y0060341D02*
X-0049009D01*
X-0046689Y0060251D02*
X-0049009D01*
X-0046689Y0060161D02*
X-0049009D01*
X-0046689Y0060071D02*
X-0049009D01*
X-0046689Y0059981D02*
X-0049009D01*
X-0046689Y0059891D02*
X-0049009D01*
X-0046689Y0059801D02*
X-0049009D01*
X-0046689Y0059711D02*
X-0049009D01*
X-0047799Y0071823D02*
Y0047161D01*
X-0046689Y0059531D02*
X-0049009D01*
X-0046689Y0059441D02*
X-0049009D01*
X-0046689Y0059351D02*
X-0049009D01*
X-0046689Y0059261D02*
X-0049009D01*
X-0046689Y0059171D02*
X-0049009D01*
X-0046689Y0059081D02*
X-0049009D01*
X-0046689Y0058991D02*
X-0049009D01*
X-0046689Y0058901D02*
X-0049009D01*
X-0046689Y0058811D02*
X-0049009D01*
X-0046689Y0058721D02*
X-0049009D01*
X-0046689Y0058631D02*
X-0049009D01*
X-0046689Y0058541D02*
X-0049009D01*
X-0046689Y0058451D02*
X-0049009D01*
X-0046689Y0058361D02*
X-0049009D01*
X-0046689Y0058271D02*
X-0049009D01*
X-0046689Y0058181D02*
X-0049009D01*
X-0046689Y0058091D02*
X-0049009D01*
X-0046689Y0058001D02*
X-0049009D01*
X-0046689Y0057911D02*
X-0049009D01*
X-0046689Y0057821D02*
X-0049009D01*
X-0046689Y0057731D02*
X-0049009D01*
X-0046689Y0057641D02*
X-0049009D01*
X-0046689Y0057551D02*
X-0049009D01*
X-0046689Y0057461D02*
X-0049009D01*
X-0046689Y0057371D02*
X-0049009D01*
X-0046689Y0057281D02*
X-0049009D01*
X-0046689Y0057191D02*
X-0049009D01*
X-0046689Y0057101D02*
X-0049009D01*
X-0046689Y0057011D02*
X-0049009D01*
X-0046689Y0056921D02*
X-0049009D01*
X-0046689Y0056831D02*
X-0049009D01*
X-0046689Y0056741D02*
X-0049009D01*
X-0046689Y0056651D02*
X-0049009D01*
X-0046689Y0056561D02*
X-0049009D01*
X-0046689Y0056471D02*
X-0049009D01*
X-0046689Y0056381D02*
X-0049009D01*
X-0046689Y0056291D02*
X-0049009D01*
X-0046689Y0056201D02*
X-0049009D01*
X-0046689Y0056111D02*
X-0049009D01*
X-0046689Y0056021D02*
X-0049009D01*
X-0046689Y0055931D02*
X-0049009D01*
X-0046689Y0055841D02*
X-0049009D01*
X-0046689Y0055751D02*
X-0049009D01*
X-0046689Y0055661D02*
X-0049009D01*
X-0046689Y0055571D02*
X-0049009D01*
X-0046689Y0055481D02*
X-0049009D01*
X-0046689Y0055391D02*
X-0049009D01*
X-0046689Y0055301D02*
X-0049009D01*
X-0046689Y0055211D02*
X-0049009D01*
X-0046689Y0055121D02*
X-0049009D01*
X-0046689Y0055031D02*
X-0049009D01*
X-0046689Y0054941D02*
X-0049009D01*
X-0046689Y0054851D02*
X-0049009D01*
X-0046689Y0054761D02*
X-0049009D01*
X-0046689Y0054671D02*
X-0049009D01*
X-0046689Y0054581D02*
X-0049009D01*
X-0046689Y0054491D02*
X-0049009D01*
X-0046689Y0054401D02*
X-0049009D01*
X-0046689Y0054311D02*
X-0049009D01*
X-0046689Y0054221D02*
X-0049009D01*
X-0046689Y0054131D02*
X-0049009D01*
X-0046689Y0054041D02*
X-0049009D01*
X-0046689Y0053951D02*
X-0049009D01*
X-0046689Y0053861D02*
X-0049009D01*
X-0046689Y0053771D02*
X-0049009D01*
X-0046689Y0053681D02*
X-0049009D01*
X-0046689Y0053591D02*
X-0049009D01*
X-0046689Y0053501D02*
X-0049009D01*
X-0048969Y0071823D02*
Y0047161D01*
X-0046689Y0053321D02*
X-0049009D01*
X-0046689Y0053231D02*
X-0049009D01*
X-0046689Y0053141D02*
X-0049009D01*
X-0046689Y0053051D02*
X-0049009D01*
X-0046689Y0052961D02*
X-0049009D01*
X-0046689Y0052871D02*
X-0049009D01*
X-0046689Y0052781D02*
X-0049009D01*
X-0046689Y0052691D02*
X-0049009D01*
X-0046689Y0052601D02*
X-0049009D01*
X-0046689Y0052511D02*
X-0049009D01*
X-0046689Y0052421D02*
X-0049009D01*
X-0046689Y0052331D02*
X-0049009D01*
X-0046689Y0052241D02*
X-0049009D01*
X-0046689Y0052151D02*
X-0049009D01*
X-0046689Y0052061D02*
X-0049009D01*
X-0046689Y0051971D02*
X-0049009D01*
X-0046689Y0051881D02*
X-0049009D01*
X-0046689Y0051791D02*
X-0049009D01*
X-0046689Y0051701D02*
X-0049009D01*
X-0046689Y0051611D02*
X-0049009D01*
X-0046689Y0051521D02*
X-0049009D01*
X-0046689Y0051431D02*
X-0049009D01*
X-0046689Y0051341D02*
X-0049009D01*
X-0046689Y0051251D02*
X-0049009D01*
X-0046689Y0051161D02*
X-0049009D01*
X-0046689Y0051071D02*
X-0049009D01*
X-0046689Y0050981D02*
X-0049009D01*
X-0046689Y0050891D02*
X-0049009D01*
X-0046689Y0050801D02*
X-0049009D01*
X-0046689Y0050711D02*
X-0049009D01*
X-0046689Y0050621D02*
X-0049009D01*
X-0046689Y0050531D02*
X-0049009D01*
X-0046689Y0050441D02*
X-0049009D01*
X-0046689Y0050351D02*
X-0049009D01*
X-0046689Y0050261D02*
X-0049009D01*
X-0046689Y0050171D02*
X-0049009D01*
X-0046689Y0050081D02*
X-0049009D01*
X-0046689Y0049991D02*
X-0049009D01*
X-0046689Y0049901D02*
X-0049009D01*
X-0046689Y0049811D02*
X-0049009D01*
X-0046689Y0049721D02*
X-0049009D01*
X-0046689Y0049631D02*
X-0049009D01*
X-0046689Y0049541D02*
X-0049009D01*
X-0046689Y0049451D02*
X-0049009D01*
X-0046689Y0049361D02*
X-0049009D01*
X-0046689Y0049271D02*
X-0049009D01*
X-0046689Y0049181D02*
X-0049009D01*
X-0046689Y0049091D02*
X-0049009D01*
X-0046689Y0049001D02*
X-0049009D01*
X-0046689Y0048911D02*
X-0049009D01*
X-0046689Y0048821D02*
X-0049009D01*
X-0046689Y0048731D02*
X-0049009D01*
X-0046689Y0048641D02*
X-0049009D01*
X-0046689Y0048551D02*
X-0049009D01*
X-0046689Y0048461D02*
X-0049009D01*
X-0046689Y0048371D02*
X-0049009D01*
X-0046689Y0048281D02*
X-0049009D01*
X-0046689Y0048191D02*
X-0049009D01*
X-0046689Y0048101D02*
X-0049009D01*
X-0046689Y0048011D02*
X-0049009D01*
X-0046689Y0047921D02*
X-0049009D01*
X-0046689Y0047831D02*
X-0049009D01*
X-0046689Y0047741D02*
X-0049009D01*
X-0046689Y0047651D02*
X-0049009D01*
X-0046689Y0047561D02*
X-0049009D01*
X-0046689Y0047471D02*
X-0049009D01*
X-0046689Y0047381D02*
X-0049009D01*
X-0046689Y0047291D02*
X-0049009D01*
X-0049599Y0044329D02*
X-0066859D01*
X-0083544Y0044368D02*
X-0049599Y0044289D01*
Y0047161D02*
Y0044289D01*
Y0047161D02*
X-0083505D01*
Y0044407D01*
X-0083426Y0044368D01*
X-0083544D01*
X-0049599Y0045769D02*
X-0083505D01*
X-0049664Y0047161D02*
Y0044289D01*
X-0049754Y0047161D02*
Y0044290D01*
X-0049844Y0047161D02*
Y0044290D01*
X-0049934Y0047161D02*
Y0044290D01*
X-0050024Y0047161D02*
Y0044290D01*
X-0050114Y0047161D02*
Y0044290D01*
X-0050204Y0047161D02*
Y0044291D01*
X-0050294Y0047161D02*
Y0044291D01*
X-0050384Y0047161D02*
Y0044291D01*
X-0050474Y0047161D02*
Y0044291D01*
X-0050564Y0047161D02*
Y0044291D01*
X-0050654Y0047161D02*
Y0044292D01*
X-0050744Y0047161D02*
Y0044292D01*
X-0050834Y0047161D02*
Y0044292D01*
X-0050924Y0047161D02*
Y0044292D01*
X-0051014Y0047161D02*
Y0044292D01*
X-0051104Y0047161D02*
Y0044293D01*
X-0051194Y0047161D02*
Y0044293D01*
X-0051284Y0047161D02*
Y0044293D01*
X-0051374Y0047161D02*
Y0044293D01*
X-0051464Y0047161D02*
Y0044293D01*
X-0051554Y0047161D02*
Y0044294D01*
X-0051644Y0047161D02*
Y0044294D01*
X-0051734Y0047161D02*
Y0044294D01*
X-0051824Y0047161D02*
Y0044294D01*
X-0051914Y0047161D02*
Y0044295D01*
X-0052004Y0047161D02*
Y0044295D01*
X-0052094Y0047161D02*
Y0044295D01*
X-0052184Y0047161D02*
Y0044295D01*
X-0052274Y0047161D02*
Y0044295D01*
X-0052364Y0047161D02*
Y0044296D01*
X-0052454Y0047161D02*
Y0044296D01*
X-0052544Y0047161D02*
Y0044296D01*
X-0052634Y0047161D02*
Y0044296D01*
X-0052724Y0047161D02*
Y0044296D01*
X-0052814Y0047161D02*
Y0044297D01*
X-0052904Y0047161D02*
Y0044297D01*
X-0052994Y0047161D02*
Y0044297D01*
X-0053084Y0047161D02*
Y0044297D01*
X-0053174Y0047161D02*
Y0044297D01*
X-0053264Y0047161D02*
Y0044298D01*
X-0053354Y0047161D02*
Y0044298D01*
X-0053444Y0047161D02*
Y0044298D01*
X-0053534Y0047161D02*
Y0044298D01*
X-0053624Y0047161D02*
Y0044298D01*
X-0053714Y0047161D02*
Y0044299D01*
X-0053804Y0047161D02*
Y0044299D01*
X-0053894Y0047161D02*
Y0044299D01*
X-0053984Y0047161D02*
Y0044299D01*
X-0054074Y0047161D02*
Y0044300D01*
X-0054164Y0047161D02*
Y0044300D01*
X-0054254Y0047161D02*
Y0044300D01*
X-0054344Y0047161D02*
Y0044300D01*
X-0054434Y0047161D02*
Y0044300D01*
X-0054524Y0047161D02*
Y0044301D01*
X-0054614Y0047161D02*
Y0044301D01*
X-0054704Y0047161D02*
Y0044301D01*
X-0054794Y0047161D02*
Y0044301D01*
X-0054884Y0047161D02*
Y0044301D01*
X-0054974Y0047161D02*
Y0044302D01*
X-0055064Y0047161D02*
Y0044302D01*
X-0055154Y0047161D02*
Y0044302D01*
X-0055244Y0047161D02*
Y0044302D01*
X-0055334Y0047161D02*
Y0044302D01*
X-0055424Y0047161D02*
Y0044303D01*
X-0055514Y0047161D02*
Y0044303D01*
X-0055604Y0047161D02*
Y0044303D01*
X-0055694Y0047161D02*
Y0044303D01*
X-0055784Y0047161D02*
Y0044303D01*
X-0055874Y0047161D02*
Y0044304D01*
X-0055964Y0047161D02*
Y0044304D01*
X-0056054Y0047161D02*
Y0044304D01*
X-0056144Y0047161D02*
Y0044304D01*
X-0056234Y0047161D02*
Y0044305D01*
X-0056324Y0047161D02*
Y0044305D01*
X-0056414Y0047161D02*
Y0044305D01*
X-0056504Y0047161D02*
Y0044305D01*
X-0056594Y0047161D02*
Y0044305D01*
X-0056684Y0047161D02*
Y0044306D01*
X-0056774Y0047161D02*
Y0044306D01*
X-0056864Y0047161D02*
Y0044306D01*
X-0056954Y0047161D02*
Y0044306D01*
X-0057044Y0047161D02*
Y0044306D01*
X-0057134Y0047161D02*
Y0044307D01*
X-0057224Y0047161D02*
Y0044307D01*
X-0057314Y0047161D02*
Y0044307D01*
X-0057404Y0047161D02*
Y0044307D01*
X-0057494Y0047161D02*
Y0044307D01*
X-0057584Y0047161D02*
Y0044308D01*
X-0057674Y0047161D02*
Y0044308D01*
X-0057764Y0047161D02*
Y0044308D01*
X-0057854Y0047161D02*
Y0044308D01*
X-0057944Y0047161D02*
Y0044309D01*
X-0058034Y0047161D02*
Y0044309D01*
X-0058124Y0047161D02*
Y0044309D01*
X-0058214Y0047161D02*
Y0044309D01*
X-0058304Y0047161D02*
Y0044309D01*
X-0058394Y0047161D02*
Y0044310D01*
X-0058484Y0047161D02*
Y0044310D01*
X-0058574Y0047161D02*
Y0044310D01*
X-0058664Y0047161D02*
Y0044310D01*
X-0058754Y0047161D02*
Y0044310D01*
X-0058844Y0047161D02*
Y0044311D01*
X-0058934Y0047161D02*
Y0044311D01*
X-0059024Y0047161D02*
Y0044311D01*
X-0059114Y0047161D02*
Y0044311D01*
X-0059204Y0047161D02*
Y0044311D01*
X-0059294Y0047161D02*
Y0044312D01*
X-0059384Y0047161D02*
Y0044312D01*
X-0059474Y0047161D02*
Y0044312D01*
X-0059564Y0047161D02*
Y0044312D01*
X-0059654Y0047161D02*
Y0044312D01*
X-0059744Y0047161D02*
Y0044313D01*
X-0059834Y0047161D02*
Y0044313D01*
X-0059924Y0047161D02*
Y0044313D01*
X-0060014Y0047161D02*
Y0044313D01*
X-0060104Y0047161D02*
Y0044314D01*
X-0060194Y0047161D02*
Y0044314D01*
X-0060284Y0047161D02*
Y0044314D01*
X-0060374Y0047161D02*
Y0044314D01*
X-0060464Y0047161D02*
Y0044314D01*
X-0060554Y0047161D02*
Y0044315D01*
X-0060644Y0047161D02*
Y0044315D01*
X-0060734Y0047161D02*
Y0044315D01*
X-0060824Y0047161D02*
Y0044315D01*
X-0060914Y0047161D02*
Y0044315D01*
X-0061004Y0047161D02*
Y0044316D01*
X-0061094Y0047161D02*
Y0044316D01*
X-0061184Y0047161D02*
Y0044316D01*
X-0061274Y0047161D02*
Y0044316D01*
X-0061364Y0047161D02*
Y0044316D01*
X-0061454Y0047161D02*
Y0044317D01*
X-0061544Y0047161D02*
Y0044317D01*
X-0061634Y0047161D02*
Y0044317D01*
X-0061724Y0047161D02*
Y0044317D01*
X-0061814Y0047161D02*
Y0044317D01*
X-0061904Y0047161D02*
Y0044318D01*
X-0061994Y0047161D02*
Y0044318D01*
X-0062084Y0047161D02*
Y0044318D01*
X-0062174Y0047161D02*
Y0044318D01*
X-0062264Y0047161D02*
Y0044319D01*
X-0062354Y0047161D02*
Y0044319D01*
X-0062444Y0047161D02*
Y0044319D01*
X-0062534Y0047161D02*
Y0044319D01*
X-0062624Y0047161D02*
Y0044319D01*
X-0062714Y0047161D02*
Y0044320D01*
X-0062804Y0047161D02*
Y0044320D01*
X-0062894Y0047161D02*
Y0044320D01*
X-0062984Y0047161D02*
Y0044320D01*
X-0063074Y0047161D02*
Y0044320D01*
X-0063164Y0047161D02*
Y0044321D01*
X-0063254Y0047161D02*
Y0044321D01*
X-0063344Y0047161D02*
Y0044321D01*
X-0063434Y0047161D02*
Y0044321D01*
X-0063524Y0047161D02*
Y0044321D01*
X-0063614Y0047161D02*
Y0044322D01*
X-0063704Y0047161D02*
Y0044322D01*
X-0063794Y0047161D02*
Y0044322D01*
X-0063884Y0047161D02*
Y0044322D01*
X-0063974Y0047161D02*
Y0044322D01*
X-0064064Y0047161D02*
Y0044323D01*
X-0064154Y0047161D02*
Y0044323D01*
X-0064244Y0047161D02*
Y0044323D01*
X-0064334Y0047161D02*
Y0044323D01*
X-0064424Y0047161D02*
Y0044324D01*
X-0064514Y0047161D02*
Y0044324D01*
X-0064604Y0047161D02*
Y0044324D01*
X-0064694Y0047161D02*
Y0044324D01*
X-0064784Y0047161D02*
Y0044324D01*
X-0064874Y0047161D02*
Y0044325D01*
X-0064964Y0047161D02*
Y0044325D01*
X-0065054Y0047161D02*
Y0044325D01*
X-0065144Y0047161D02*
Y0044325D01*
X-0065234Y0047161D02*
Y0044325D01*
X-0065324Y0047161D02*
Y0044326D01*
X-0065414Y0047161D02*
Y0044326D01*
X-0065504Y0047161D02*
Y0044326D01*
X-0065594Y0047161D02*
Y0044326D01*
X-0065684Y0047161D02*
Y0044326D01*
X-0065774Y0047161D02*
Y0044327D01*
X-0065864Y0047161D02*
Y0044327D01*
X-0065954Y0047161D02*
Y0044327D01*
X-0066044Y0047161D02*
Y0044327D01*
X-0066134Y0047161D02*
Y0044327D01*
X-0066224Y0047161D02*
Y0044328D01*
X-0066314Y0047161D02*
Y0044328D01*
X-0066404Y0047161D02*
Y0044328D01*
X-0049599Y0045049D02*
X-0083505D01*
X-0066584Y0047161D02*
Y0044329D01*
X-0066674Y0047161D02*
Y0044329D01*
X-0066764Y0047161D02*
Y0044329D01*
X-0066854Y0047161D02*
Y0044329D01*
X-0066944Y0047161D02*
Y0044329D01*
X-0067034Y0047161D02*
Y0044330D01*
X-0067124Y0047161D02*
Y0044330D01*
X-0067214Y0047161D02*
Y0044330D01*
X-0067304Y0047161D02*
Y0044330D01*
X-0067394Y0047161D02*
Y0044330D01*
X-0067484Y0047161D02*
Y0044331D01*
X-0067574Y0047161D02*
Y0044331D01*
X-0067664Y0047161D02*
Y0044331D01*
X-0067754Y0047161D02*
Y0044331D01*
X-0067844Y0047161D02*
Y0044331D01*
X-0067934Y0047161D02*
Y0044332D01*
X-0068024Y0047161D02*
Y0044332D01*
X-0068114Y0047161D02*
Y0044332D01*
X-0068204Y0047161D02*
Y0044332D01*
X-0068294Y0047161D02*
Y0044332D01*
X-0068384Y0047161D02*
Y0044333D01*
X-0068474Y0047161D02*
Y0044333D01*
X-0068564Y0047161D02*
Y0044333D01*
X-0068654Y0047161D02*
Y0044333D01*
X-0068744Y0047161D02*
Y0044334D01*
X-0068834Y0047161D02*
Y0044334D01*
X-0068924Y0047161D02*
Y0044334D01*
X-0069014Y0047161D02*
Y0044334D01*
X-0069104Y0047161D02*
Y0044334D01*
X-0069194Y0047161D02*
Y0044335D01*
X-0069284Y0047161D02*
Y0044335D01*
X-0069374Y0047161D02*
Y0044335D01*
X-0069464Y0047161D02*
Y0044335D01*
X-0069554Y0047161D02*
Y0044335D01*
X-0069644Y0047161D02*
Y0044336D01*
X-0069734Y0047161D02*
Y0044336D01*
X-0069824Y0047161D02*
Y0044336D01*
X-0069914Y0047161D02*
Y0044336D01*
X-0070004Y0047161D02*
Y0044336D01*
X-0070094Y0047161D02*
Y0044337D01*
X-0070184Y0047161D02*
Y0044337D01*
X-0070274Y0047161D02*
Y0044337D01*
X-0070364Y0047161D02*
Y0044337D01*
X-0070454Y0047161D02*
Y0044337D01*
X-0070544Y0047161D02*
Y0044338D01*
X-0070634Y0047161D02*
Y0044338D01*
X-0070724Y0047161D02*
Y0044338D01*
X-0070814Y0047161D02*
Y0044338D01*
X-0070904Y0047161D02*
Y0044339D01*
X-0070994Y0047161D02*
Y0044339D01*
X-0071084Y0047161D02*
Y0044339D01*
X-0071174Y0047161D02*
Y0044339D01*
X-0071264Y0047161D02*
Y0044339D01*
X-0071354Y0047161D02*
Y0044340D01*
X-0071444Y0047161D02*
Y0044340D01*
X-0071534Y0047161D02*
Y0044340D01*
X-0071624Y0047161D02*
Y0044340D01*
X-0071714Y0047161D02*
Y0044340D01*
X-0071804Y0047161D02*
Y0044341D01*
X-0071894Y0047161D02*
Y0044341D01*
X-0071984Y0047161D02*
Y0044341D01*
X-0072074Y0047161D02*
Y0044341D01*
X-0072164Y0047161D02*
Y0044341D01*
X-0072254Y0047161D02*
Y0044342D01*
X-0072344Y0047161D02*
Y0044342D01*
X-0072434Y0047161D02*
Y0044342D01*
X-0072524Y0047161D02*
Y0044342D01*
X-0072614Y0047161D02*
Y0044343D01*
X-0072704Y0047161D02*
Y0044343D01*
X-0072794Y0047161D02*
Y0044343D01*
X-0072884Y0047161D02*
Y0044343D01*
X-0072974Y0047161D02*
Y0044343D01*
X-0073064Y0047161D02*
Y0044344D01*
X-0073154Y0047161D02*
Y0044344D01*
X-0073244Y0047161D02*
Y0044344D01*
X-0073334Y0047161D02*
Y0044344D01*
X-0073424Y0047161D02*
Y0044344D01*
X-0073514Y0047161D02*
Y0044345D01*
X-0073604Y0047161D02*
Y0044345D01*
X-0073694Y0047161D02*
Y0044345D01*
X-0073784Y0047161D02*
Y0044345D01*
X-0073874Y0047161D02*
Y0044345D01*
X-0073964Y0047161D02*
Y0044346D01*
X-0074054Y0047161D02*
Y0044346D01*
X-0074144Y0047161D02*
Y0044346D01*
X-0074234Y0047161D02*
Y0044346D01*
X-0074324Y0047161D02*
Y0044346D01*
X-0074414Y0047161D02*
Y0044347D01*
X-0074504Y0047161D02*
Y0044347D01*
X-0074594Y0047161D02*
Y0044347D01*
X-0074684Y0047161D02*
Y0044347D01*
X-0074774Y0047161D02*
Y0044348D01*
X-0074864Y0047161D02*
Y0044348D01*
X-0049599Y0044689D02*
X-0083505D01*
X-0075044Y0047161D02*
Y0044348D01*
X-0075134Y0047161D02*
Y0044348D01*
X-0075224Y0047161D02*
Y0044349D01*
X-0075314Y0047161D02*
Y0044349D01*
X-0075404Y0047161D02*
Y0044349D01*
X-0075494Y0047161D02*
Y0044349D01*
X-0075584Y0047161D02*
Y0044349D01*
X-0075674Y0047161D02*
Y0044350D01*
X-0075764Y0047161D02*
Y0044350D01*
X-0075854Y0047161D02*
Y0044350D01*
X-0075944Y0047161D02*
Y0044350D01*
X-0076034Y0047161D02*
Y0044350D01*
X-0076124Y0047161D02*
Y0044351D01*
X-0076214Y0047161D02*
Y0044351D01*
X-0076304Y0047161D02*
Y0044351D01*
X-0076394Y0047161D02*
Y0044351D01*
X-0076484Y0047161D02*
Y0044351D01*
X-0076574Y0047161D02*
Y0044352D01*
X-0076664Y0047161D02*
Y0044352D01*
X-0076754Y0047161D02*
Y0044352D01*
X-0076844Y0047161D02*
Y0044352D01*
X-0076934Y0047161D02*
Y0044353D01*
X-0077024Y0047161D02*
Y0044353D01*
X-0077114Y0047161D02*
Y0044353D01*
X-0077204Y0047161D02*
Y0044353D01*
X-0077294Y0047161D02*
Y0044353D01*
X-0077384Y0047161D02*
Y0044354D01*
X-0077474Y0047161D02*
Y0044354D01*
X-0077564Y0047161D02*
Y0044354D01*
X-0077654Y0047161D02*
Y0044354D01*
X-0077744Y0047161D02*
Y0044354D01*
X-0077834Y0047161D02*
Y0044355D01*
X-0077924Y0047161D02*
Y0044355D01*
X-0078014Y0047161D02*
Y0044355D01*
X-0078104Y0047161D02*
Y0044355D01*
X-0078194Y0047161D02*
Y0044355D01*
X-0078284Y0047161D02*
Y0044356D01*
X-0078374Y0047161D02*
Y0044356D01*
X-0078464Y0047161D02*
Y0044356D01*
X-0078554Y0047161D02*
Y0044356D01*
X-0078644Y0047161D02*
Y0044356D01*
X-0078734Y0047161D02*
Y0044357D01*
X-0078824Y0047161D02*
Y0044357D01*
X-0078914Y0047161D02*
Y0044357D01*
X-0079004Y0047161D02*
Y0044357D01*
X-0079094Y0047161D02*
Y0044358D01*
X-0079184Y0047161D02*
Y0044358D01*
X-0079274Y0047161D02*
Y0044358D01*
X-0079364Y0047161D02*
Y0044358D01*
X-0079454Y0047161D02*
Y0044358D01*
X-0079544Y0047161D02*
Y0044359D01*
X-0079634Y0047161D02*
Y0044359D01*
X-0079724Y0047161D02*
Y0044359D01*
X-0079814Y0047161D02*
Y0044359D01*
X-0079904Y0047161D02*
Y0044359D01*
X-0079994Y0047161D02*
Y0044360D01*
X-0080084Y0047161D02*
Y0044360D01*
X-0080174Y0047161D02*
Y0044360D01*
X-0080264Y0047161D02*
Y0044360D01*
X-0080354Y0047161D02*
Y0044360D01*
X-0080444Y0047161D02*
Y0044361D01*
X-0080534Y0047161D02*
Y0044361D01*
X-0080624Y0047161D02*
Y0044361D01*
X-0080714Y0047161D02*
Y0044361D01*
X-0080804Y0047161D02*
Y0044361D01*
X-0080894Y0047161D02*
Y0044362D01*
X-0080984Y0047161D02*
Y0044362D01*
X-0081074Y0047161D02*
Y0044362D01*
X-0081164Y0047161D02*
Y0044362D01*
X-0081254Y0047161D02*
Y0044363D01*
X-0081344Y0047161D02*
Y0044363D01*
X-0081434Y0047161D02*
Y0044363D01*
X-0081524Y0047161D02*
Y0044363D01*
X-0081614Y0047161D02*
Y0044363D01*
X-0081704Y0047161D02*
Y0044364D01*
X-0081794Y0047161D02*
Y0044364D01*
X-0081884Y0047161D02*
Y0044364D01*
X-0081974Y0047161D02*
Y0044364D01*
X-0082064Y0047161D02*
Y0044364D01*
X-0082154Y0047161D02*
Y0044365D01*
X-0082244Y0047161D02*
Y0044365D01*
X-0082334Y0047161D02*
Y0044365D01*
X-0082424Y0047161D02*
Y0044365D01*
X-0082514Y0047161D02*
Y0044365D01*
X-0082604Y0047161D02*
Y0044366D01*
X-0082694Y0047161D02*
Y0044366D01*
X-0082784Y0047161D02*
Y0044366D01*
X-0082874Y0047161D02*
Y0044366D01*
X-0082964Y0047161D02*
Y0044366D01*
X-0083054Y0047161D02*
Y0044367D01*
X-0083144Y0047161D02*
Y0044367D01*
X-0083234Y0047161D02*
Y0044367D01*
X-0083324Y0047161D02*
Y0044367D01*
X-0083414Y0047161D02*
Y0044368D01*
X-0049599Y0047119D02*
X-0083505D01*
X-0049599Y0047029D02*
X-0083505D01*
X-0049599Y0046939D02*
X-0083505D01*
X-0049599Y0046849D02*
X-0083505D01*
X-0049599Y0046759D02*
X-0083505D01*
X-0049599Y0046669D02*
X-0083505D01*
X-0049599Y0046579D02*
X-0083505D01*
X-0049599Y0046489D02*
X-0083505D01*
X-0049599Y0046399D02*
X-0083505D01*
X-0049599Y0046309D02*
X-0083505D01*
X-0049599Y0046219D02*
X-0083505D01*
X-0049599Y0046129D02*
X-0083505D01*
X-0049599Y0046039D02*
X-0083505D01*
X-0049599Y0045949D02*
X-0083505D01*
X-0049599Y0045859D02*
X-0083505D01*
X-0066494Y0047161D02*
Y0044328D01*
X-0049599Y0045679D02*
X-0083505D01*
X-0049599Y0045589D02*
X-0083505D01*
X-0049599Y0045499D02*
X-0083505D01*
X-0049599Y0045409D02*
X-0083505D01*
X-0049599Y0045319D02*
X-0083505D01*
X-0049599Y0045229D02*
X-0083505D01*
X-0049599Y0045139D02*
X-0083505D01*
X-0074954Y0047161D02*
Y0044348D01*
X-0049599Y0044959D02*
X-0083505D01*
X-0049599Y0044869D02*
X-0083505D01*
X-0049599Y0044779D02*
X-0083505D01*
X-0049599Y0044599D02*
X-0083505D01*
X-0049599Y0044509D02*
X-0083505D01*
X-0049599Y0044419D02*
X-0083505D01*
X-0048815Y0063221D02*
X-0049996D01*
X-0048815Y0063131D02*
X-0049996D01*
X-0048815Y0063041D02*
X-0049996D01*
X-0048815Y0062951D02*
X-0049996D01*
X-0048815Y0062861D02*
X-0049996D01*
X-0048815Y0062771D02*
X-0049996D01*
X-0048815Y0062681D02*
X-0049996D01*
X-0048815Y0062591D02*
X-0049996D01*
X-0048815Y0062501D02*
X-0049996D01*
X-0048815Y0062411D02*
X-0049996D01*
X-0048815Y0062321D02*
X-0049996D01*
X-0048815Y0062231D02*
X-0049996D01*
X-0048815Y0062141D02*
X-0049996D01*
X-0048815Y0062051D02*
X-0049996D01*
X-0048815Y0061961D02*
X-0049996D01*
X-0048815Y0061871D02*
X-0049996D01*
X-0048815Y0061781D02*
X-0049996D01*
X-0048815Y0061691D02*
X-0049996D01*
X-0048815Y0061601D02*
X-0049996D01*
X-0048815Y0061511D02*
X-0049996D01*
X-0048815Y0061421D02*
X-0049996D01*
X-0048815Y0061331D02*
X-0049996D01*
X-0048815Y0061241D02*
X-0049996D01*
X-0048815Y0061151D02*
X-0049996D01*
X-0048815Y0061061D02*
X-0049996D01*
X-0048815Y0060971D02*
X-0049996D01*
X-0048815Y0060881D02*
X-0049996D01*
X-0048815Y0060791D02*
X-0049996D01*
X-0048815Y0060701D02*
X-0049996D01*
X-0048815Y0060611D02*
X-0049996D01*
X-0048815Y0060521D02*
X-0049996D01*
X-0048815Y0060431D02*
X-0049996D01*
X-0048815Y0060341D02*
X-0049996D01*
X-0048815Y0060251D02*
X-0049996D01*
X-0048815Y0060161D02*
X-0049996D01*
X-0048815Y0060071D02*
X-0049996D01*
X-0048815Y0059981D02*
X-0049996D01*
X-0048815Y0059891D02*
X-0049996D01*
X-0048815Y0059801D02*
X-0049996D01*
X-0049326Y0071823D02*
Y0047161D01*
X-0048815Y0059621D02*
X-0049996D01*
X-0048815Y0059531D02*
X-0049996D01*
X-0048815Y0059441D02*
X-0049996D01*
X-0048815Y0059351D02*
X-0049996D01*
X-0048815Y0059261D02*
X-0049996D01*
X-0048815Y0059171D02*
X-0049996D01*
X-0048815Y0059081D02*
X-0049996D01*
X-0048815Y0058991D02*
X-0049996D01*
X-0048815Y0058901D02*
X-0049996D01*
X-0048815Y0058811D02*
X-0049996D01*
X-0048815Y0058721D02*
X-0049996D01*
X-0048815Y0058631D02*
X-0049996D01*
X-0048815Y0058541D02*
X-0049996D01*
X-0048815Y0058451D02*
X-0049996D01*
X-0048815Y0058361D02*
X-0049996D01*
X-0048815Y0058271D02*
X-0049996D01*
X-0048815Y0058181D02*
X-0049996D01*
X-0048815Y0058091D02*
X-0049996D01*
X-0048815Y0058001D02*
X-0049996D01*
X-0048815Y0057911D02*
X-0049996D01*
X-0048815Y0057821D02*
X-0049996D01*
X-0048815Y0057731D02*
X-0049996D01*
X-0048815Y0057641D02*
X-0049996D01*
X-0048815Y0057551D02*
X-0049996D01*
X-0048815Y0057461D02*
X-0049996D01*
X-0048815Y0057371D02*
X-0049996D01*
X-0048815Y0057281D02*
X-0049996D01*
X-0048815Y0057191D02*
X-0049996D01*
X-0048815Y0057101D02*
X-0049996D01*
X-0048815Y0057011D02*
X-0049996D01*
X-0048815Y0056921D02*
X-0049996D01*
X-0048815Y0056831D02*
X-0049996D01*
X-0048815Y0056741D02*
X-0049996D01*
X-0048815Y0056651D02*
X-0049996D01*
X-0048815Y0056561D02*
X-0049996D01*
X-0048815Y0056471D02*
X-0049996D01*
X-0048815Y0056381D02*
X-0049996D01*
X-0048815Y0056291D02*
X-0049996D01*
X-0048815Y0056201D02*
X-0049996D01*
X-0048815Y0056111D02*
X-0049996D01*
X-0048815Y0056021D02*
X-0049996D01*
X-0048815Y0055931D02*
X-0049996D01*
X-0048815Y0055841D02*
X-0049996D01*
X-0048815Y0055751D02*
X-0049996D01*
X-0048815Y0055661D02*
X-0049996D01*
X-0048815Y0055571D02*
X-0049996D01*
X-0048815Y0055481D02*
X-0049996D01*
X-0048815Y0055391D02*
X-0049996D01*
X-0048815Y0055301D02*
X-0049996D01*
X-0048815Y0055211D02*
X-0049996D01*
X-0048815Y0055121D02*
X-0049996D01*
X-0048815Y0055031D02*
X-0049996D01*
X-0048815Y0054941D02*
X-0049996D01*
X-0048815Y0054851D02*
X-0049996D01*
X-0048815Y0054761D02*
X-0049996D01*
X-0048815Y0054671D02*
X-0049996D01*
X-0048815Y0054581D02*
X-0049996D01*
X-0048815Y0054491D02*
X-0049996D01*
X-0048815Y0054401D02*
X-0049996D01*
X-0048815Y0054311D02*
X-0049996D01*
X-0048815Y0054221D02*
X-0049996D01*
X-0048815Y0054131D02*
X-0049996D01*
X-0048815Y0054041D02*
X-0049996D01*
X-0048815Y0053951D02*
X-0049996D01*
X-0048815Y0053861D02*
X-0049996D01*
X-0048815Y0053771D02*
X-0049996D01*
X-0048815Y0053681D02*
X-0049996D01*
X-0048815Y0053591D02*
X-0049996D01*
X-0048815Y0053501D02*
X-0049996D01*
X-0049956Y0071825D02*
Y0047224D01*
X-0048815Y0053321D02*
X-0049996D01*
X-0048815Y0053231D02*
X-0049996D01*
X-0048815Y0053141D02*
X-0049996D01*
X-0048815Y0053051D02*
X-0049996D01*
X-0048815Y0052961D02*
X-0049996D01*
X-0048815Y0052871D02*
X-0049996D01*
X-0048815Y0052781D02*
X-0049996D01*
X-0048815Y0052691D02*
X-0049996D01*
X-0048815Y0052601D02*
X-0049996D01*
X-0048815Y0052511D02*
X-0049996D01*
X-0048815Y0052421D02*
X-0049996D01*
X-0048815Y0052331D02*
X-0049996D01*
X-0048815Y0052241D02*
X-0049996D01*
X-0048815Y0052151D02*
X-0049996D01*
X-0048815Y0052061D02*
X-0049996D01*
X-0048815Y0051971D02*
X-0049996D01*
X-0048815Y0051881D02*
X-0049996D01*
X-0048815Y0051791D02*
X-0049996D01*
X-0048815Y0051701D02*
X-0049996D01*
X-0048815Y0051611D02*
X-0049996D01*
X-0048815Y0051521D02*
X-0049996D01*
X-0048815Y0051431D02*
X-0049996D01*
X-0048815Y0051341D02*
X-0049996D01*
X-0048815Y0051251D02*
X-0049996D01*
X-0048815Y0051161D02*
X-0049996D01*
X-0048815Y0051071D02*
X-0049996D01*
X-0048815Y0050981D02*
X-0049996D01*
X-0048815Y0050891D02*
X-0049996D01*
X-0048815Y0050801D02*
X-0049996D01*
X-0048815Y0050711D02*
X-0049996D01*
X-0048815Y0050621D02*
X-0049996D01*
X-0048815Y0050531D02*
X-0049996D01*
X-0048815Y0050441D02*
X-0049996D01*
X-0048815Y0050351D02*
X-0049996D01*
X-0048815Y0050261D02*
X-0049996D01*
X-0048815Y0050171D02*
X-0049996D01*
X-0048815Y0050081D02*
X-0049996D01*
X-0048815Y0049991D02*
X-0049996D01*
X-0048815Y0049901D02*
X-0049996D01*
X-0048815Y0049811D02*
X-0049996D01*
X-0048815Y0049721D02*
X-0049996D01*
X-0048815Y0049631D02*
X-0049996D01*
X-0048815Y0049541D02*
X-0049996D01*
X-0048815Y0049451D02*
X-0049996D01*
X-0048815Y0049361D02*
X-0049996D01*
X-0048815Y0049271D02*
X-0049996D01*
X-0048815Y0049181D02*
X-0049996D01*
X-0048815Y0049091D02*
X-0049996D01*
X-0048815Y0049001D02*
X-0049996D01*
X-0048815Y0048911D02*
X-0049996D01*
X-0048815Y0048821D02*
X-0049996D01*
X-0048815Y0048731D02*
X-0049996D01*
X-0048815Y0048641D02*
X-0049996D01*
X-0048815Y0048551D02*
X-0049996D01*
X-0048815Y0048461D02*
X-0049996D01*
X-0048815Y0048371D02*
X-0049996D01*
X-0048815Y0048281D02*
X-0049996D01*
X-0048815Y0048191D02*
X-0049996D01*
X-0048815Y0048101D02*
X-0049996D01*
X-0048815Y0048011D02*
X-0049996D01*
X-0048815Y0047921D02*
X-0049996D01*
X-0048815Y0047831D02*
X-0049996D01*
X-0048815Y0047741D02*
X-0049996D01*
X-0048815Y0047651D02*
X-0049996D01*
X-0048815Y0047561D02*
X-0049996D01*
X-0048815Y0047471D02*
X-0049996D01*
X-0048815Y0047381D02*
X-0049996D01*
X-0048815Y0047291D02*
X-0049996D01*
X-0048853Y0047201D02*
X-0049897D01*
X-0049996Y0072041D02*
Y0047240D01*
Y0072041D02*
X-0049993Y0071862D01*
X-0049953Y0071823D01*
X-0048815D02*
X-0049953D01*
X-0048815D02*
Y0047240D01*
X-0048893Y0047161D01*
X-0049796D01*
X-0049996Y0047240D02*
X-0049796Y0047161D01*
X-0048815Y0059711D02*
X-0049996D01*
X-0048876Y0071823D02*
Y0047179D01*
X-0048966Y0071823D02*
Y0047161D01*
X-0049056Y0071823D02*
Y0047161D01*
X-0049146Y0071823D02*
Y0047161D01*
X-0049236Y0071823D02*
Y0047161D01*
X-0048815Y0053411D02*
X-0049996D01*
X-0049416Y0071823D02*
Y0047161D01*
X-0049506Y0071823D02*
Y0047161D01*
X-0049596Y0071823D02*
Y0047161D01*
X-0049686Y0071823D02*
Y0047161D01*
X-0049776Y0071823D02*
Y0047161D01*
X-0049866Y0071823D02*
Y0047189D01*
X-0048815Y0071771D02*
X-0049996D01*
X-0048815Y0071681D02*
X-0049996D01*
X-0048815Y0071591D02*
X-0049996D01*
X-0048815Y0071501D02*
X-0049996D01*
X-0048815Y0071411D02*
X-0049996D01*
X-0048815Y0071321D02*
X-0049996D01*
X-0048815Y0071231D02*
X-0049996D01*
X-0048815Y0071141D02*
X-0049996D01*
X-0048815Y0071051D02*
X-0049996D01*
X-0048815Y0070961D02*
X-0049996D01*
X-0048815Y0070871D02*
X-0049996D01*
X-0048815Y0070781D02*
X-0049996D01*
X-0048815Y0070691D02*
X-0049996D01*
X-0048815Y0070601D02*
X-0049996D01*
X-0048815Y0070511D02*
X-0049996D01*
X-0048815Y0070421D02*
X-0049996D01*
X-0048815Y0070331D02*
X-0049996D01*
X-0048815Y0070241D02*
X-0049996D01*
X-0048815Y0070151D02*
X-0049996D01*
X-0048815Y0070061D02*
X-0049996D01*
X-0048815Y0069971D02*
X-0049996D01*
X-0048815Y0069881D02*
X-0049996D01*
X-0048815Y0069791D02*
X-0049996D01*
X-0048815Y0069701D02*
X-0049996D01*
X-0048815Y0069611D02*
X-0049996D01*
X-0048815Y0069521D02*
X-0049996D01*
X-0048815Y0069431D02*
X-0049996D01*
X-0048815Y0069341D02*
X-0049996D01*
X-0048815Y0069251D02*
X-0049996D01*
X-0048815Y0069161D02*
X-0049996D01*
X-0048815Y0069071D02*
X-0049996D01*
X-0048815Y0068981D02*
X-0049996D01*
X-0048815Y0068891D02*
X-0049996D01*
X-0048815Y0068801D02*
X-0049996D01*
X-0048815Y0068711D02*
X-0049996D01*
X-0048815Y0068621D02*
X-0049996D01*
X-0048815Y0068531D02*
X-0049996D01*
X-0048815Y0068441D02*
X-0049996D01*
X-0048815Y0068351D02*
X-0049996D01*
X-0048815Y0068261D02*
X-0049996D01*
X-0048815Y0068171D02*
X-0049996D01*
X-0048815Y0068081D02*
X-0049996D01*
X-0048815Y0067991D02*
X-0049996D01*
X-0048815Y0067901D02*
X-0049996D01*
X-0048815Y0067811D02*
X-0049996D01*
X-0048815Y0067721D02*
X-0049996D01*
X-0048815Y0067631D02*
X-0049996D01*
X-0048815Y0067541D02*
X-0049996D01*
X-0048815Y0067451D02*
X-0049996D01*
X-0048815Y0067361D02*
X-0049996D01*
X-0048815Y0067271D02*
X-0049996D01*
X-0048815Y0067181D02*
X-0049996D01*
X-0048815Y0067091D02*
X-0049996D01*
X-0048815Y0067001D02*
X-0049996D01*
X-0048815Y0066911D02*
X-0049996D01*
X-0048815Y0066821D02*
X-0049996D01*
X-0048815Y0066731D02*
X-0049996D01*
X-0048815Y0066641D02*
X-0049996D01*
X-0048815Y0066551D02*
X-0049996D01*
X-0048815Y0066461D02*
X-0049996D01*
X-0048815Y0066371D02*
X-0049996D01*
X-0048815Y0066281D02*
X-0049996D01*
X-0048815Y0066191D02*
X-0049996D01*
X-0048815Y0066101D02*
X-0049996D01*
X-0048815Y0066011D02*
X-0049996D01*
X-0048815Y0065921D02*
X-0049996D01*
X-0048815Y0065831D02*
X-0049996D01*
X-0048815Y0065741D02*
X-0049996D01*
X-0048815Y0065651D02*
X-0049996D01*
X-0048815Y0065561D02*
X-0049996D01*
X-0048815Y0065471D02*
X-0049996D01*
X-0048815Y0065381D02*
X-0049996D01*
X-0048815Y0065291D02*
X-0049996D01*
X-0048815Y0065201D02*
X-0049996D01*
X-0048815Y0065111D02*
X-0049996D01*
X-0048815Y0065021D02*
X-0049996D01*
X-0048815Y0064931D02*
X-0049996D01*
X-0048815Y0064841D02*
X-0049996D01*
X-0048815Y0064751D02*
X-0049996D01*
X-0048815Y0064661D02*
X-0049996D01*
X-0048815Y0064571D02*
X-0049996D01*
X-0048815Y0064481D02*
X-0049996D01*
X-0048815Y0064391D02*
X-0049996D01*
X-0048815Y0064301D02*
X-0049996D01*
X-0048815Y0064211D02*
X-0049996D01*
X-0048815Y0064121D02*
X-0049996D01*
X-0048815Y0064031D02*
X-0049996D01*
X-0048815Y0063941D02*
X-0049996D01*
X-0048815Y0063851D02*
X-0049996D01*
X-0048815Y0063761D02*
X-0049996D01*
X-0048815Y0063671D02*
X-0049996D01*
X-0048815Y0063581D02*
X-0049996D01*
X-0048815Y0063491D02*
X-0049996D01*
X-0048815Y0063401D02*
X-0049996D01*
X-0048815Y0063311D02*
X-0049996D01*
X-0084527Y0069779D02*
X-0086297D01*
X-0084527Y0069689D02*
X-0086297D01*
X-0084527Y0069599D02*
X-0086297D01*
X-0084527Y0069509D02*
X-0086297D01*
X-0084527Y0069419D02*
X-0086297D01*
X-0084527Y0069329D02*
X-0086297D01*
X-0084527Y0069239D02*
X-0086297D01*
X-0084527Y0069149D02*
X-0086297D01*
X-0084527Y0069059D02*
X-0086297D01*
X-0084527Y0068969D02*
X-0086297D01*
X-0084527Y0068879D02*
X-0086297D01*
X-0084527Y0068789D02*
X-0086297D01*
X-0084527Y0068699D02*
X-0086297D01*
X-0084527Y0068609D02*
X-0086297D01*
X-0084527Y0068519D02*
X-0086297D01*
X-0084527Y0068429D02*
X-0086297D01*
X-0084527Y0068339D02*
X-0086297D01*
X-0084527Y0068249D02*
X-0086297D01*
X-0084527Y0068159D02*
X-0086297D01*
X-0084527Y0068069D02*
X-0086297D01*
X-0084527Y0067979D02*
X-0086297D01*
X-0084527Y0067889D02*
X-0086297D01*
X-0084527Y0067799D02*
X-0086297D01*
X-0084527Y0067709D02*
X-0086297D01*
X-0084527Y0067619D02*
X-0086297D01*
X-0084527Y0067529D02*
X-0086297D01*
X-0084527Y0067439D02*
X-0086297D01*
X-0084527Y0067349D02*
X-0086297D01*
X-0084527Y0067259D02*
X-0086297D01*
X-0084527Y0067169D02*
X-0086297D01*
X-0084527Y0067079D02*
X-0086297D01*
X-0084527Y0066989D02*
X-0086297D01*
X-0084527Y0066899D02*
X-0086297D01*
X-0084527Y0066809D02*
X-0086297D01*
X-0084527Y0066719D02*
X-0086297D01*
X-0084527Y0066629D02*
X-0086297D01*
X-0084527Y0066539D02*
X-0086297D01*
X-0084527Y0066449D02*
X-0086297D01*
X-0084527Y0066359D02*
X-0086297D01*
X-0084527Y0066269D02*
X-0086297D01*
X-0084527Y0066179D02*
X-0086297D01*
X-0084527Y0066089D02*
X-0086297D01*
X-0084527Y0065999D02*
X-0086297D01*
X-0084527Y0065909D02*
X-0086297D01*
X-0084527Y0065819D02*
X-0086297D01*
X-0084527Y0065729D02*
X-0086297D01*
X-0084527Y0065639D02*
X-0086297D01*
X-0084527Y0065549D02*
X-0086297D01*
X-0084527Y0065459D02*
X-0086297D01*
X-0084527Y0065369D02*
X-0086297D01*
X-0084527Y0065279D02*
X-0086297D01*
X-0084527Y0065189D02*
X-0086297D01*
X-0084527Y0065099D02*
X-0086297D01*
X-0084527Y0065009D02*
X-0086297D01*
X-0084527Y0064919D02*
X-0086297D01*
X-0084527Y0064829D02*
X-0086297D01*
X-0084527Y0064739D02*
X-0086297D01*
X-0084527Y0064649D02*
X-0086297D01*
X-0084527Y0064559D02*
X-0086297D01*
X-0084527Y0064469D02*
X-0086297D01*
X-0084527Y0064379D02*
X-0086297D01*
X-0084527Y0064289D02*
X-0086297D01*
X-0084527Y0064199D02*
X-0086297D01*
X-0084527Y0064109D02*
X-0086297D01*
X-0084527Y0064019D02*
X-0086297D01*
X-0084527Y0063929D02*
X-0086297D01*
X-0084527Y0063839D02*
X-0086297D01*
X-0084527Y0063749D02*
X-0086297D01*
X-0084527Y0063659D02*
X-0086297D01*
X-0084527Y0063569D02*
X-0086297D01*
X-0084527Y0063479D02*
X-0086297D01*
X-0084527Y0063389D02*
X-0086297D01*
X-0084527Y0063299D02*
X-0086297D01*
X-0084527Y0063209D02*
X-0086297D01*
X-0084527Y0063119D02*
X-0086297D01*
X-0084527Y0063029D02*
X-0086297D01*
X-0084527Y0062939D02*
X-0086297D01*
X-0084527Y0062849D02*
X-0086297D01*
X-0084527Y0062759D02*
X-0086297D01*
X-0084527Y0062669D02*
X-0086297D01*
X-0084527Y0062579D02*
X-0086297D01*
X-0084527Y0062489D02*
X-0086297D01*
X-0084527Y0062399D02*
X-0086297D01*
X-0084527Y0062309D02*
X-0086297D01*
X-0084527Y0062219D02*
X-0086297D01*
X-0084527Y0062129D02*
X-0086297D01*
X-0084527Y0062039D02*
X-0086297D01*
X-0084527Y0061949D02*
X-0086297D01*
X-0084527Y0061859D02*
X-0086297D01*
X-0084527Y0061769D02*
X-0086297D01*
X-0084527Y0061679D02*
X-0086297D01*
X-0084527Y0061589D02*
X-0086297D01*
X-0084527Y0061499D02*
X-0086297D01*
X-0084527Y0061409D02*
X-0086297D01*
X-0084527Y0061319D02*
X-0086297D01*
X-0084527Y0061229D02*
X-0086297D01*
X-0084527Y0061139D02*
X-0086297D01*
X-0084527Y0061049D02*
X-0086297D01*
X-0084527Y0060959D02*
X-0086297D01*
X-0084527Y0060869D02*
X-0086297D01*
X-0084527Y0060779D02*
X-0086297D01*
X-0084527Y0060689D02*
X-0086297D01*
X-0084527Y0060599D02*
X-0086297D01*
X-0084527Y0060509D02*
X-0086297D01*
X-0084527Y0060419D02*
X-0086297D01*
X-0084527Y0060329D02*
X-0086297D01*
X-0084527Y0060239D02*
X-0086297D01*
X-0084527Y0060149D02*
X-0086297D01*
X-0084527Y0060059D02*
X-0086297D01*
X-0084527Y0059969D02*
X-0086297D01*
X-0084527Y0059879D02*
X-0086297D01*
X-0084527Y0059789D02*
X-0086297D01*
X-0084527Y0059699D02*
X-0086297D01*
X-0084527Y0059609D02*
X-0086297D01*
X-0085357Y0071665D02*
Y0047239D01*
X-0084527Y0059429D02*
X-0086297D01*
X-0084527Y0059339D02*
X-0086297D01*
X-0084527Y0059249D02*
X-0086297D01*
X-0084527Y0059159D02*
X-0086297D01*
X-0084527Y0059069D02*
X-0086297D01*
X-0084527Y0058979D02*
X-0086297D01*
X-0084527Y0058889D02*
X-0086297D01*
X-0084527Y0058799D02*
X-0086297D01*
X-0084527Y0058709D02*
X-0086297D01*
X-0084527Y0058619D02*
X-0086297D01*
X-0084527Y0058529D02*
X-0086297D01*
X-0084527Y0058439D02*
X-0086297D01*
X-0084527Y0058349D02*
X-0086297D01*
X-0084527Y0058259D02*
X-0086297D01*
X-0084527Y0058169D02*
X-0086297D01*
X-0084527Y0058079D02*
X-0086297D01*
X-0084527Y0057989D02*
X-0086297D01*
X-0084527Y0057899D02*
X-0086297D01*
X-0084527Y0057809D02*
X-0086297D01*
X-0084527Y0057719D02*
X-0086297D01*
X-0084527Y0057629D02*
X-0086297D01*
X-0084527Y0057539D02*
X-0086297D01*
X-0084527Y0057449D02*
X-0086297D01*
X-0084527Y0057359D02*
X-0086297D01*
X-0084527Y0057269D02*
X-0086297D01*
X-0084527Y0057179D02*
X-0086297D01*
X-0084527Y0057089D02*
X-0086297D01*
X-0084527Y0056999D02*
X-0086297D01*
X-0084527Y0056909D02*
X-0086297D01*
X-0084527Y0056819D02*
X-0086297D01*
X-0084527Y0056729D02*
X-0086297D01*
X-0084527Y0056639D02*
X-0086297D01*
X-0084527Y0056549D02*
X-0086297D01*
X-0084527Y0056459D02*
X-0086297D01*
X-0084527Y0056369D02*
X-0086297D01*
X-0084527Y0056279D02*
X-0086297D01*
X-0084527Y0056189D02*
X-0086297D01*
X-0084527Y0056099D02*
X-0086297D01*
X-0084527Y0056009D02*
X-0086297D01*
X-0084527Y0055919D02*
X-0086297D01*
X-0084527Y0055829D02*
X-0086297D01*
X-0084527Y0055739D02*
X-0086297D01*
X-0084527Y0055649D02*
X-0086297D01*
X-0084527Y0055559D02*
X-0086297D01*
X-0084527Y0055469D02*
X-0086297D01*
X-0084527Y0055379D02*
X-0086297D01*
X-0084527Y0055289D02*
X-0086297D01*
X-0084527Y0055199D02*
X-0086297D01*
X-0084527Y0055109D02*
X-0086297D01*
X-0084527Y0055019D02*
X-0086297D01*
X-0084527Y0054929D02*
X-0086297D01*
X-0084527Y0054839D02*
X-0086297D01*
X-0084527Y0054749D02*
X-0086297D01*
X-0084527Y0054659D02*
X-0086297D01*
X-0084527Y0054569D02*
X-0086297D01*
X-0084527Y0054479D02*
X-0086297D01*
X-0084527Y0054389D02*
X-0086297D01*
X-0084527Y0054299D02*
X-0086297D01*
X-0084527Y0054209D02*
X-0086297D01*
X-0084527Y0054119D02*
X-0086297D01*
X-0084527Y0054029D02*
X-0086297D01*
X-0084527Y0053939D02*
X-0086297D01*
X-0084527Y0053849D02*
X-0086297D01*
X-0084527Y0053759D02*
X-0086297D01*
X-0084527Y0053669D02*
X-0086297D01*
X-0084527Y0053579D02*
X-0086297D01*
X-0084527Y0053489D02*
X-0086297D01*
X-0086257Y0071665D02*
Y0047239D01*
X-0084527Y0053309D02*
X-0086297D01*
X-0084527Y0053219D02*
X-0086297D01*
X-0084527Y0053129D02*
X-0086297D01*
X-0084527Y0053039D02*
X-0086297D01*
X-0084527Y0052949D02*
X-0086297D01*
X-0084527Y0052859D02*
X-0086297D01*
X-0084527Y0052769D02*
X-0086297D01*
X-0084527Y0052679D02*
X-0086297D01*
X-0084527Y0052589D02*
X-0086297D01*
X-0084527Y0052499D02*
X-0086297D01*
X-0084527Y0052409D02*
X-0086297D01*
X-0084527Y0052319D02*
X-0086297D01*
X-0084527Y0052229D02*
X-0086297D01*
X-0084527Y0052139D02*
X-0086297D01*
X-0084527Y0052049D02*
X-0086297D01*
X-0084527Y0051959D02*
X-0086297D01*
X-0084527Y0051869D02*
X-0086297D01*
X-0084527Y0051779D02*
X-0086297D01*
X-0084527Y0051689D02*
X-0086297D01*
X-0084527Y0051599D02*
X-0086297D01*
X-0084527Y0051509D02*
X-0086297D01*
X-0084527Y0051419D02*
X-0086297D01*
X-0084527Y0051329D02*
X-0086297D01*
X-0084527Y0051239D02*
X-0086297D01*
X-0084527Y0051149D02*
X-0086297D01*
X-0084527Y0051059D02*
X-0086297D01*
X-0084527Y0050969D02*
X-0086297D01*
X-0084527Y0050879D02*
X-0086297D01*
X-0084527Y0050789D02*
X-0086297D01*
X-0084527Y0050699D02*
X-0086297D01*
X-0084527Y0050609D02*
X-0086297D01*
X-0084527Y0050519D02*
X-0086297D01*
X-0084527Y0050429D02*
X-0086297D01*
X-0084527Y0050339D02*
X-0086297D01*
X-0084527Y0050249D02*
X-0086297D01*
X-0084527Y0050159D02*
X-0086297D01*
X-0084527Y0050069D02*
X-0086297D01*
X-0084527Y0049979D02*
X-0086297D01*
X-0084527Y0049889D02*
X-0086297D01*
X-0084527Y0049799D02*
X-0086297D01*
X-0084527Y0049709D02*
X-0086297D01*
X-0084527Y0049619D02*
X-0086297D01*
X-0084527Y0049529D02*
X-0086297D01*
X-0084527Y0049439D02*
X-0086297D01*
X-0084527Y0049349D02*
X-0086297D01*
X-0084527Y0049259D02*
X-0086297D01*
X-0084527Y0049169D02*
X-0086297D01*
X-0084527Y0049079D02*
X-0086297D01*
X-0084527Y0048989D02*
X-0086297D01*
X-0084527Y0048899D02*
X-0086297D01*
X-0084527Y0048809D02*
X-0086297D01*
X-0084527Y0048719D02*
X-0086297D01*
X-0084527Y0048629D02*
X-0086297D01*
X-0084527Y0048539D02*
X-0086297D01*
X-0084527Y0048449D02*
X-0086297D01*
X-0084527Y0048359D02*
X-0086297D01*
X-0084527Y0048269D02*
X-0086297D01*
X-0084527Y0048179D02*
X-0086297D01*
X-0084527Y0048089D02*
X-0086297D01*
X-0084527Y0047999D02*
X-0086297D01*
X-0084527Y0047909D02*
X-0086297D01*
X-0084527Y0047819D02*
X-0086297D01*
X-0084527Y0047729D02*
X-0086297D01*
X-0084527Y0047639D02*
X-0086297D01*
X-0084527Y0047549D02*
X-0086297D01*
X-0084527Y0047459D02*
X-0086297D01*
X-0084527Y0047369D02*
X-0086297D01*
X-0084527Y0047279D02*
X-0086297D01*
Y0047239D01*
X-0084527D02*
X-0086297D01*
X-0084527Y0071665D02*
Y0047239D01*
Y0071665D02*
X-0086297D01*
Y0047279D01*
X-0084527Y0059519D02*
X-0086297D01*
X-0084547Y0071665D02*
Y0047239D01*
X-0084637Y0071665D02*
Y0047239D01*
X-0084727Y0071665D02*
Y0047239D01*
X-0084817Y0071665D02*
Y0047239D01*
X-0084907Y0071665D02*
Y0047239D01*
X-0084997Y0071665D02*
Y0047239D01*
X-0085087Y0071665D02*
Y0047239D01*
X-0085177Y0071665D02*
Y0047239D01*
X-0085267Y0071665D02*
Y0047239D01*
X-0084527Y0053399D02*
X-0086297D01*
X-0085447Y0071665D02*
Y0047239D01*
X-0085537Y0071665D02*
Y0047239D01*
X-0085627Y0071665D02*
Y0047239D01*
X-0085717Y0071665D02*
Y0047239D01*
X-0085807Y0071665D02*
Y0047239D01*
X-0085897Y0071665D02*
Y0047239D01*
X-0085987Y0071665D02*
Y0047239D01*
X-0086077Y0071665D02*
Y0047239D01*
X-0086167Y0071665D02*
Y0047239D01*
X-0084527Y0071579D02*
X-0086297D01*
X-0084527Y0071489D02*
X-0086297D01*
X-0084527Y0071399D02*
X-0086297D01*
X-0084527Y0071309D02*
X-0086297D01*
X-0084527Y0071219D02*
X-0086297D01*
X-0084527Y0071129D02*
X-0086297D01*
X-0084527Y0071039D02*
X-0086297D01*
X-0084527Y0070949D02*
X-0086297D01*
X-0084527Y0070859D02*
X-0086297D01*
X-0084527Y0070769D02*
X-0086297D01*
X-0084527Y0070679D02*
X-0086297D01*
X-0084527Y0070589D02*
X-0086297D01*
X-0084527Y0070499D02*
X-0086297D01*
X-0084527Y0070409D02*
X-0086297D01*
X-0084527Y0070319D02*
X-0086297D01*
X-0084527Y0070229D02*
X-0086297D01*
X-0084527Y0070139D02*
X-0086297D01*
X-0084527Y0070049D02*
X-0086297D01*
X-0084527Y0069959D02*
X-0086297D01*
X-0084527Y0069869D02*
X-0086297D01*
X-0049599Y0072020D02*
X-0083347D01*
Y0074537D02*
Y0071980D01*
X-0049599Y0074537D02*
X-0083347D01*
X-0049599D02*
Y0071980D01*
X-0083347D01*
X-0049599Y0073370D02*
X-0083347D01*
X-0049647Y0074537D02*
Y0071980D01*
X-0049737Y0074537D02*
Y0071980D01*
X-0049827Y0074537D02*
Y0071980D01*
X-0049917Y0074537D02*
Y0071980D01*
X-0050007Y0074537D02*
Y0071980D01*
X-0050097Y0074537D02*
Y0071980D01*
X-0050187Y0074537D02*
Y0071980D01*
X-0050277Y0074537D02*
Y0071980D01*
X-0050367Y0074537D02*
Y0071980D01*
X-0050457Y0074537D02*
Y0071980D01*
X-0050547Y0074537D02*
Y0071980D01*
X-0050637Y0074537D02*
Y0071980D01*
X-0050727Y0074537D02*
Y0071980D01*
X-0050817Y0074537D02*
Y0071980D01*
X-0050907Y0074537D02*
Y0071980D01*
X-0050997Y0074537D02*
Y0071980D01*
X-0051087Y0074537D02*
Y0071980D01*
X-0051177Y0074537D02*
Y0071980D01*
X-0051267Y0074537D02*
Y0071980D01*
X-0051357Y0074537D02*
Y0071980D01*
X-0051447Y0074537D02*
Y0071980D01*
X-0051537Y0074537D02*
Y0071980D01*
X-0051627Y0074537D02*
Y0071980D01*
X-0051717Y0074537D02*
Y0071980D01*
X-0051807Y0074537D02*
Y0071980D01*
X-0051897Y0074537D02*
Y0071980D01*
X-0051987Y0074537D02*
Y0071980D01*
X-0052077Y0074537D02*
Y0071980D01*
X-0052167Y0074537D02*
Y0071980D01*
X-0052257Y0074537D02*
Y0071980D01*
X-0052347Y0074537D02*
Y0071980D01*
X-0052437Y0074537D02*
Y0071980D01*
X-0052527Y0074537D02*
Y0071980D01*
X-0052617Y0074537D02*
Y0071980D01*
X-0052707Y0074537D02*
Y0071980D01*
X-0052797Y0074537D02*
Y0071980D01*
X-0052887Y0074537D02*
Y0071980D01*
X-0052977Y0074537D02*
Y0071980D01*
X-0053067Y0074537D02*
Y0071980D01*
X-0053157Y0074537D02*
Y0071980D01*
X-0053247Y0074537D02*
Y0071980D01*
X-0053337Y0074537D02*
Y0071980D01*
X-0053427Y0074537D02*
Y0071980D01*
X-0053517Y0074537D02*
Y0071980D01*
X-0053607Y0074537D02*
Y0071980D01*
X-0053697Y0074537D02*
Y0071980D01*
X-0053787Y0074537D02*
Y0071980D01*
X-0053877Y0074537D02*
Y0071980D01*
X-0053967Y0074537D02*
Y0071980D01*
X-0054057Y0074537D02*
Y0071980D01*
X-0054147Y0074537D02*
Y0071980D01*
X-0054237Y0074537D02*
Y0071980D01*
X-0054327Y0074537D02*
Y0071980D01*
X-0054417Y0074537D02*
Y0071980D01*
X-0054507Y0074537D02*
Y0071980D01*
X-0054597Y0074537D02*
Y0071980D01*
X-0054687Y0074537D02*
Y0071980D01*
X-0054777Y0074537D02*
Y0071980D01*
X-0054867Y0074537D02*
Y0071980D01*
X-0054957Y0074537D02*
Y0071980D01*
X-0055047Y0074537D02*
Y0071980D01*
X-0055137Y0074537D02*
Y0071980D01*
X-0055227Y0074537D02*
Y0071980D01*
X-0055317Y0074537D02*
Y0071980D01*
X-0055407Y0074537D02*
Y0071980D01*
X-0055497Y0074537D02*
Y0071980D01*
X-0055587Y0074537D02*
Y0071980D01*
X-0055677Y0074537D02*
Y0071980D01*
X-0055767Y0074537D02*
Y0071980D01*
X-0055857Y0074537D02*
Y0071980D01*
X-0055947Y0074537D02*
Y0071980D01*
X-0056037Y0074537D02*
Y0071980D01*
X-0056127Y0074537D02*
Y0071980D01*
X-0056217Y0074537D02*
Y0071980D01*
X-0056307Y0074537D02*
Y0071980D01*
X-0056397Y0074537D02*
Y0071980D01*
X-0056487Y0074537D02*
Y0071980D01*
X-0056577Y0074537D02*
Y0071980D01*
X-0056667Y0074537D02*
Y0071980D01*
X-0056757Y0074537D02*
Y0071980D01*
X-0056847Y0074537D02*
Y0071980D01*
X-0056937Y0074537D02*
Y0071980D01*
X-0057027Y0074537D02*
Y0071980D01*
X-0057117Y0074537D02*
Y0071980D01*
X-0057207Y0074537D02*
Y0071980D01*
X-0057297Y0074537D02*
Y0071980D01*
X-0057387Y0074537D02*
Y0071980D01*
X-0057477Y0074537D02*
Y0071980D01*
X-0057567Y0074537D02*
Y0071980D01*
X-0057657Y0074537D02*
Y0071980D01*
X-0057747Y0074537D02*
Y0071980D01*
X-0057837Y0074537D02*
Y0071980D01*
X-0057927Y0074537D02*
Y0071980D01*
X-0058017Y0074537D02*
Y0071980D01*
X-0058107Y0074537D02*
Y0071980D01*
X-0058197Y0074537D02*
Y0071980D01*
X-0058287Y0074537D02*
Y0071980D01*
X-0058377Y0074537D02*
Y0071980D01*
X-0058467Y0074537D02*
Y0071980D01*
X-0058557Y0074537D02*
Y0071980D01*
X-0058647Y0074537D02*
Y0071980D01*
X-0058737Y0074537D02*
Y0071980D01*
X-0058827Y0074537D02*
Y0071980D01*
X-0058917Y0074537D02*
Y0071980D01*
X-0059007Y0074537D02*
Y0071980D01*
X-0059097Y0074537D02*
Y0071980D01*
X-0059187Y0074537D02*
Y0071980D01*
X-0059277Y0074537D02*
Y0071980D01*
X-0059367Y0074537D02*
Y0071980D01*
X-0059457Y0074537D02*
Y0071980D01*
X-0059547Y0074537D02*
Y0071980D01*
X-0059637Y0074537D02*
Y0071980D01*
X-0059727Y0074537D02*
Y0071980D01*
X-0059817Y0074537D02*
Y0071980D01*
X-0059907Y0074537D02*
Y0071980D01*
X-0059997Y0074537D02*
Y0071980D01*
X-0060087Y0074537D02*
Y0071980D01*
X-0060177Y0074537D02*
Y0071980D01*
X-0060267Y0074537D02*
Y0071980D01*
X-0060357Y0074537D02*
Y0071980D01*
X-0060447Y0074537D02*
Y0071980D01*
X-0060537Y0074537D02*
Y0071980D01*
X-0060627Y0074537D02*
Y0071980D01*
X-0060717Y0074537D02*
Y0071980D01*
X-0060807Y0074537D02*
Y0071980D01*
X-0060897Y0074537D02*
Y0071980D01*
X-0060987Y0074537D02*
Y0071980D01*
X-0061077Y0074537D02*
Y0071980D01*
X-0061167Y0074537D02*
Y0071980D01*
X-0061257Y0074537D02*
Y0071980D01*
X-0061347Y0074537D02*
Y0071980D01*
X-0061437Y0074537D02*
Y0071980D01*
X-0061527Y0074537D02*
Y0071980D01*
X-0061617Y0074537D02*
Y0071980D01*
X-0061707Y0074537D02*
Y0071980D01*
X-0061797Y0074537D02*
Y0071980D01*
X-0061887Y0074537D02*
Y0071980D01*
X-0061977Y0074537D02*
Y0071980D01*
X-0062067Y0074537D02*
Y0071980D01*
X-0062157Y0074537D02*
Y0071980D01*
X-0062247Y0074537D02*
Y0071980D01*
X-0062337Y0074537D02*
Y0071980D01*
X-0062427Y0074537D02*
Y0071980D01*
X-0062517Y0074537D02*
Y0071980D01*
X-0062607Y0074537D02*
Y0071980D01*
X-0062697Y0074537D02*
Y0071980D01*
X-0062787Y0074537D02*
Y0071980D01*
X-0062877Y0074537D02*
Y0071980D01*
X-0062967Y0074537D02*
Y0071980D01*
X-0063057Y0074537D02*
Y0071980D01*
X-0063147Y0074537D02*
Y0071980D01*
X-0063237Y0074537D02*
Y0071980D01*
X-0063327Y0074537D02*
Y0071980D01*
X-0063417Y0074537D02*
Y0071980D01*
X-0063507Y0074537D02*
Y0071980D01*
X-0063597Y0074537D02*
Y0071980D01*
X-0063687Y0074537D02*
Y0071980D01*
X-0063777Y0074537D02*
Y0071980D01*
X-0063867Y0074537D02*
Y0071980D01*
X-0063957Y0074537D02*
Y0071980D01*
X-0064047Y0074537D02*
Y0071980D01*
X-0064137Y0074537D02*
Y0071980D01*
X-0064227Y0074537D02*
Y0071980D01*
X-0064317Y0074537D02*
Y0071980D01*
X-0064407Y0074537D02*
Y0071980D01*
X-0064497Y0074537D02*
Y0071980D01*
X-0064587Y0074537D02*
Y0071980D01*
X-0064677Y0074537D02*
Y0071980D01*
X-0064767Y0074537D02*
Y0071980D01*
X-0064857Y0074537D02*
Y0071980D01*
X-0064947Y0074537D02*
Y0071980D01*
X-0065037Y0074537D02*
Y0071980D01*
X-0065127Y0074537D02*
Y0071980D01*
X-0065217Y0074537D02*
Y0071980D01*
X-0065307Y0074537D02*
Y0071980D01*
X-0065397Y0074537D02*
Y0071980D01*
X-0065487Y0074537D02*
Y0071980D01*
X-0065577Y0074537D02*
Y0071980D01*
X-0065667Y0074537D02*
Y0071980D01*
X-0065757Y0074537D02*
Y0071980D01*
X-0065847Y0074537D02*
Y0071980D01*
X-0065937Y0074537D02*
Y0071980D01*
X-0066027Y0074537D02*
Y0071980D01*
X-0066117Y0074537D02*
Y0071980D01*
X-0066207Y0074537D02*
Y0071980D01*
X-0066297Y0074537D02*
Y0071980D01*
X-0049599Y0072650D02*
X-0083347D01*
X-0066477Y0074537D02*
Y0071980D01*
X-0066567Y0074537D02*
Y0071980D01*
X-0066657Y0074537D02*
Y0071980D01*
X-0066747Y0074537D02*
Y0071980D01*
X-0066837Y0074537D02*
Y0071980D01*
X-0066927Y0074537D02*
Y0071980D01*
X-0067017Y0074537D02*
Y0071980D01*
X-0067107Y0074537D02*
Y0071980D01*
X-0067197Y0074537D02*
Y0071980D01*
X-0067287Y0074537D02*
Y0071980D01*
X-0067377Y0074537D02*
Y0071980D01*
X-0067467Y0074537D02*
Y0071980D01*
X-0067557Y0074537D02*
Y0071980D01*
X-0067647Y0074537D02*
Y0071980D01*
X-0067737Y0074537D02*
Y0071980D01*
X-0067827Y0074537D02*
Y0071980D01*
X-0067917Y0074537D02*
Y0071980D01*
X-0068007Y0074537D02*
Y0071980D01*
X-0068097Y0074537D02*
Y0071980D01*
X-0068187Y0074537D02*
Y0071980D01*
X-0068277Y0074537D02*
Y0071980D01*
X-0068367Y0074537D02*
Y0071980D01*
X-0068457Y0074537D02*
Y0071980D01*
X-0068547Y0074537D02*
Y0071980D01*
X-0068637Y0074537D02*
Y0071980D01*
X-0068727Y0074537D02*
Y0071980D01*
X-0068817Y0074537D02*
Y0071980D01*
X-0068907Y0074537D02*
Y0071980D01*
X-0068997Y0074537D02*
Y0071980D01*
X-0069087Y0074537D02*
Y0071980D01*
X-0069177Y0074537D02*
Y0071980D01*
X-0069267Y0074537D02*
Y0071980D01*
X-0069357Y0074537D02*
Y0071980D01*
X-0069447Y0074537D02*
Y0071980D01*
X-0069537Y0074537D02*
Y0071980D01*
X-0069627Y0074537D02*
Y0071980D01*
X-0069717Y0074537D02*
Y0071980D01*
X-0069807Y0074537D02*
Y0071980D01*
X-0069897Y0074537D02*
Y0071980D01*
X-0069987Y0074537D02*
Y0071980D01*
X-0070077Y0074537D02*
Y0071980D01*
X-0070167Y0074537D02*
Y0071980D01*
X-0070257Y0074537D02*
Y0071980D01*
X-0070347Y0074537D02*
Y0071980D01*
X-0070437Y0074537D02*
Y0071980D01*
X-0070527Y0074537D02*
Y0071980D01*
X-0070617Y0074537D02*
Y0071980D01*
X-0070707Y0074537D02*
Y0071980D01*
X-0070797Y0074537D02*
Y0071980D01*
X-0070887Y0074537D02*
Y0071980D01*
X-0070977Y0074537D02*
Y0071980D01*
X-0071067Y0074537D02*
Y0071980D01*
X-0071157Y0074537D02*
Y0071980D01*
X-0071247Y0074537D02*
Y0071980D01*
X-0071337Y0074537D02*
Y0071980D01*
X-0071427Y0074537D02*
Y0071980D01*
X-0071517Y0074537D02*
Y0071980D01*
X-0071607Y0074537D02*
Y0071980D01*
X-0071697Y0074537D02*
Y0071980D01*
X-0071787Y0074537D02*
Y0071980D01*
X-0071877Y0074537D02*
Y0071980D01*
X-0071967Y0074537D02*
Y0071980D01*
X-0072057Y0074537D02*
Y0071980D01*
X-0072147Y0074537D02*
Y0071980D01*
X-0072237Y0074537D02*
Y0071980D01*
X-0072327Y0074537D02*
Y0071980D01*
X-0072417Y0074537D02*
Y0071980D01*
X-0072507Y0074537D02*
Y0071980D01*
X-0072597Y0074537D02*
Y0071980D01*
X-0072687Y0074537D02*
Y0071980D01*
X-0072777Y0074537D02*
Y0071980D01*
X-0072867Y0074537D02*
Y0071980D01*
X-0072957Y0074537D02*
Y0071980D01*
X-0073047Y0074537D02*
Y0071980D01*
X-0073137Y0074537D02*
Y0071980D01*
X-0073227Y0074537D02*
Y0071980D01*
X-0073317Y0074537D02*
Y0071980D01*
X-0073407Y0074537D02*
Y0071980D01*
X-0073497Y0074537D02*
Y0071980D01*
X-0073587Y0074537D02*
Y0071980D01*
X-0073677Y0074537D02*
Y0071980D01*
X-0073767Y0074537D02*
Y0071980D01*
X-0073857Y0074537D02*
Y0071980D01*
X-0073947Y0074537D02*
Y0071980D01*
X-0074037Y0074537D02*
Y0071980D01*
X-0074127Y0074537D02*
Y0071980D01*
X-0074217Y0074537D02*
Y0071980D01*
X-0074307Y0074537D02*
Y0071980D01*
X-0074397Y0074537D02*
Y0071980D01*
X-0074487Y0074537D02*
Y0071980D01*
X-0074577Y0074537D02*
Y0071980D01*
X-0074667Y0074537D02*
Y0071980D01*
X-0074757Y0074537D02*
Y0071980D01*
X-0049599Y0072380D02*
X-0083347D01*
X-0074937Y0074537D02*
Y0071980D01*
X-0075027Y0074537D02*
Y0071980D01*
X-0075117Y0074537D02*
Y0071980D01*
X-0075207Y0074537D02*
Y0071980D01*
X-0075297Y0074537D02*
Y0071980D01*
X-0075387Y0074537D02*
Y0071980D01*
X-0075477Y0074537D02*
Y0071980D01*
X-0075567Y0074537D02*
Y0071980D01*
X-0075657Y0074537D02*
Y0071980D01*
X-0075747Y0074537D02*
Y0071980D01*
X-0075837Y0074537D02*
Y0071980D01*
X-0075927Y0074537D02*
Y0071980D01*
X-0076017Y0074537D02*
Y0071980D01*
X-0076107Y0074537D02*
Y0071980D01*
X-0076197Y0074537D02*
Y0071980D01*
X-0076287Y0074537D02*
Y0071980D01*
X-0076377Y0074537D02*
Y0071980D01*
X-0076467Y0074537D02*
Y0071980D01*
X-0076557Y0074537D02*
Y0071980D01*
X-0076647Y0074537D02*
Y0071980D01*
X-0076737Y0074537D02*
Y0071980D01*
X-0076827Y0074537D02*
Y0071980D01*
X-0076917Y0074537D02*
Y0071980D01*
X-0077007Y0074537D02*
Y0071980D01*
X-0077097Y0074537D02*
Y0071980D01*
X-0077187Y0074537D02*
Y0071980D01*
X-0077277Y0074537D02*
Y0071980D01*
X-0077367Y0074537D02*
Y0071980D01*
X-0077457Y0074537D02*
Y0071980D01*
X-0077547Y0074537D02*
Y0071980D01*
X-0077637Y0074537D02*
Y0071980D01*
X-0077727Y0074537D02*
Y0071980D01*
X-0077817Y0074537D02*
Y0071980D01*
X-0077907Y0074537D02*
Y0071980D01*
X-0077997Y0074537D02*
Y0071980D01*
X-0078087Y0074537D02*
Y0071980D01*
X-0078177Y0074537D02*
Y0071980D01*
X-0078267Y0074537D02*
Y0071980D01*
X-0078357Y0074537D02*
Y0071980D01*
X-0078447Y0074537D02*
Y0071980D01*
X-0078537Y0074537D02*
Y0071980D01*
X-0078627Y0074537D02*
Y0071980D01*
X-0078717Y0074537D02*
Y0071980D01*
X-0078807Y0074537D02*
Y0071980D01*
X-0078897Y0074537D02*
Y0071980D01*
X-0078987Y0074537D02*
Y0071980D01*
X-0079077Y0074537D02*
Y0071980D01*
X-0079167Y0074537D02*
Y0071980D01*
X-0079257Y0074537D02*
Y0071980D01*
X-0079347Y0074537D02*
Y0071980D01*
X-0079437Y0074537D02*
Y0071980D01*
X-0079527Y0074537D02*
Y0071980D01*
X-0079617Y0074537D02*
Y0071980D01*
X-0079707Y0074537D02*
Y0071980D01*
X-0079797Y0074537D02*
Y0071980D01*
X-0079887Y0074537D02*
Y0071980D01*
X-0079977Y0074537D02*
Y0071980D01*
X-0080067Y0074537D02*
Y0071980D01*
X-0080157Y0074537D02*
Y0071980D01*
X-0080247Y0074537D02*
Y0071980D01*
X-0080337Y0074537D02*
Y0071980D01*
X-0080427Y0074537D02*
Y0071980D01*
X-0080517Y0074537D02*
Y0071980D01*
X-0080607Y0074537D02*
Y0071980D01*
X-0080697Y0074537D02*
Y0071980D01*
X-0080787Y0074537D02*
Y0071980D01*
X-0080877Y0074537D02*
Y0071980D01*
X-0080967Y0074537D02*
Y0071980D01*
X-0081057Y0074537D02*
Y0071980D01*
X-0081147Y0074537D02*
Y0071980D01*
X-0081237Y0074537D02*
Y0071980D01*
X-0081327Y0074537D02*
Y0071980D01*
X-0081417Y0074537D02*
Y0071980D01*
X-0081507Y0074537D02*
Y0071980D01*
X-0081597Y0074537D02*
Y0071980D01*
X-0081687Y0074537D02*
Y0071980D01*
X-0081777Y0074537D02*
Y0071980D01*
X-0081867Y0074537D02*
Y0071980D01*
X-0081957Y0074537D02*
Y0071980D01*
X-0082047Y0074537D02*
Y0071980D01*
X-0082137Y0074537D02*
Y0071980D01*
X-0082227Y0074537D02*
Y0071980D01*
X-0082317Y0074537D02*
Y0071980D01*
X-0082407Y0074537D02*
Y0071980D01*
X-0082497Y0074537D02*
Y0071980D01*
X-0082587Y0074537D02*
Y0071980D01*
X-0082677Y0074537D02*
Y0071980D01*
X-0082767Y0074537D02*
Y0071980D01*
X-0082857Y0074537D02*
Y0071980D01*
X-0082947Y0074537D02*
Y0071980D01*
X-0083037Y0074537D02*
Y0071980D01*
X-0083127Y0074537D02*
Y0071980D01*
X-0083217Y0074537D02*
Y0071980D01*
X-0049599Y0074450D02*
X-0083347D01*
X-0049599Y0074360D02*
X-0083347D01*
X-0049599Y0074270D02*
X-0083347D01*
X-0049599Y0074180D02*
X-0083347D01*
X-0049599Y0074090D02*
X-0083347D01*
X-0049599Y0074000D02*
X-0083347D01*
X-0049599Y0073910D02*
X-0083347D01*
X-0049599Y0073820D02*
X-0083347D01*
X-0049599Y0073730D02*
X-0083347D01*
X-0049599Y0073640D02*
X-0083347D01*
X-0049599Y0073550D02*
X-0083347D01*
X-0049599Y0073460D02*
X-0083347D01*
X-0066387Y0074537D02*
Y0071980D01*
X-0049599Y0073280D02*
X-0083347D01*
X-0049599Y0073190D02*
X-0083347D01*
X-0049599Y0073100D02*
X-0083347D01*
X-0049599Y0073010D02*
X-0083347D01*
X-0049599Y0072920D02*
X-0083347D01*
X-0049599Y0072830D02*
X-0083347D01*
X-0049599Y0072740D02*
X-0083347D01*
X-0074847Y0074537D02*
Y0071980D01*
X-0049599Y0072560D02*
X-0083347D01*
X-0049599Y0072470D02*
X-0083347D01*
X-0083307Y0074537D02*
Y0071980D01*
X-0049599Y0072290D02*
X-0083347D01*
X-0049599Y0072200D02*
X-0083347D01*
X-0049599Y0072110D02*
X-0083347D01*
X-0083064Y0067530D02*
X-0084638D01*
X-0083064Y0067440D02*
X-0084638D01*
X-0083064Y0067350D02*
X-0084638D01*
X-0083064Y0067260D02*
X-0084638D01*
X-0083064Y0067170D02*
X-0084638D01*
X-0083064Y0067080D02*
X-0084638D01*
X-0083064Y0066990D02*
X-0084638D01*
X-0083064Y0066900D02*
X-0084638D01*
X-0083064Y0066810D02*
X-0084638D01*
X-0083064Y0066720D02*
X-0084638D01*
X-0083064Y0066630D02*
X-0084638D01*
X-0083064Y0066540D02*
X-0084638D01*
X-0083064Y0066450D02*
X-0084638D01*
X-0083064Y0066360D02*
X-0084638D01*
X-0083064Y0066270D02*
X-0084638D01*
X-0083064Y0066180D02*
X-0084638D01*
X-0083064Y0066090D02*
X-0084638D01*
X-0083064Y0066000D02*
X-0084638D01*
X-0083064Y0065910D02*
X-0084638D01*
X-0083064Y0065820D02*
X-0084638D01*
X-0083064Y0065730D02*
X-0084638D01*
X-0083064Y0065640D02*
X-0084638D01*
X-0083064Y0065550D02*
X-0084638D01*
X-0083064Y0065460D02*
X-0084638D01*
X-0083064Y0065370D02*
X-0084638D01*
X-0083064Y0065280D02*
X-0084638D01*
X-0083064Y0065190D02*
X-0084638D01*
X-0083064Y0065100D02*
X-0084638D01*
X-0083064Y0065010D02*
X-0084638D01*
X-0083064Y0064920D02*
X-0084638D01*
X-0083064Y0064830D02*
X-0084638D01*
X-0083064Y0064740D02*
X-0084638D01*
X-0083064Y0064650D02*
X-0084638D01*
X-0083064Y0064560D02*
X-0084638D01*
X-0083064Y0064470D02*
X-0084638D01*
X-0083064Y0064380D02*
X-0084638D01*
X-0083064Y0064290D02*
X-0084638D01*
X-0083064Y0064200D02*
X-0084638D01*
X-0083064Y0064110D02*
X-0084638D01*
X-0083064Y0064020D02*
X-0084638D01*
X-0083064Y0063930D02*
X-0084638D01*
X-0083064Y0063840D02*
X-0084638D01*
X-0083064Y0063750D02*
X-0084638D01*
X-0083064Y0063660D02*
X-0084638D01*
X-0083064Y0063570D02*
X-0084638D01*
X-0083064Y0063480D02*
X-0084638D01*
X-0083064Y0063390D02*
X-0084638D01*
X-0083064Y0063300D02*
X-0084638D01*
X-0083064Y0063210D02*
X-0084638D01*
X-0083064Y0063120D02*
X-0084638D01*
X-0083064Y0063030D02*
X-0084638D01*
X-0083064Y0062940D02*
X-0084638D01*
X-0083064Y0062850D02*
X-0084638D01*
X-0083064Y0062760D02*
X-0084638D01*
X-0083064Y0062670D02*
X-0084638D01*
X-0083064Y0062580D02*
X-0084638D01*
X-0083064Y0062490D02*
X-0084638D01*
X-0083064Y0062400D02*
X-0084638D01*
X-0083064Y0062310D02*
X-0084638D01*
X-0083064Y0062220D02*
X-0084638D01*
X-0083064Y0062130D02*
X-0084638D01*
X-0083064Y0062040D02*
X-0084638D01*
X-0083064Y0061950D02*
X-0084638D01*
X-0083064Y0061860D02*
X-0084638D01*
X-0083064Y0061770D02*
X-0084638D01*
X-0083064Y0061680D02*
X-0084638D01*
X-0083064Y0061590D02*
X-0084638D01*
X-0083064Y0061500D02*
X-0084638D01*
X-0083064Y0061410D02*
X-0084638D01*
X-0083064Y0061320D02*
X-0084638D01*
X-0083064Y0061230D02*
X-0084638D01*
X-0083064Y0061140D02*
X-0084638D01*
X-0083064Y0061050D02*
X-0084638D01*
X-0083064Y0060960D02*
X-0084638D01*
X-0083064Y0060870D02*
X-0084638D01*
X-0083064Y0060780D02*
X-0084638D01*
X-0083064Y0060690D02*
X-0084638D01*
X-0083064Y0060600D02*
X-0084638D01*
X-0083064Y0060510D02*
X-0084638D01*
X-0083064Y0060420D02*
X-0084638D01*
X-0083064Y0060330D02*
X-0084638D01*
X-0083064Y0060240D02*
X-0084638D01*
X-0083064Y0060150D02*
X-0084638D01*
X-0083064Y0060060D02*
X-0084638D01*
X-0083064Y0059970D02*
X-0084638D01*
X-0083064Y0059880D02*
X-0084638D01*
X-0083064Y0059790D02*
X-0084638D01*
X-0083064Y0059700D02*
X-0084638D01*
X-0083064Y0059610D02*
X-0084638D01*
X-0083788Y0071647D02*
Y0047240D01*
X-0083064Y0059430D02*
X-0084638D01*
X-0083064Y0059340D02*
X-0084638D01*
X-0083064Y0059250D02*
X-0084638D01*
X-0083064Y0059160D02*
X-0084638D01*
X-0083064Y0059070D02*
X-0084638D01*
X-0083064Y0058980D02*
X-0084638D01*
X-0083064Y0058890D02*
X-0084638D01*
X-0083064Y0058800D02*
X-0084638D01*
X-0083064Y0058710D02*
X-0084638D01*
X-0083064Y0058620D02*
X-0084638D01*
X-0083064Y0058530D02*
X-0084638D01*
X-0083064Y0058440D02*
X-0084638D01*
X-0083064Y0058350D02*
X-0084638D01*
X-0083064Y0058260D02*
X-0084638D01*
X-0083064Y0058170D02*
X-0084638D01*
X-0083064Y0058080D02*
X-0084638D01*
X-0083064Y0057990D02*
X-0084638D01*
X-0083064Y0057900D02*
X-0084638D01*
X-0083064Y0057810D02*
X-0084638D01*
X-0083064Y0057720D02*
X-0084638D01*
X-0083064Y0057630D02*
X-0084638D01*
X-0083064Y0057540D02*
X-0084638D01*
X-0083064Y0057450D02*
X-0084638D01*
X-0083064Y0057360D02*
X-0084638D01*
X-0083064Y0057270D02*
X-0084638D01*
X-0083064Y0057180D02*
X-0084638D01*
X-0083064Y0057090D02*
X-0084638D01*
X-0083064Y0057000D02*
X-0084638D01*
X-0083064Y0056910D02*
X-0084638D01*
X-0083064Y0056820D02*
X-0084638D01*
X-0083064Y0056730D02*
X-0084638D01*
X-0083064Y0056640D02*
X-0084638D01*
X-0083064Y0056550D02*
X-0084638D01*
X-0083064Y0056460D02*
X-0084638D01*
X-0083064Y0056370D02*
X-0084638D01*
X-0083064Y0056280D02*
X-0084638D01*
X-0083064Y0056190D02*
X-0084638D01*
X-0083064Y0056100D02*
X-0084638D01*
X-0083064Y0056010D02*
X-0084638D01*
X-0083064Y0055920D02*
X-0084638D01*
X-0083064Y0055830D02*
X-0084638D01*
X-0083064Y0055740D02*
X-0084638D01*
X-0083064Y0055650D02*
X-0084638D01*
X-0083064Y0055560D02*
X-0084638D01*
X-0083064Y0055470D02*
X-0084638D01*
X-0083064Y0055380D02*
X-0084638D01*
X-0083064Y0055290D02*
X-0084638D01*
X-0083064Y0055200D02*
X-0084638D01*
X-0083064Y0055110D02*
X-0084638D01*
X-0083064Y0055020D02*
X-0084638D01*
X-0083064Y0054930D02*
X-0084638D01*
X-0083064Y0054840D02*
X-0084638D01*
X-0083064Y0054750D02*
X-0084638D01*
X-0083064Y0054660D02*
X-0084638D01*
X-0083064Y0054570D02*
X-0084638D01*
X-0083064Y0054480D02*
X-0084638D01*
X-0083064Y0054390D02*
X-0084638D01*
X-0083064Y0054300D02*
X-0084638D01*
X-0083064Y0054210D02*
X-0084638D01*
X-0083064Y0054120D02*
X-0084638D01*
X-0083064Y0054030D02*
X-0084638D01*
X-0083064Y0053940D02*
X-0084638D01*
X-0083064Y0053850D02*
X-0084638D01*
X-0083064Y0053760D02*
X-0084638D01*
X-0083064Y0053670D02*
X-0084638D01*
X-0083064Y0053580D02*
X-0084638D01*
X-0083064Y0053490D02*
X-0084638D01*
X-0084598Y0071647D02*
Y0047240D01*
X-0083064Y0053310D02*
X-0084638D01*
X-0083064Y0053220D02*
X-0084638D01*
X-0083064Y0053130D02*
X-0084638D01*
X-0083064Y0053040D02*
X-0084638D01*
X-0083064Y0052950D02*
X-0084638D01*
X-0083064Y0052860D02*
X-0084638D01*
X-0083064Y0052770D02*
X-0084638D01*
X-0083064Y0052680D02*
X-0084638D01*
X-0083064Y0052590D02*
X-0084638D01*
X-0083064Y0052500D02*
X-0084638D01*
X-0083064Y0052410D02*
X-0084638D01*
X-0083064Y0052320D02*
X-0084638D01*
X-0083064Y0052230D02*
X-0084638D01*
X-0083064Y0052140D02*
X-0084638D01*
X-0083064Y0052050D02*
X-0084638D01*
X-0083064Y0051960D02*
X-0084638D01*
X-0083064Y0051870D02*
X-0084638D01*
X-0083064Y0051780D02*
X-0084638D01*
X-0083064Y0051690D02*
X-0084638D01*
X-0083064Y0051600D02*
X-0084638D01*
X-0083064Y0051510D02*
X-0084638D01*
X-0083064Y0051420D02*
X-0084638D01*
X-0083064Y0051330D02*
X-0084638D01*
X-0083064Y0051240D02*
X-0084638D01*
X-0083064Y0051150D02*
X-0084638D01*
X-0083064Y0051060D02*
X-0084638D01*
X-0083064Y0050970D02*
X-0084638D01*
X-0083064Y0050880D02*
X-0084638D01*
X-0083064Y0050790D02*
X-0084638D01*
X-0083064Y0050700D02*
X-0084638D01*
X-0083064Y0050610D02*
X-0084638D01*
X-0083064Y0050520D02*
X-0084638D01*
X-0083064Y0050430D02*
X-0084638D01*
X-0083064Y0050340D02*
X-0084638D01*
X-0083064Y0050250D02*
X-0084638D01*
X-0083064Y0050160D02*
X-0084638D01*
X-0083064Y0050070D02*
X-0084638D01*
X-0083064Y0049980D02*
X-0084638D01*
X-0083064Y0049890D02*
X-0084638D01*
X-0083064Y0049800D02*
X-0084638D01*
X-0083064Y0049710D02*
X-0084638D01*
X-0083064Y0049620D02*
X-0084638D01*
X-0083064Y0049530D02*
X-0084638D01*
X-0083064Y0049440D02*
X-0084638D01*
X-0083064Y0049350D02*
X-0084638D01*
X-0083064Y0049260D02*
X-0084638D01*
X-0083064Y0049170D02*
X-0084638D01*
X-0083064Y0049080D02*
X-0084638D01*
X-0083064Y0048990D02*
X-0084638D01*
X-0083064Y0048900D02*
X-0084638D01*
X-0083064Y0048810D02*
X-0084638D01*
X-0083064Y0048720D02*
X-0084638D01*
X-0083064Y0048630D02*
X-0084638D01*
X-0083064Y0048540D02*
X-0084638D01*
X-0083064Y0048450D02*
X-0084638D01*
X-0083064Y0048360D02*
X-0084638D01*
X-0083064Y0048270D02*
X-0084638D01*
X-0083064Y0048180D02*
X-0084638D01*
X-0083064Y0048090D02*
X-0084638D01*
X-0083064Y0048000D02*
X-0084638D01*
X-0083064Y0047910D02*
X-0084638D01*
X-0083064Y0047820D02*
X-0084638D01*
X-0083064Y0047730D02*
X-0084638D01*
X-0083064Y0047640D02*
X-0084638D01*
X-0083064Y0047550D02*
X-0084638D01*
X-0083064Y0047460D02*
X-0084638D01*
X-0083064Y0047370D02*
X-0084638D01*
X-0083064Y0047280D02*
X-0084638D01*
X-0083064Y0047240D02*
X-0084638D01*
X-0083064Y0071647D02*
Y0047240D01*
Y0071647D02*
X-0084638D01*
Y0047240D01*
X-0083064Y0059520D02*
X-0084638D01*
X-0083158Y0071647D02*
Y0047240D01*
X-0083248Y0071647D02*
Y0047240D01*
X-0083338Y0071647D02*
Y0047240D01*
X-0083428Y0071647D02*
Y0047240D01*
X-0083518Y0071647D02*
Y0047240D01*
X-0083608Y0071647D02*
Y0047240D01*
X-0083698Y0071647D02*
Y0047240D01*
X-0083064Y0053400D02*
X-0084638D01*
X-0083878Y0071647D02*
Y0047240D01*
X-0083968Y0071647D02*
Y0047240D01*
X-0084058Y0071647D02*
Y0047240D01*
X-0084148Y0071647D02*
Y0047240D01*
X-0084238Y0071647D02*
Y0047240D01*
X-0084328Y0071647D02*
Y0047240D01*
X-0084418Y0071647D02*
Y0047240D01*
X-0084508Y0071647D02*
Y0047240D01*
X-0083064Y0071580D02*
X-0084638D01*
X-0083064Y0071490D02*
X-0084638D01*
X-0083064Y0071400D02*
X-0084638D01*
X-0083064Y0071310D02*
X-0084638D01*
X-0083064Y0071220D02*
X-0084638D01*
X-0083064Y0071130D02*
X-0084638D01*
X-0083064Y0071040D02*
X-0084638D01*
X-0083064Y0070950D02*
X-0084638D01*
X-0083064Y0070860D02*
X-0084638D01*
X-0083064Y0070770D02*
X-0084638D01*
X-0083064Y0070680D02*
X-0084638D01*
X-0083064Y0070590D02*
X-0084638D01*
X-0083064Y0070500D02*
X-0084638D01*
X-0083064Y0070410D02*
X-0084638D01*
X-0083064Y0070320D02*
X-0084638D01*
X-0083064Y0070230D02*
X-0084638D01*
X-0083064Y0070140D02*
X-0084638D01*
X-0083064Y0070050D02*
X-0084638D01*
X-0083064Y0069960D02*
X-0084638D01*
X-0083064Y0069870D02*
X-0084638D01*
X-0083064Y0069780D02*
X-0084638D01*
X-0083064Y0069690D02*
X-0084638D01*
X-0083064Y0069600D02*
X-0084638D01*
X-0083064Y0069510D02*
X-0084638D01*
X-0083064Y0069420D02*
X-0084638D01*
X-0083064Y0069330D02*
X-0084638D01*
X-0083064Y0069240D02*
X-0084638D01*
X-0083064Y0069150D02*
X-0084638D01*
X-0083064Y0069060D02*
X-0084638D01*
X-0083064Y0068970D02*
X-0084638D01*
X-0083064Y0068880D02*
X-0084638D01*
X-0083064Y0068790D02*
X-0084638D01*
X-0083064Y0068700D02*
X-0084638D01*
X-0083064Y0068610D02*
X-0084638D01*
X-0083064Y0068520D02*
X-0084638D01*
X-0083064Y0068430D02*
X-0084638D01*
X-0083064Y0068340D02*
X-0084638D01*
X-0083064Y0068250D02*
X-0084638D01*
X-0083064Y0068160D02*
X-0084638D01*
X-0083064Y0068070D02*
X-0084638D01*
X-0083064Y0067980D02*
X-0084638D01*
X-0083064Y0067890D02*
X-0084638D01*
X-0083064Y0067800D02*
X-0084638D01*
X-0083064Y0067710D02*
X-0084638D01*
X-0083064Y0067620D02*
X-0084638D01*
X-0049602Y0071294D02*
X-0083457D01*
X-0049602Y0071254D02*
X-0083457D01*
X-0049602Y0072435D02*
Y0071254D01*
X-0082403Y0074497D02*
X-0049602Y0072435D01*
X-0082403Y0074497D02*
X-0083457D01*
Y0071254D01*
X-0058650Y0073004D02*
X-0083457D01*
X-0049667Y0072439D02*
Y0071254D01*
X-0049757Y0072444D02*
Y0071254D01*
X-0049847Y0072450D02*
Y0071254D01*
X-0049937Y0072456D02*
Y0071254D01*
X-0050027Y0072461D02*
Y0071254D01*
X-0050117Y0072467D02*
Y0071254D01*
X-0050207Y0072473D02*
Y0071254D01*
X-0050297Y0072478D02*
Y0071254D01*
X-0050387Y0072484D02*
Y0071254D01*
X-0050477Y0072490D02*
Y0071254D01*
X-0050567Y0072495D02*
Y0071254D01*
X-0050657Y0072501D02*
Y0071254D01*
X-0050747Y0072507D02*
Y0071254D01*
X-0050837Y0072512D02*
Y0071254D01*
X-0050927Y0072518D02*
Y0071254D01*
X-0051017Y0072524D02*
Y0071254D01*
X-0051107Y0072529D02*
Y0071254D01*
X-0051197Y0072535D02*
Y0071254D01*
X-0051287Y0072540D02*
Y0071254D01*
X-0051377Y0072546D02*
Y0071254D01*
X-0051467Y0072552D02*
Y0071254D01*
X-0051557Y0072557D02*
Y0071254D01*
X-0051647Y0072563D02*
Y0071254D01*
X-0051737Y0072569D02*
Y0071254D01*
X-0051827Y0072574D02*
Y0071254D01*
X-0051917Y0072580D02*
Y0071254D01*
X-0052007Y0072586D02*
Y0071254D01*
X-0052097Y0072591D02*
Y0071254D01*
X-0052187Y0072597D02*
Y0071254D01*
X-0052277Y0072603D02*
Y0071254D01*
X-0052367Y0072608D02*
Y0071254D01*
X-0052457Y0072614D02*
Y0071254D01*
X-0052547Y0072620D02*
Y0071254D01*
X-0052637Y0072625D02*
Y0071254D01*
X-0052727Y0072631D02*
Y0071254D01*
X-0052817Y0072637D02*
Y0071254D01*
X-0052907Y0072642D02*
Y0071254D01*
X-0052997Y0072648D02*
Y0071254D01*
X-0053087Y0072654D02*
Y0071254D01*
X-0053177Y0072659D02*
Y0071254D01*
X-0053267Y0072665D02*
Y0071254D01*
X-0053357Y0072671D02*
Y0071254D01*
X-0053447Y0072676D02*
Y0071254D01*
X-0053537Y0072682D02*
Y0071254D01*
X-0053627Y0072688D02*
Y0071254D01*
X-0053717Y0072693D02*
Y0071254D01*
X-0053807Y0072699D02*
Y0071254D01*
X-0053897Y0072705D02*
Y0071254D01*
X-0053987Y0072710D02*
Y0071254D01*
X-0054077Y0072716D02*
Y0071254D01*
X-0054167Y0072722D02*
Y0071254D01*
X-0054257Y0072727D02*
Y0071254D01*
X-0054347Y0072733D02*
Y0071254D01*
X-0054437Y0072739D02*
Y0071254D01*
X-0054527Y0072744D02*
Y0071254D01*
X-0054617Y0072750D02*
Y0071254D01*
X-0054707Y0072756D02*
Y0071254D01*
X-0054797Y0072761D02*
Y0071254D01*
X-0054887Y0072767D02*
Y0071254D01*
X-0054977Y0072773D02*
Y0071254D01*
X-0055067Y0072778D02*
Y0071254D01*
X-0055157Y0072784D02*
Y0071254D01*
X-0055247Y0072789D02*
Y0071254D01*
X-0055337Y0072795D02*
Y0071254D01*
X-0055427Y0072801D02*
Y0071254D01*
X-0055517Y0072806D02*
Y0071254D01*
X-0055607Y0072812D02*
Y0071254D01*
X-0055697Y0072818D02*
Y0071254D01*
X-0055787Y0072823D02*
Y0071254D01*
X-0055877Y0072829D02*
Y0071254D01*
X-0055967Y0072835D02*
Y0071254D01*
X-0056057Y0072840D02*
Y0071254D01*
X-0056147Y0072846D02*
Y0071254D01*
X-0056237Y0072852D02*
Y0071254D01*
X-0056327Y0072857D02*
Y0071254D01*
X-0056417Y0072863D02*
Y0071254D01*
X-0056507Y0072869D02*
Y0071254D01*
X-0056597Y0072874D02*
Y0071254D01*
X-0056687Y0072880D02*
Y0071254D01*
X-0056777Y0072886D02*
Y0071254D01*
X-0056867Y0072891D02*
Y0071254D01*
X-0056957Y0072897D02*
Y0071254D01*
X-0057047Y0072903D02*
Y0071254D01*
X-0057137Y0072908D02*
Y0071254D01*
X-0057227Y0072914D02*
Y0071254D01*
X-0057317Y0072920D02*
Y0071254D01*
X-0057407Y0072925D02*
Y0071254D01*
X-0057497Y0072931D02*
Y0071254D01*
X-0057587Y0072937D02*
Y0071254D01*
X-0057677Y0072942D02*
Y0071254D01*
X-0057767Y0072948D02*
Y0071254D01*
X-0057857Y0072954D02*
Y0071254D01*
X-0057947Y0072959D02*
Y0071254D01*
X-0058037Y0072965D02*
Y0071254D01*
X-0058127Y0072971D02*
Y0071254D01*
X-0058217Y0072976D02*
Y0071254D01*
X-0058307Y0072982D02*
Y0071254D01*
X-0058397Y0072988D02*
Y0071254D01*
X-0058487Y0072993D02*
Y0071254D01*
X-0058577Y0072999D02*
Y0071254D01*
X-0058667Y0073005D02*
Y0071254D01*
X-0058757Y0073010D02*
Y0071254D01*
X-0058847Y0073016D02*
Y0071254D01*
X-0058937Y0073022D02*
Y0071254D01*
X-0059027Y0073027D02*
Y0071254D01*
X-0059117Y0073033D02*
Y0071254D01*
X-0059207Y0073039D02*
Y0071254D01*
X-0059297Y0073044D02*
Y0071254D01*
X-0059387Y0073050D02*
Y0071254D01*
X-0059477Y0073055D02*
Y0071254D01*
X-0059567Y0073061D02*
Y0071254D01*
X-0059657Y0073067D02*
Y0071254D01*
X-0059747Y0073072D02*
Y0071254D01*
X-0059837Y0073078D02*
Y0071254D01*
X-0059927Y0073084D02*
Y0071254D01*
X-0060017Y0073089D02*
Y0071254D01*
X-0060107Y0073095D02*
Y0071254D01*
X-0060197Y0073101D02*
Y0071254D01*
X-0060287Y0073106D02*
Y0071254D01*
X-0060377Y0073112D02*
Y0071254D01*
X-0060467Y0073118D02*
Y0071254D01*
X-0060557Y0073123D02*
Y0071254D01*
X-0060647Y0073129D02*
Y0071254D01*
X-0060737Y0073135D02*
Y0071254D01*
X-0060827Y0073140D02*
Y0071254D01*
X-0060917Y0073146D02*
Y0071254D01*
X-0061007Y0073152D02*
Y0071254D01*
X-0061097Y0073157D02*
Y0071254D01*
X-0061187Y0073163D02*
Y0071254D01*
X-0061277Y0073169D02*
Y0071254D01*
X-0061367Y0073174D02*
Y0071254D01*
X-0061457Y0073180D02*
Y0071254D01*
X-0061547Y0073186D02*
Y0071254D01*
X-0061637Y0073191D02*
Y0071254D01*
X-0061727Y0073197D02*
Y0071254D01*
X-0061817Y0073203D02*
Y0071254D01*
X-0061907Y0073208D02*
Y0071254D01*
X-0061997Y0073214D02*
Y0071254D01*
X-0062087Y0073220D02*
Y0071254D01*
X-0062177Y0073225D02*
Y0071254D01*
X-0062267Y0073231D02*
Y0071254D01*
X-0062357Y0073237D02*
Y0071254D01*
X-0062447Y0073242D02*
Y0071254D01*
X-0062537Y0073248D02*
Y0071254D01*
X-0062627Y0073254D02*
Y0071254D01*
X-0062717Y0073259D02*
Y0071254D01*
X-0062807Y0073265D02*
Y0071254D01*
X-0062897Y0073271D02*
Y0071254D01*
X-0062987Y0073276D02*
Y0071254D01*
X-0063077Y0073282D02*
Y0071254D01*
X-0063167Y0073288D02*
Y0071254D01*
X-0063257Y0073293D02*
Y0071254D01*
X-0063347Y0073299D02*
Y0071254D01*
X-0063437Y0073305D02*
Y0071254D01*
X-0063527Y0073310D02*
Y0071254D01*
X-0063617Y0073316D02*
Y0071254D01*
X-0063707Y0073321D02*
Y0071254D01*
X-0063797Y0073327D02*
Y0071254D01*
X-0063887Y0073333D02*
Y0071254D01*
X-0063977Y0073338D02*
Y0071254D01*
X-0064067Y0073344D02*
Y0071254D01*
X-0064157Y0073350D02*
Y0071254D01*
X-0064247Y0073355D02*
Y0071254D01*
X-0064337Y0073361D02*
Y0071254D01*
X-0064427Y0073367D02*
Y0071254D01*
X-0064517Y0073372D02*
Y0071254D01*
X-0064607Y0073378D02*
Y0071254D01*
X-0064697Y0073384D02*
Y0071254D01*
X-0064787Y0073389D02*
Y0071254D01*
X-0064877Y0073395D02*
Y0071254D01*
X-0064967Y0073401D02*
Y0071254D01*
X-0065057Y0073406D02*
Y0071254D01*
X-0065147Y0073412D02*
Y0071254D01*
X-0065237Y0073418D02*
Y0071254D01*
X-0065327Y0073423D02*
Y0071254D01*
X-0065417Y0073429D02*
Y0071254D01*
X-0065507Y0073435D02*
Y0071254D01*
X-0065597Y0073440D02*
Y0071254D01*
X-0065687Y0073446D02*
Y0071254D01*
X-0065777Y0073452D02*
Y0071254D01*
X-0065867Y0073457D02*
Y0071254D01*
X-0065957Y0073463D02*
Y0071254D01*
X-0066047Y0073469D02*
Y0071254D01*
X-0066137Y0073474D02*
Y0071254D01*
X-0066227Y0073480D02*
Y0071254D01*
X-0066317Y0073486D02*
Y0071254D01*
X-0049602Y0072104D02*
X-0083457D01*
X-0066497Y0073497D02*
Y0071254D01*
X-0066587Y0073503D02*
Y0071254D01*
X-0066677Y0073508D02*
Y0071254D01*
X-0066767Y0073514D02*
Y0071254D01*
X-0066857Y0073520D02*
Y0071254D01*
X-0066947Y0073525D02*
Y0071254D01*
X-0067037Y0073531D02*
Y0071254D01*
X-0067127Y0073537D02*
Y0071254D01*
X-0067217Y0073542D02*
Y0071254D01*
X-0067307Y0073548D02*
Y0071254D01*
X-0067397Y0073554D02*
Y0071254D01*
X-0067487Y0073559D02*
Y0071254D01*
X-0067577Y0073565D02*
Y0071254D01*
X-0067667Y0073571D02*
Y0071254D01*
X-0067757Y0073576D02*
Y0071254D01*
X-0067847Y0073582D02*
Y0071254D01*
X-0067937Y0073587D02*
Y0071254D01*
X-0068027Y0073593D02*
Y0071254D01*
X-0068117Y0073599D02*
Y0071254D01*
X-0068207Y0073604D02*
Y0071254D01*
X-0068297Y0073610D02*
Y0071254D01*
X-0068387Y0073616D02*
Y0071254D01*
X-0068477Y0073621D02*
Y0071254D01*
X-0068567Y0073627D02*
Y0071254D01*
X-0068657Y0073633D02*
Y0071254D01*
X-0068747Y0073638D02*
Y0071254D01*
X-0068837Y0073644D02*
Y0071254D01*
X-0068927Y0073650D02*
Y0071254D01*
X-0069017Y0073655D02*
Y0071254D01*
X-0069107Y0073661D02*
Y0071254D01*
X-0069197Y0073667D02*
Y0071254D01*
X-0069287Y0073672D02*
Y0071254D01*
X-0069377Y0073678D02*
Y0071254D01*
X-0069467Y0073684D02*
Y0071254D01*
X-0069557Y0073689D02*
Y0071254D01*
X-0069647Y0073695D02*
Y0071254D01*
X-0069737Y0073701D02*
Y0071254D01*
X-0069827Y0073706D02*
Y0071254D01*
X-0069917Y0073712D02*
Y0071254D01*
X-0070007Y0073718D02*
Y0071254D01*
X-0070097Y0073723D02*
Y0071254D01*
X-0070187Y0073729D02*
Y0071254D01*
X-0070277Y0073735D02*
Y0071254D01*
X-0070367Y0073740D02*
Y0071254D01*
X-0070457Y0073746D02*
Y0071254D01*
X-0070547Y0073752D02*
Y0071254D01*
X-0070637Y0073757D02*
Y0071254D01*
X-0070727Y0073763D02*
Y0071254D01*
X-0070817Y0073769D02*
Y0071254D01*
X-0070907Y0073774D02*
Y0071254D01*
X-0070997Y0073780D02*
Y0071254D01*
X-0071087Y0073786D02*
Y0071254D01*
X-0071177Y0073791D02*
Y0071254D01*
X-0071267Y0073797D02*
Y0071254D01*
X-0071357Y0073803D02*
Y0071254D01*
X-0071447Y0073808D02*
Y0071254D01*
X-0071537Y0073814D02*
Y0071254D01*
X-0071627Y0073820D02*
Y0071254D01*
X-0071717Y0073825D02*
Y0071254D01*
X-0071807Y0073831D02*
Y0071254D01*
X-0071897Y0073837D02*
Y0071254D01*
X-0071987Y0073842D02*
Y0071254D01*
X-0072077Y0073848D02*
Y0071254D01*
X-0072167Y0073853D02*
Y0071254D01*
X-0072257Y0073859D02*
Y0071254D01*
X-0072347Y0073865D02*
Y0071254D01*
X-0072437Y0073870D02*
Y0071254D01*
X-0072527Y0073876D02*
Y0071254D01*
X-0072617Y0073882D02*
Y0071254D01*
X-0072707Y0073887D02*
Y0071254D01*
X-0072797Y0073893D02*
Y0071254D01*
X-0072887Y0073899D02*
Y0071254D01*
X-0072977Y0073904D02*
Y0071254D01*
X-0073067Y0073910D02*
Y0071254D01*
X-0073157Y0073916D02*
Y0071254D01*
X-0073247Y0073921D02*
Y0071254D01*
X-0073337Y0073927D02*
Y0071254D01*
X-0073427Y0073933D02*
Y0071254D01*
X-0073517Y0073938D02*
Y0071254D01*
X-0073607Y0073944D02*
Y0071254D01*
X-0073697Y0073950D02*
Y0071254D01*
X-0073787Y0073955D02*
Y0071254D01*
X-0073877Y0073961D02*
Y0071254D01*
X-0073967Y0073967D02*
Y0071254D01*
X-0074057Y0073972D02*
Y0071254D01*
X-0074147Y0073978D02*
Y0071254D01*
X-0074237Y0073984D02*
Y0071254D01*
X-0074327Y0073989D02*
Y0071254D01*
X-0074417Y0073995D02*
Y0071254D01*
X-0074507Y0074001D02*
Y0071254D01*
X-0074597Y0074006D02*
Y0071254D01*
X-0074687Y0074012D02*
Y0071254D01*
X-0074777Y0074018D02*
Y0071254D01*
X-0074867Y0074023D02*
Y0071254D01*
X-0049602Y0071744D02*
X-0083457D01*
X-0075047Y0074035D02*
Y0071254D01*
X-0075137Y0074040D02*
Y0071254D01*
X-0075227Y0074046D02*
Y0071254D01*
X-0075317Y0074052D02*
Y0071254D01*
X-0075407Y0074057D02*
Y0071254D01*
X-0075497Y0074063D02*
Y0071254D01*
X-0075587Y0074069D02*
Y0071254D01*
X-0075677Y0074074D02*
Y0071254D01*
X-0075767Y0074080D02*
Y0071254D01*
X-0075857Y0074086D02*
Y0071254D01*
X-0075947Y0074091D02*
Y0071254D01*
X-0076037Y0074097D02*
Y0071254D01*
X-0076127Y0074103D02*
Y0071254D01*
X-0076217Y0074108D02*
Y0071254D01*
X-0076307Y0074114D02*
Y0071254D01*
X-0076397Y0074119D02*
Y0071254D01*
X-0076487Y0074125D02*
Y0071254D01*
X-0076577Y0074131D02*
Y0071254D01*
X-0076667Y0074136D02*
Y0071254D01*
X-0076757Y0074142D02*
Y0071254D01*
X-0076847Y0074148D02*
Y0071254D01*
X-0076937Y0074153D02*
Y0071254D01*
X-0077027Y0074159D02*
Y0071254D01*
X-0077117Y0074165D02*
Y0071254D01*
X-0077207Y0074170D02*
Y0071254D01*
X-0077297Y0074176D02*
Y0071254D01*
X-0077387Y0074182D02*
Y0071254D01*
X-0077477Y0074187D02*
Y0071254D01*
X-0077567Y0074193D02*
Y0071254D01*
X-0077657Y0074199D02*
Y0071254D01*
X-0077747Y0074204D02*
Y0071254D01*
X-0077837Y0074210D02*
Y0071254D01*
X-0077927Y0074216D02*
Y0071254D01*
X-0078017Y0074221D02*
Y0071254D01*
X-0078107Y0074227D02*
Y0071254D01*
X-0078197Y0074233D02*
Y0071254D01*
X-0078287Y0074238D02*
Y0071254D01*
X-0078377Y0074244D02*
Y0071254D01*
X-0078467Y0074250D02*
Y0071254D01*
X-0078557Y0074255D02*
Y0071254D01*
X-0078647Y0074261D02*
Y0071254D01*
X-0078737Y0074267D02*
Y0071254D01*
X-0078827Y0074272D02*
Y0071254D01*
X-0078917Y0074278D02*
Y0071254D01*
X-0079007Y0074284D02*
Y0071254D01*
X-0079097Y0074289D02*
Y0071254D01*
X-0079187Y0074295D02*
Y0071254D01*
X-0079277Y0074301D02*
Y0071254D01*
X-0079367Y0074306D02*
Y0071254D01*
X-0079457Y0074312D02*
Y0071254D01*
X-0079547Y0074318D02*
Y0071254D01*
X-0079637Y0074323D02*
Y0071254D01*
X-0079727Y0074329D02*
Y0071254D01*
X-0079817Y0074335D02*
Y0071254D01*
X-0079907Y0074340D02*
Y0071254D01*
X-0079997Y0074346D02*
Y0071254D01*
X-0080087Y0074352D02*
Y0071254D01*
X-0080177Y0074357D02*
Y0071254D01*
X-0080267Y0074363D02*
Y0071254D01*
X-0080357Y0074369D02*
Y0071254D01*
X-0080447Y0074374D02*
Y0071254D01*
X-0080537Y0074380D02*
Y0071254D01*
X-0080627Y0074385D02*
Y0071254D01*
X-0080717Y0074391D02*
Y0071254D01*
X-0080807Y0074397D02*
Y0071254D01*
X-0080897Y0074402D02*
Y0071254D01*
X-0080987Y0074408D02*
Y0071254D01*
X-0081077Y0074414D02*
Y0071254D01*
X-0081167Y0074419D02*
Y0071254D01*
X-0081257Y0074425D02*
Y0071254D01*
X-0081347Y0074431D02*
Y0071254D01*
X-0081437Y0074436D02*
Y0071254D01*
X-0081527Y0074442D02*
Y0071254D01*
X-0081617Y0074448D02*
Y0071254D01*
X-0081707Y0074453D02*
Y0071254D01*
X-0081797Y0074459D02*
Y0071254D01*
X-0081887Y0074465D02*
Y0071254D01*
X-0081977Y0074470D02*
Y0071254D01*
X-0082067Y0074476D02*
Y0071254D01*
X-0082157Y0074482D02*
Y0071254D01*
X-0082247Y0074487D02*
Y0071254D01*
X-0082337Y0074493D02*
Y0071254D01*
X-0082427Y0074497D02*
Y0071254D01*
X-0082517Y0074497D02*
Y0071254D01*
X-0082607Y0074497D02*
Y0071254D01*
X-0082697Y0074497D02*
Y0071254D01*
X-0082787Y0074497D02*
Y0071254D01*
X-0082877Y0074497D02*
Y0071254D01*
X-0082967Y0074497D02*
Y0071254D01*
X-0083057Y0074497D02*
Y0071254D01*
X-0083147Y0074497D02*
Y0071254D01*
X-0083237Y0074497D02*
Y0071254D01*
X-0083327Y0074497D02*
Y0071254D01*
X-0081550Y0074444D02*
X-0083457D01*
X-0080119Y0074354D02*
X-0083457D01*
X-0078687Y0074264D02*
X-0083457D01*
X-0077256Y0074174D02*
X-0083457D01*
X-0075825Y0074084D02*
X-0083457D01*
X-0074394Y0073994D02*
X-0083457D01*
X-0072962Y0073904D02*
X-0083457D01*
X-0071531Y0073814D02*
X-0083457D01*
X-0070100Y0073724D02*
X-0083457D01*
X-0068669Y0073634D02*
X-0083457D01*
X-0067238Y0073544D02*
X-0083457D01*
X-0065806Y0073454D02*
X-0083457D01*
X-0064375Y0073364D02*
X-0083457D01*
X-0062944Y0073274D02*
X-0083457D01*
X-0061513Y0073184D02*
X-0083457D01*
X-0060082Y0073094D02*
X-0083457D01*
X-0066407Y0073491D02*
Y0071254D01*
X-0057219Y0072914D02*
X-0083457D01*
X-0055788Y0072824D02*
X-0083457D01*
X-0054357Y0072734D02*
X-0083457D01*
X-0052925Y0072644D02*
X-0083457D01*
X-0051494Y0072554D02*
X-0083457D01*
X-0050063Y0072464D02*
X-0083457D01*
X-0049602Y0072374D02*
X-0083457D01*
X-0049602Y0072284D02*
X-0083457D01*
X-0049602Y0072194D02*
X-0083457D01*
X-0074957Y0074029D02*
Y0071254D01*
X-0049602Y0072014D02*
X-0083457D01*
X-0049602Y0071924D02*
X-0083457D01*
X-0049602Y0071834D02*
X-0083457D01*
X-0083417Y0074497D02*
Y0071254D01*
X-0049602Y0071654D02*
X-0083457D01*
X-0049602Y0071564D02*
X-0083457D01*
X-0049602Y0071474D02*
X-0083457D01*
X-0049602Y0071384D02*
X-0083457D01*
X-0056687Y0048027D02*
Y0046453D01*
X-0056777Y0048027D02*
Y0046453D01*
X-0056867Y0048027D02*
Y0046453D01*
X-0056957Y0048027D02*
Y0046453D01*
X-0057047Y0048027D02*
Y0046453D01*
X-0057137Y0048027D02*
Y0046453D01*
X-0057227Y0048027D02*
Y0046453D01*
X-0057317Y0048027D02*
Y0046453D01*
X-0057407Y0048027D02*
Y0046453D01*
X-0057497Y0048027D02*
Y0046453D01*
X-0057587Y0048027D02*
Y0046453D01*
X-0057677Y0048027D02*
Y0046453D01*
X-0057767Y0048027D02*
Y0046453D01*
X-0057857Y0048027D02*
Y0046453D01*
X-0057947Y0048027D02*
Y0046453D01*
X-0058037Y0048027D02*
Y0046453D01*
X-0058127Y0048027D02*
Y0046453D01*
X-0058217Y0048027D02*
Y0046453D01*
X-0058307Y0048027D02*
Y0046453D01*
X-0058397Y0048027D02*
Y0046453D01*
X-0058487Y0048027D02*
Y0046453D01*
X-0058577Y0048027D02*
Y0046453D01*
X-0058667Y0048027D02*
Y0046453D01*
X-0058757Y0048027D02*
Y0046453D01*
X-0058847Y0048027D02*
Y0046453D01*
X-0058937Y0048027D02*
Y0046453D01*
X-0059027Y0048027D02*
Y0046453D01*
X-0059117Y0048027D02*
Y0046453D01*
X-0059207Y0048027D02*
Y0046453D01*
X-0059297Y0048027D02*
Y0046453D01*
X-0059387Y0048027D02*
Y0046453D01*
X-0059477Y0048027D02*
Y0046453D01*
X-0059567Y0048027D02*
Y0046453D01*
X-0059657Y0048027D02*
Y0046453D01*
X-0059747Y0048027D02*
Y0046453D01*
X-0059837Y0048027D02*
Y0046453D01*
X-0059927Y0048027D02*
Y0046453D01*
X-0060017Y0048027D02*
Y0046453D01*
X-0060107Y0048027D02*
Y0046453D01*
X-0060197Y0048027D02*
Y0046453D01*
X-0060287Y0048027D02*
Y0046453D01*
X-0060377Y0048027D02*
Y0046453D01*
X-0060467Y0048027D02*
Y0046453D01*
X-0060557Y0048027D02*
Y0046453D01*
X-0060647Y0048027D02*
Y0046453D01*
X-0060737Y0048027D02*
Y0046453D01*
X-0060827Y0048027D02*
Y0046453D01*
X-0060917Y0048027D02*
Y0046453D01*
X-0061007Y0048027D02*
Y0046453D01*
X-0061097Y0048027D02*
Y0046453D01*
X-0061187Y0048027D02*
Y0046453D01*
X-0061277Y0048027D02*
Y0046453D01*
X-0061367Y0048027D02*
Y0046453D01*
X-0061457Y0048027D02*
Y0046453D01*
X-0061547Y0048027D02*
Y0046453D01*
X-0061637Y0048027D02*
Y0046453D01*
X-0061727Y0048027D02*
Y0046453D01*
X-0061817Y0048027D02*
Y0046453D01*
X-0061907Y0048027D02*
Y0046453D01*
X-0061997Y0048027D02*
Y0046453D01*
X-0062087Y0048027D02*
Y0046453D01*
X-0062177Y0048027D02*
Y0046453D01*
X-0062267Y0048027D02*
Y0046453D01*
X-0062357Y0048027D02*
Y0046453D01*
X-0062447Y0048027D02*
Y0046453D01*
X-0062537Y0048027D02*
Y0046453D01*
X-0062627Y0048027D02*
Y0046453D01*
X-0062717Y0048027D02*
Y0046453D01*
X-0062807Y0048027D02*
Y0046453D01*
X-0062897Y0048027D02*
Y0046453D01*
X-0062987Y0048027D02*
Y0046453D01*
X-0063077Y0048027D02*
Y0046453D01*
X-0063167Y0048027D02*
Y0046453D01*
X-0063257Y0048027D02*
Y0046453D01*
X-0063347Y0048027D02*
Y0046453D01*
X-0063437Y0048027D02*
Y0046453D01*
X-0063527Y0048027D02*
Y0046453D01*
X-0063617Y0048027D02*
Y0046453D01*
X-0063707Y0048027D02*
Y0046453D01*
X-0063797Y0048027D02*
Y0046453D01*
X-0063887Y0048027D02*
Y0046453D01*
X-0063977Y0048027D02*
Y0046453D01*
X-0064067Y0048027D02*
Y0046453D01*
X-0064157Y0048027D02*
Y0046453D01*
X-0064247Y0048027D02*
Y0046453D01*
X-0064337Y0048027D02*
Y0046453D01*
X-0064427Y0048027D02*
Y0046453D01*
X-0064517Y0048027D02*
Y0046453D01*
X-0064607Y0048027D02*
Y0046453D01*
X-0064697Y0048027D02*
Y0046453D01*
X-0064787Y0048027D02*
Y0046453D01*
X-0064877Y0048027D02*
Y0046453D01*
X-0064967Y0048027D02*
Y0046453D01*
X-0065057Y0048027D02*
Y0046453D01*
X-0065147Y0048027D02*
Y0046453D01*
X-0065237Y0048027D02*
Y0046453D01*
X-0065327Y0048027D02*
Y0046453D01*
X-0065417Y0048027D02*
Y0046453D01*
X-0065507Y0048027D02*
Y0046453D01*
X-0065597Y0048027D02*
Y0046453D01*
X-0065687Y0048027D02*
Y0046453D01*
X-0065777Y0048027D02*
Y0046453D01*
X-0065867Y0048027D02*
Y0046453D01*
X-0065957Y0048027D02*
Y0046453D01*
X-0066047Y0048027D02*
Y0046453D01*
X-0066137Y0048027D02*
Y0046453D01*
X-0049599Y0046943D02*
X-0083457D01*
X-0066317Y0048027D02*
Y0046453D01*
X-0066407Y0048027D02*
Y0046453D01*
X-0066497Y0048027D02*
Y0046453D01*
X-0066587Y0048027D02*
Y0046453D01*
X-0066677Y0048027D02*
Y0046453D01*
X-0066767Y0048027D02*
Y0046453D01*
X-0066857Y0048027D02*
Y0046453D01*
X-0066947Y0048027D02*
Y0046453D01*
X-0067037Y0048027D02*
Y0046453D01*
X-0067127Y0048027D02*
Y0046453D01*
X-0067217Y0048027D02*
Y0046453D01*
X-0067307Y0048027D02*
Y0046453D01*
X-0067397Y0048027D02*
Y0046453D01*
X-0067487Y0048027D02*
Y0046453D01*
X-0067577Y0048027D02*
Y0046453D01*
X-0067667Y0048027D02*
Y0046453D01*
X-0067757Y0048027D02*
Y0046453D01*
X-0067847Y0048027D02*
Y0046453D01*
X-0067937Y0048027D02*
Y0046453D01*
X-0068027Y0048027D02*
Y0046453D01*
X-0068117Y0048027D02*
Y0046453D01*
X-0068207Y0048027D02*
Y0046453D01*
X-0068297Y0048027D02*
Y0046453D01*
X-0068387Y0048027D02*
Y0046453D01*
X-0068477Y0048027D02*
Y0046453D01*
X-0068567Y0048027D02*
Y0046453D01*
X-0068657Y0048027D02*
Y0046453D01*
X-0068747Y0048027D02*
Y0046453D01*
X-0068837Y0048027D02*
Y0046453D01*
X-0068927Y0048027D02*
Y0046453D01*
X-0069017Y0048027D02*
Y0046453D01*
X-0069107Y0048027D02*
Y0046453D01*
X-0069197Y0048027D02*
Y0046453D01*
X-0069287Y0048027D02*
Y0046453D01*
X-0069377Y0048027D02*
Y0046453D01*
X-0069467Y0048027D02*
Y0046453D01*
X-0069557Y0048027D02*
Y0046453D01*
X-0069647Y0048027D02*
Y0046453D01*
X-0069737Y0048027D02*
Y0046453D01*
X-0069827Y0048027D02*
Y0046453D01*
X-0069917Y0048027D02*
Y0046453D01*
X-0070007Y0048027D02*
Y0046453D01*
X-0070097Y0048027D02*
Y0046453D01*
X-0070187Y0048027D02*
Y0046453D01*
X-0070277Y0048027D02*
Y0046453D01*
X-0070367Y0048027D02*
Y0046453D01*
X-0070457Y0048027D02*
Y0046453D01*
X-0070547Y0048027D02*
Y0046453D01*
X-0070637Y0048027D02*
Y0046453D01*
X-0070727Y0048027D02*
Y0046453D01*
X-0070817Y0048027D02*
Y0046453D01*
X-0070907Y0048027D02*
Y0046453D01*
X-0070997Y0048027D02*
Y0046453D01*
X-0071087Y0048027D02*
Y0046453D01*
X-0071177Y0048027D02*
Y0046453D01*
X-0071267Y0048027D02*
Y0046453D01*
X-0071357Y0048027D02*
Y0046453D01*
X-0071447Y0048027D02*
Y0046453D01*
X-0071537Y0048027D02*
Y0046453D01*
X-0071627Y0048027D02*
Y0046453D01*
X-0071717Y0048027D02*
Y0046453D01*
X-0071807Y0048027D02*
Y0046453D01*
X-0071897Y0048027D02*
Y0046453D01*
X-0071987Y0048027D02*
Y0046453D01*
X-0072077Y0048027D02*
Y0046453D01*
X-0072167Y0048027D02*
Y0046453D01*
X-0072257Y0048027D02*
Y0046453D01*
X-0072347Y0048027D02*
Y0046453D01*
X-0072437Y0048027D02*
Y0046453D01*
X-0072527Y0048027D02*
Y0046453D01*
X-0072617Y0048027D02*
Y0046453D01*
X-0072707Y0048027D02*
Y0046453D01*
X-0072797Y0048027D02*
Y0046453D01*
X-0072887Y0048027D02*
Y0046453D01*
X-0072977Y0048027D02*
Y0046453D01*
X-0073067Y0048027D02*
Y0046453D01*
X-0073157Y0048027D02*
Y0046453D01*
X-0073247Y0048027D02*
Y0046453D01*
X-0073337Y0048027D02*
Y0046453D01*
X-0073427Y0048027D02*
Y0046453D01*
X-0073517Y0048027D02*
Y0046453D01*
X-0073607Y0048027D02*
Y0046453D01*
X-0073697Y0048027D02*
Y0046453D01*
X-0073787Y0048027D02*
Y0046453D01*
X-0073877Y0048027D02*
Y0046453D01*
X-0073967Y0048027D02*
Y0046453D01*
X-0074057Y0048027D02*
Y0046453D01*
X-0074147Y0048027D02*
Y0046453D01*
X-0074237Y0048027D02*
Y0046453D01*
X-0074327Y0048027D02*
Y0046453D01*
X-0074417Y0048027D02*
Y0046453D01*
X-0074507Y0048027D02*
Y0046453D01*
X-0074597Y0048027D02*
Y0046453D01*
X-0074687Y0048027D02*
Y0046453D01*
X-0074777Y0048027D02*
Y0046453D01*
X-0049599Y0046673D02*
X-0083457D01*
X-0074957Y0048027D02*
Y0046453D01*
X-0075047Y0048027D02*
Y0046453D01*
X-0075137Y0048027D02*
Y0046453D01*
X-0075227Y0048027D02*
Y0046453D01*
X-0075317Y0048027D02*
Y0046453D01*
X-0075407Y0048027D02*
Y0046453D01*
X-0075497Y0048027D02*
Y0046453D01*
X-0075587Y0048027D02*
Y0046453D01*
X-0075677Y0048027D02*
Y0046453D01*
X-0075767Y0048027D02*
Y0046453D01*
X-0075857Y0048027D02*
Y0046453D01*
X-0075947Y0048027D02*
Y0046453D01*
X-0076037Y0048027D02*
Y0046453D01*
X-0076127Y0048027D02*
Y0046453D01*
X-0076217Y0048027D02*
Y0046453D01*
X-0076307Y0048027D02*
Y0046453D01*
X-0076397Y0048027D02*
Y0046453D01*
X-0076487Y0048027D02*
Y0046453D01*
X-0076577Y0048027D02*
Y0046453D01*
X-0076667Y0048027D02*
Y0046453D01*
X-0076757Y0048027D02*
Y0046453D01*
X-0076847Y0048027D02*
Y0046453D01*
X-0076937Y0048027D02*
Y0046453D01*
X-0077027Y0048027D02*
Y0046453D01*
X-0077117Y0048027D02*
Y0046453D01*
X-0077207Y0048027D02*
Y0046453D01*
X-0077297Y0048027D02*
Y0046453D01*
X-0077387Y0048027D02*
Y0046453D01*
X-0077477Y0048027D02*
Y0046453D01*
X-0077567Y0048027D02*
Y0046453D01*
X-0077657Y0048027D02*
Y0046453D01*
X-0077747Y0048027D02*
Y0046453D01*
X-0077837Y0048027D02*
Y0046453D01*
X-0077927Y0048027D02*
Y0046453D01*
X-0078017Y0048027D02*
Y0046453D01*
X-0078107Y0048027D02*
Y0046453D01*
X-0078197Y0048027D02*
Y0046453D01*
X-0078287Y0048027D02*
Y0046453D01*
X-0078377Y0048027D02*
Y0046453D01*
X-0078467Y0048027D02*
Y0046453D01*
X-0078557Y0048027D02*
Y0046453D01*
X-0078647Y0048027D02*
Y0046453D01*
X-0078737Y0048027D02*
Y0046453D01*
X-0078827Y0048027D02*
Y0046453D01*
X-0078917Y0048027D02*
Y0046453D01*
X-0079007Y0048027D02*
Y0046453D01*
X-0079097Y0048027D02*
Y0046453D01*
X-0079187Y0048027D02*
Y0046453D01*
X-0079277Y0048027D02*
Y0046453D01*
X-0079367Y0048027D02*
Y0046453D01*
X-0079457Y0048027D02*
Y0046453D01*
X-0079547Y0048027D02*
Y0046453D01*
X-0079637Y0048027D02*
Y0046453D01*
X-0079727Y0048027D02*
Y0046453D01*
X-0079817Y0048027D02*
Y0046453D01*
X-0079907Y0048027D02*
Y0046453D01*
X-0079997Y0048027D02*
Y0046453D01*
X-0080087Y0048027D02*
Y0046453D01*
X-0080177Y0048027D02*
Y0046453D01*
X-0080267Y0048027D02*
Y0046453D01*
X-0080357Y0048027D02*
Y0046453D01*
X-0080447Y0048027D02*
Y0046453D01*
X-0080537Y0048027D02*
Y0046453D01*
X-0080627Y0048027D02*
Y0046453D01*
X-0080717Y0048027D02*
Y0046453D01*
X-0080807Y0048027D02*
Y0046453D01*
X-0080897Y0048027D02*
Y0046453D01*
X-0080987Y0048027D02*
Y0046453D01*
X-0081077Y0048027D02*
Y0046453D01*
X-0081167Y0048027D02*
Y0046453D01*
X-0081257Y0048027D02*
Y0046453D01*
X-0081347Y0048027D02*
Y0046453D01*
X-0081437Y0048027D02*
Y0046453D01*
X-0081527Y0048027D02*
Y0046453D01*
X-0081617Y0048027D02*
Y0046453D01*
X-0081707Y0048027D02*
Y0046453D01*
X-0081797Y0048027D02*
Y0046453D01*
X-0081887Y0048027D02*
Y0046453D01*
X-0081977Y0048027D02*
Y0046453D01*
X-0082067Y0048027D02*
Y0046453D01*
X-0082157Y0048027D02*
Y0046453D01*
X-0082247Y0048027D02*
Y0046453D01*
X-0082337Y0048027D02*
Y0046453D01*
X-0082427Y0048027D02*
Y0046453D01*
X-0082517Y0048027D02*
Y0046453D01*
X-0082607Y0048027D02*
Y0046453D01*
X-0082697Y0048027D02*
Y0046453D01*
X-0082787Y0048027D02*
Y0046453D01*
X-0082877Y0048027D02*
Y0046453D01*
X-0082967Y0048027D02*
Y0046453D01*
X-0083057Y0048027D02*
Y0046453D01*
X-0083147Y0048027D02*
Y0046453D01*
X-0083237Y0048027D02*
Y0046453D01*
X-0083327Y0048027D02*
Y0046453D01*
X-0049599Y0047933D02*
X-0083457D01*
X-0049599Y0047843D02*
X-0083457D01*
X-0049599Y0047753D02*
X-0083457D01*
X-0049599Y0047663D02*
X-0083457D01*
X-0049599Y0047573D02*
X-0083457D01*
X-0049599Y0047483D02*
X-0083457D01*
X-0049599Y0047393D02*
X-0083457D01*
X-0066227Y0048027D02*
Y0046453D01*
X-0049599Y0047213D02*
X-0083457D01*
X-0049599Y0047123D02*
X-0083457D01*
X-0049599Y0047033D02*
X-0083457D01*
X-0074867Y0048027D02*
Y0046453D01*
X-0049599Y0046853D02*
X-0083457D01*
X-0049599Y0046763D02*
X-0083457D01*
X-0083417Y0048027D02*
Y0046453D01*
X-0049599Y0046583D02*
X-0083457D01*
X-0049599Y0046493D02*
X-0083457D01*
Y0048027D02*
Y0046453D01*
X-0049208Y0048027D02*
X-0083457D01*
X-0049208D02*
X-0049599Y0048026D01*
Y0046453D01*
X-0083457D01*
X-0049599Y0047303D02*
X-0083457D01*
X-0049667Y0048027D02*
Y0046453D01*
X-0049757Y0048027D02*
Y0046453D01*
X-0049847Y0048027D02*
Y0046453D01*
X-0049937Y0048027D02*
Y0046453D01*
X-0050027Y0048027D02*
Y0046453D01*
X-0050117Y0048027D02*
Y0046453D01*
X-0050207Y0048027D02*
Y0046453D01*
X-0050297Y0048027D02*
Y0046453D01*
X-0050387Y0048027D02*
Y0046453D01*
X-0050477Y0048027D02*
Y0046453D01*
X-0050567Y0048027D02*
Y0046453D01*
X-0050657Y0048027D02*
Y0046453D01*
X-0050747Y0048027D02*
Y0046453D01*
X-0050837Y0048027D02*
Y0046453D01*
X-0050927Y0048027D02*
Y0046453D01*
X-0051017Y0048027D02*
Y0046453D01*
X-0051107Y0048027D02*
Y0046453D01*
X-0051197Y0048027D02*
Y0046453D01*
X-0051287Y0048027D02*
Y0046453D01*
X-0051377Y0048027D02*
Y0046453D01*
X-0051467Y0048027D02*
Y0046453D01*
X-0051557Y0048027D02*
Y0046453D01*
X-0051647Y0048027D02*
Y0046453D01*
X-0051737Y0048027D02*
Y0046453D01*
X-0051827Y0048027D02*
Y0046453D01*
X-0051917Y0048027D02*
Y0046453D01*
X-0052007Y0048027D02*
Y0046453D01*
X-0052097Y0048027D02*
Y0046453D01*
X-0052187Y0048027D02*
Y0046453D01*
X-0052277Y0048027D02*
Y0046453D01*
X-0052367Y0048027D02*
Y0046453D01*
X-0052457Y0048027D02*
Y0046453D01*
X-0052547Y0048027D02*
Y0046453D01*
X-0052637Y0048027D02*
Y0046453D01*
X-0052727Y0048027D02*
Y0046453D01*
X-0052817Y0048027D02*
Y0046453D01*
X-0052907Y0048027D02*
Y0046453D01*
X-0052997Y0048027D02*
Y0046453D01*
X-0053087Y0048027D02*
Y0046453D01*
X-0053177Y0048027D02*
Y0046453D01*
X-0053267Y0048027D02*
Y0046453D01*
X-0053357Y0048027D02*
Y0046453D01*
X-0053447Y0048027D02*
Y0046453D01*
X-0053537Y0048027D02*
Y0046453D01*
X-0053627Y0048027D02*
Y0046453D01*
X-0053717Y0048027D02*
Y0046453D01*
X-0053807Y0048027D02*
Y0046453D01*
X-0053897Y0048027D02*
Y0046453D01*
X-0053987Y0048027D02*
Y0046453D01*
X-0054077Y0048027D02*
Y0046453D01*
X-0054167Y0048027D02*
Y0046453D01*
X-0054257Y0048027D02*
Y0046453D01*
X-0054347Y0048027D02*
Y0046453D01*
X-0054437Y0048027D02*
Y0046453D01*
X-0054527Y0048027D02*
Y0046453D01*
X-0054617Y0048027D02*
Y0046453D01*
X-0054707Y0048027D02*
Y0046453D01*
X-0054797Y0048027D02*
Y0046453D01*
X-0054887Y0048027D02*
Y0046453D01*
X-0054977Y0048027D02*
Y0046453D01*
X-0055067Y0048027D02*
Y0046453D01*
X-0055157Y0048027D02*
Y0046453D01*
X-0055247Y0048027D02*
Y0046453D01*
X-0055337Y0048027D02*
Y0046453D01*
X-0055427Y0048027D02*
Y0046453D01*
X-0055517Y0048027D02*
Y0046453D01*
X-0055607Y0048027D02*
Y0046453D01*
X-0055697Y0048027D02*
Y0046453D01*
X-0055787Y0048027D02*
Y0046453D01*
X-0055877Y0048027D02*
Y0046453D01*
X-0055967Y0048027D02*
Y0046453D01*
X-0056057Y0048027D02*
Y0046453D01*
X-0056147Y0048027D02*
Y0046453D01*
X-0056237Y0048027D02*
Y0046453D01*
X-0056327Y0048027D02*
Y0046453D01*
X-0056417Y0048027D02*
Y0046453D01*
X-0056507Y0048027D02*
Y0046453D01*
X-0056597Y0048027D02*
Y0046453D01*
G54D24*
X-0048027Y0045665D03*
Y0073222D03*
X-0085032Y0045665D03*
Y0073222D03*
G54D25*
X-0055901Y0050783D03*
X-0060625D03*
X-0051964Y0068498D03*
X-0059254D03*
X-0068104D03*
X-0072041D03*
X-0079521Y0064168D03*
X-0057082Y0053539D03*
X-0069285Y0054720D03*
X-0075978Y0061412D03*
X-0080702Y0055507D03*
X-0069466Y0052358D03*
X-0068266D03*
X-0051987Y0058400D03*
X-0053087D03*
X-0058050Y0060837D03*
X-0060050D03*
X-0060656Y0058263D03*
X-0058656D03*
X-0066516Y0053800D03*
X-0064516D03*
X-0068466Y0049602D03*
X-0070466D03*
X-0072828Y0050783D03*
Y0048783D03*
G54D26*
X-0064168Y0061018D03*
X-0062168D03*
X-0051858Y0063593D03*
Y0064593D03*
Y0065593D03*
Y0066593D03*
Y0062593D03*
X-0059216Y0069900D03*
X-0060216D03*
X-0061216D03*
X-0062216D03*
X-0069073Y0070360D03*
X-0068073D03*
X-0067073D03*
X-0073009D03*
X-0072009D03*
X-0071009D03*
X-0058050Y0049496D03*
X-0057050D03*
X-0056050D03*
X-0062380D03*
X-0061380D03*
X-0060380D03*
X-0065530Y0051177D03*
G54D27*
X-0066530D03*
G54D28*
X-0075416Y0049300D03*
X-0077416D03*
X-0075871Y0066392D03*
Y0068392D03*
X-0078871D03*
Y0066392D03*
X-0051964Y0055901D03*
Y0053901D03*
X-0080702Y0051177D03*
Y0053177D03*
X-0074129Y0052238D03*
X-0072554Y0057988D03*
G54D29*
X-0074129D03*
X-0072554Y0052238D03*
G54D30*
X-0070666Y0052358D03*
X-0050887Y0058400D03*
G54D31*
X-0054720Y0053539D03*
X-0055890D03*
X-0054216Y0069200D03*
X-0055386D03*
X-0054316Y0067100D03*
X-0055486D03*
X-0068104Y0055507D03*
X-0066934D03*
X-0065349D03*
X-0064179D03*
X-0075516Y0064000D03*
X-0076686D03*
X-0066530Y0049208D03*
X-0065360D03*
G54D32*
X-0053016Y0061200D03*
Y0060030D03*
G54D33*
X-0076916Y0052100D03*
Y0053100D03*
Y0054100D03*
G54D34*
X-0072216Y0063200D03*
X-0071216D03*
X-0070216D03*
X-0069216D03*
X-0068216D03*
X-0067216D03*
X-0066216D03*
X-0065216D03*
X-0064216D03*
X-0063216D03*
X-0062216D03*
X-0061216D03*
X-0060216D03*
Y0066200D03*
X-0061216D03*
X-0062216D03*
X-0063216D03*
X-0064216D03*
X-0065216D03*
X-0066216D03*
X-0067216D03*
X-0068216D03*
X-0069216D03*
X-0070216D03*
X-0071216D03*
X-0072216D03*
X-0073216D03*
G54D35*
Y0063200D03*
M02*
