*
G04 Mass Parameters ***
*
G04 Image ***
*
%INC:\USERS\ELEK2\DOWNLOADS\LAYOUT_DEFINITIVO\LAYOUT2\PROYECTO_ROBOT_AIMAR_AXIER_JOKIN_BUENO3.TOP*%
%ICAS*%
%MOIN*%
%IPPOS*%
%ASAXBY*%
G74*%FSLAN2X34Y34*%
*
G04 Aperture Definitions ***
*
%ADD10C,0.2362*%
%ADD11C,0.0984*%
%ADD12C,0.0787*%
%ADD13R,0.0787X0.0787*%
%ADD14C,0.1181*%
%ADD15R,0.1181X0.1181*%
%ADD16R,0.0984X0.0984*%
%ADD17C,0.0866*%
%ADD18C,0.0709*%
%ADD19R,0.0709X0.0709*%
%ADD20R,0.0790X0.1180*%
%ADD21C,0.0394*%
%ADD22C,0.0590*%
%ADD23C,0.0179*%
*
G04 Plot Data ***
*
G54D21*
G01X-0057082Y0053539D02*
Y0050783D01*
X-0075978Y0061412D02*
X-0078340D01*
X-0080702Y0057082D02*
Y0055507D01*
G54D22*
G01X-0079521Y0064168D02*
X-0081095Y0065742D01*
Y0068498D01*
X-0079521Y0070073D01*
X-0075190D01*
X-0073616Y0068498D01*
X-0050389D01*
X-0049602Y0067711D01*
Y0051964D01*
X-0050783Y0050783D01*
X-0055901D01*
X-0060625D02*
X-0062593Y0052751D01*
X-0067317D01*
X-0069285Y0054720D01*
X-0057082Y0050783D02*
X-0060625D01*
X-0055901D02*
X-0060625D01*
G54D23*
G01X-0053534Y0045678D02*
X-0053407Y0045551D01*
X-0053153D01*
X-0053026Y0045678D01*
Y0045805D01*
X-0053280Y0046059D01*
X-0053026Y0046313D01*
X-0053534D01*
X-0053955Y0045551D02*
X-0054209D01*
X-0054082D02*
Y0046313D01*
X-0054209Y0046186D01*
X-0055075Y0045551D02*
X-0055202Y0045678D01*
X-0055266Y0045805D01*
Y0046059D01*
X-0055202Y0046186D01*
X-0055075Y0046313D01*
X-0054948D01*
X-0054821Y0046186D01*
X-0054757Y0046059D01*
Y0045805D01*
X-0054821Y0045678D01*
X-0054948Y0045551D01*
X-0055075D01*
X-0055686D02*
X-0056195D01*
X-0055686Y0046059D01*
Y0046186D01*
X-0055750Y0046313D01*
X-0056131D01*
X-0056195Y0046186D01*
X-0057831Y0046313D02*
X-0058212Y0045551D01*
X-0059911D02*
X-0060419D01*
X-0059911Y0046059D01*
Y0046186D01*
X-0059975Y0046313D01*
X-0060356D01*
X-0060419Y0046186D01*
X-0060840Y0045551D02*
X-0061094D01*
X-0060967D02*
Y0046313D01*
X-0061094Y0046186D01*
X-0061960Y0045551D02*
X-0062087Y0045678D01*
X-0062151Y0045805D01*
Y0046059D01*
X-0062087Y0046186D01*
X-0061960Y0046313D01*
X-0061833D01*
X-0061706Y0046186D01*
X-0061642Y0046059D01*
Y0045805D01*
X-0061706Y0045678D01*
X-0061833Y0045551D01*
X-0061960D01*
X-0062571D02*
X-0063080D01*
X-0062571Y0046059D01*
Y0046186D01*
X-0062635Y0046313D01*
X-0063016D01*
X-0063080Y0046186D01*
X-0064716D02*
X-0064779Y0046313D01*
X-0065160D01*
X-0065224Y0046186D01*
Y0046059D01*
X-0065160Y0045932D01*
X-0064779D01*
X-0064716Y0045805D01*
Y0045678D01*
X-0064779Y0045551D01*
X-0065160D01*
X-0065224Y0045678D01*
X-0065645Y0046313D02*
Y0045551D01*
X-0065772Y0045678D01*
X-0066026Y0046186D01*
X-0066153Y0046313D01*
Y0045551D01*
X-0067019D02*
X-0067082Y0045678D01*
Y0046186D01*
X-0067019Y0046313D01*
X-0066638D01*
X-0066574Y0046186D01*
Y0045678D01*
X-0066638Y0045551D01*
X-0067019D01*
X-0067503D02*
X-0067757D01*
X-0067630D02*
Y0046313D01*
X-0067503D02*
X-0067757D01*
X-0068559Y0045551D02*
Y0046313D01*
X-0068305D02*
X-0068813D01*
X-0069234D02*
Y0045678D01*
X-0069298Y0045551D01*
X-0069679D01*
X-0069743Y0045678D01*
Y0046313D01*
X-0070163Y0045551D02*
X-0070608D01*
Y0046313D01*
X-0071474Y0045551D02*
X-0071537Y0045678D01*
Y0046186D01*
X-0071474Y0046313D01*
X-0071093D01*
X-0071029Y0046186D01*
Y0045678D01*
X-0071093Y0045551D01*
X-0071474D01*
X-0071958Y0046186D02*
X-0072022Y0046313D01*
X-0072403D01*
X-0072466Y0046186D01*
Y0046059D01*
X-0072403Y0045932D01*
X-0072022D01*
X-0071958Y0045805D01*
Y0045678D01*
X-0072022Y0045551D01*
X-0072403D01*
X-0072466Y0045678D01*
X-0074102D02*
X-0074166Y0045551D01*
X-0074547D01*
X-0074611Y0045678D01*
Y0046186D01*
X-0074547Y0046313D01*
X-0074166D01*
X-0074102Y0046186D01*
X-0075031Y0045551D02*
X-0075286D01*
X-0075158D02*
Y0046313D01*
X-0075031D02*
X-0075286D01*
X-0076088Y0045551D02*
Y0046313D01*
X-0075833D02*
X-0076342D01*
X-0077207Y0045551D02*
X-0077271Y0045678D01*
Y0046186D01*
X-0077207Y0046313D01*
X-0076826D01*
X-0076763Y0046186D01*
Y0045678D01*
X-0076826Y0045551D01*
X-0077207D01*
X-0078137D02*
Y0046313D01*
X-0078200Y0045551D02*
X-0077819D01*
X-0077692Y0045678D01*
Y0045805D01*
X-0077755Y0045932D01*
X-0078137D02*
X-0077755D01*
X-0077692Y0046059D01*
Y0046186D01*
X-0077819Y0046313D01*
X-0078200D01*
X-0079066Y0045551D02*
X-0079129Y0045678D01*
Y0046186D01*
X-0079066Y0046313D01*
X-0078685D01*
X-0078621Y0046186D01*
Y0045678D01*
X-0078685Y0045551D01*
X-0079066D01*
X-0079741Y0045932D02*
X-0079550Y0045551D01*
X-0080058Y0045932D02*
X-0079677D01*
X-0079550Y0046059D01*
Y0046186D01*
X-0079677Y0046313D01*
X-0080058D01*
Y0045551D01*
G54D10*
X-0048027Y0045665D03*
Y0073222D03*
X-0085032Y0045665D03*
Y0073222D03*
G54D11*
X-0055901Y0050783D03*
X-0060625D03*
X-0051964Y0068498D03*
X-0059254D03*
X-0068104D03*
X-0072041D03*
X-0079521Y0064168D03*
X-0057082Y0053539D03*
X-0069285Y0054720D03*
X-0075978Y0061412D03*
X-0080702Y0055507D03*
X-0069466Y0052358D03*
X-0068266D03*
X-0051987Y0058400D03*
X-0053087D03*
X-0058050Y0060837D03*
X-0060050D03*
X-0060656Y0058263D03*
X-0058656D03*
X-0066516Y0053800D03*
X-0064516D03*
X-0068466Y0049602D03*
X-0070466D03*
X-0072828Y0050783D03*
Y0048783D03*
G54D12*
X-0064168Y0061018D03*
X-0062168D03*
X-0051858Y0063593D03*
Y0064593D03*
Y0065593D03*
Y0066593D03*
Y0062593D03*
X-0059216Y0069900D03*
X-0060216D03*
X-0061216D03*
X-0062216D03*
X-0069073Y0070360D03*
X-0068073D03*
X-0067073D03*
X-0073009D03*
X-0072009D03*
X-0071009D03*
X-0058050Y0049496D03*
X-0057050D03*
X-0056050D03*
X-0062380D03*
X-0061380D03*
X-0060380D03*
X-0065530Y0051177D03*
G54D13*
X-0066530D03*
G54D14*
X-0075416Y0049300D03*
X-0077416D03*
X-0075871Y0066392D03*
Y0068392D03*
X-0078871D03*
Y0066392D03*
X-0051964Y0055901D03*
Y0053901D03*
X-0080702Y0051177D03*
Y0053177D03*
X-0074129Y0052238D03*
X-0072554Y0057988D03*
G54D15*
X-0074129D03*
X-0072554Y0052238D03*
G54D16*
X-0070666Y0052358D03*
X-0050887Y0058400D03*
G54D17*
X-0076916Y0052100D03*
Y0053100D03*
Y0054100D03*
G54D18*
X-0072216Y0063200D03*
X-0071216D03*
X-0070216D03*
X-0069216D03*
X-0068216D03*
X-0067216D03*
X-0066216D03*
X-0065216D03*
X-0064216D03*
X-0063216D03*
X-0062216D03*
X-0061216D03*
X-0060216D03*
Y0066200D03*
X-0061216D03*
X-0062216D03*
X-0063216D03*
X-0064216D03*
X-0065216D03*
X-0066216D03*
X-0067216D03*
X-0068216D03*
X-0069216D03*
X-0070216D03*
X-0071216D03*
X-0072216D03*
X-0073216D03*
G54D19*
Y0063200D03*
G54D20*
X-0078340Y0057082D03*
Y0061412D03*
X-0080702Y0057082D03*
Y0061412D03*
M02*
