*
G04 Mass Parameters ***
*
G04 Image ***
*
%INC:\USERS\ELEK2\DOWNLOADS\LAYOUT_DEFINITIVO\LAYOUT2\PROYECTO_ROBOT_AIMAR_AXIER_JOKIN_BUENO3.AST*%
%ICAS*%
%MOIN*%
%IPPOS*%
%ASAXBY*%
G74*%FSLAN2X34Y34*%
*
G04 Aperture Definitions ***
*
%ADD10C,0.2362*%
%ADD11C,0.0984*%
%ADD12C,0.0787*%
%ADD13R,0.0787X0.0787*%
%ADD14C,0.1181*%
%ADD15R,0.1181X0.1181*%
%ADD16R,0.0984X0.0984*%
%ADD17C,0.0866*%
%ADD18C,0.0709*%
%ADD19R,0.0709X0.0709*%
%ADD20R,0.0790X0.1180*%
%ADD21C,0.0394*%
%ADD22C,0.0590*%
%ADD23C,0.0179*%
%ADD24C,0.2362*%
%ADD25C,0.0984*%
%ADD26C,0.0787*%
%ADD27R,0.0787X0.0787*%
%ADD28C,0.1181*%
%ADD29R,0.1181X0.1181*%
%ADD30R,0.0984X0.0984*%
%ADD31R,0.0560X0.0920*%
%ADD32R,0.0920X0.0560*%
%ADD33C,0.0866*%
%ADD34C,0.0709*%
%ADD35R,0.0709X0.0709*%
%ADD36C,0.0100*%
%ADD37R,0.0790X0.1180*%
%ADD38C,0.0080*%
%ADD39C,0.0060*%
%ADD40C,0.0500*%
*
G04 Plot Data ***
*
G54D36*
G01X-0076724Y0051133D02*
X-0076808Y0051217D01*
X-0076849Y0051300D01*
Y0051467D01*
X-0076808Y0051550D01*
X-0076724Y0051633D01*
X-0076641D01*
X-0076558Y0051550D01*
X-0076516Y0051467D01*
Y0051300D01*
X-0076558Y0051217D01*
X-0076641Y0051133D01*
X-0076724D01*
X-0077091D02*
X-0077258D01*
X-0077174D02*
Y0051633D01*
X-0077258Y0051550D01*
X-0077874Y0051300D02*
Y0051217D01*
X-0077833Y0051133D01*
X-0077666D01*
X-0077624Y0051217D01*
Y0051633D01*
X-0077583D02*
X-0077749D01*
X-0085882Y0046887D02*
X-0086238D01*
X-0085882Y0047243D01*
Y0047332D01*
X-0085926Y0047421D01*
X-0086193D01*
X-0086238Y0047332D01*
X-0085971Y0074444D02*
X-0086149D01*
X-0086060D02*
Y0074977D01*
X-0086149Y0074889D01*
X-0048877Y0047065D02*
X-0049233D01*
X-0049055Y0047421D01*
X-0048966D01*
Y0046887D01*
X-0049233Y0074533D02*
X-0049144Y0074444D01*
X-0048966D01*
X-0048877Y0074533D01*
Y0074622D01*
X-0049055Y0074800D01*
X-0048877Y0074977D01*
X-0049233D01*
X-0049339Y0062171D02*
Y0061838D01*
X-0049172Y0062171D02*
X-0049422D01*
X-0049672Y0062046D01*
Y0061963D01*
X-0049422Y0061838D01*
X-0049172D01*
X-0049672Y0061596D02*
X-0049172D01*
X-0049256Y0061513D01*
X-0049589Y0061346D01*
X-0049672Y0061263D01*
X-0049172D01*
X-0049422Y0060896D02*
X-0049172Y0061021D01*
X-0049422Y0060688D02*
Y0060938D01*
X-0049506Y0061021D01*
X-0049589D01*
X-0049672Y0060938D01*
Y0060688D01*
X-0049172D01*
X-0049422Y0060363D02*
Y0060113D01*
X-0049172Y0060446D02*
Y0060113D01*
X-0049672D01*
Y0060446D01*
X-0049172Y0059705D02*
X-0049672D01*
Y0059871D02*
Y0059538D01*
Y0059296D02*
X-0049172D01*
X-0049256Y0059213D01*
X-0049589Y0059046D01*
X-0049672Y0058963D01*
X-0049172D01*
Y0058721D02*
Y0058555D01*
Y0058638D02*
X-0049672D01*
Y0058721D02*
Y0058555D01*
X-0049172Y0058230D02*
Y0057938D01*
X-0049672D01*
X-0049339Y0056934D02*
Y0056601D01*
X-0049172Y0056934D02*
X-0049422D01*
X-0049672Y0056809D01*
Y0056726D01*
X-0049422Y0056601D01*
X-0049172D01*
Y0056192D02*
X-0049672D01*
Y0056359D02*
Y0056026D01*
X-0049422Y0055701D02*
Y0055451D01*
X-0049172Y0055784D02*
Y0055451D01*
X-0049672D01*
Y0055784D01*
X-0049172Y0055209D02*
Y0054917D01*
X-0049672D01*
X-0049422Y0054509D02*
Y0054676D01*
X-0049256D01*
X-0049172Y0054634D01*
Y0054384D01*
X-0049256Y0054342D01*
X-0049589D01*
X-0049672Y0054384D01*
Y0054634D01*
X-0049589Y0054676D01*
X-0049422Y0054017D02*
Y0053767D01*
X-0049172Y0054101D02*
Y0053767D01*
X-0049672D01*
Y0054101D01*
X-0049422Y0053401D02*
X-0049172Y0053526D01*
X-0049422Y0053192D02*
Y0053442D01*
X-0049506Y0053526D01*
X-0049589D01*
X-0049672Y0053442D01*
Y0053192D01*
X-0049172D01*
X-0054047Y0054267D02*
Y0054017D01*
X-0054131Y0053976D01*
X-0054214D01*
X-0054297Y0054017D01*
Y0054267D01*
X-0054214Y0054309D01*
X-0054131D01*
X-0053797Y0054142D01*
X-0053964Y0053442D02*
X-0053881D01*
X-0053797Y0053484D01*
Y0053651D01*
X-0053881Y0053692D01*
X-0054297D01*
Y0053734D02*
Y0053567D01*
X-0076813Y0061358D02*
X-0077063Y0061233D01*
X-0076813Y0061567D02*
Y0061317D01*
X-0076730Y0061233D01*
X-0076646D01*
X-0076563Y0061317D01*
Y0061567D01*
X-0077063D01*
Y0062100D02*
X-0076980Y0062142D01*
X-0076646D01*
X-0076563Y0062100D01*
Y0061850D01*
X-0076646Y0061808D01*
X-0076980D01*
X-0077063Y0061850D01*
Y0062100D01*
Y0062675D02*
X-0076563D01*
X-0077063Y0062717D02*
Y0062467D01*
X-0076896Y0062383D01*
X-0076730D01*
X-0076563Y0062467D01*
Y0062717D01*
X-0076896Y0062958D02*
Y0063292D01*
X-0077063Y0062958D02*
X-0076813D01*
X-0076563Y0063083D01*
Y0063167D01*
X-0076813Y0063292D01*
X-0077063D01*
X-0076646Y0063533D02*
X-0076563Y0063575D01*
Y0063825D01*
X-0076646Y0063867D01*
X-0076730D01*
X-0076813Y0063825D01*
Y0063575D01*
X-0076896Y0063533D01*
X-0076980D01*
X-0077063Y0063575D01*
Y0063825D01*
X-0076980Y0063867D01*
X-0077063Y0064108D02*
Y0064400D01*
X-0076563D01*
Y0064642D02*
X-0076980D01*
X-0077063Y0064683D01*
Y0064933D01*
X-0076980Y0064975D01*
X-0076563D01*
X-0076813Y0065550D02*
Y0065300D01*
X-0076730Y0065217D01*
X-0076646D01*
X-0076563Y0065300D01*
Y0065550D01*
X-0077063D01*
X-0076188Y0064692D02*
Y0065025D01*
X-0075855Y0064692D01*
X-0075771D01*
X-0075688Y0064733D01*
Y0064983D01*
X-0075771Y0065025D01*
Y0065267D02*
X-0075688Y0065308D01*
Y0065558D01*
X-0075771Y0065600D01*
X-0075855D01*
X-0075938Y0065558D01*
Y0065308D01*
X-0076021Y0065267D01*
X-0076105D01*
X-0076188Y0065308D01*
Y0065558D01*
X-0076105Y0065600D01*
X-0077454Y0067239D02*
X-0077538Y0067198D01*
Y0066948D01*
X-0077454Y0066906D01*
X-0077371D01*
X-0077288Y0066948D01*
Y0067198D01*
X-0077204Y0067239D01*
X-0077121D01*
X-0077038Y0067198D01*
Y0066948D01*
X-0077121Y0066906D01*
X-0077204Y0066664D02*
Y0066331D01*
X-0077038Y0066664D02*
X-0077288D01*
X-0077538Y0066539D01*
Y0066456D01*
X-0077288Y0066331D01*
X-0077038D01*
Y0066089D02*
Y0065923D01*
Y0066006D02*
X-0077538D01*
Y0066089D02*
Y0065923D01*
X-0077288Y0065473D02*
X-0077038Y0065598D01*
X-0077288Y0065264D02*
Y0065514D01*
X-0077371Y0065598D01*
X-0077454D01*
X-0077538Y0065514D01*
Y0065264D01*
X-0077038D01*
X-0077288Y0064939D02*
Y0064689D01*
X-0077038Y0065023D02*
Y0064689D01*
X-0077538D01*
Y0065023D01*
X-0077038Y0064281D02*
X-0077538D01*
Y0064448D02*
Y0064114D01*
X-0077204Y0063873D02*
Y0063539D01*
X-0077038Y0063873D02*
X-0077288D01*
X-0077538Y0063748D01*
Y0063664D01*
X-0077288Y0063539D01*
X-0077038D01*
Y0063006D02*
X-0077538D01*
X-0077038Y0062964D02*
Y0063214D01*
X-0077121Y0063298D01*
X-0077204D01*
X-0077288Y0063256D01*
Y0063006D02*
Y0063256D01*
X-0077371Y0063298D01*
X-0077454D01*
X-0077538Y0063214D01*
Y0062964D01*
X-0077288Y0061835D02*
X-0077038Y0061960D01*
X-0077288Y0061627D02*
Y0061877D01*
X-0077371Y0061960D01*
X-0077454D01*
X-0077538Y0061877D01*
Y0061627D01*
X-0077038D01*
Y0061093D02*
X-0077121Y0061052D01*
X-0077454D01*
X-0077538Y0061093D01*
Y0061343D01*
X-0077454Y0061385D01*
X-0077121D01*
X-0077038Y0061343D01*
Y0061093D01*
Y0060643D02*
X-0077538D01*
Y0060810D02*
Y0060477D01*
X-0077121Y0060235D02*
X-0077038Y0060193D01*
Y0059943D01*
X-0077121Y0059902D01*
X-0077454D01*
X-0077538Y0059943D01*
Y0060193D01*
X-0077454Y0060235D01*
X-0077288Y0059577D02*
Y0059327D01*
X-0077038Y0059660D02*
Y0059327D01*
X-0077538D01*
Y0059660D01*
Y0059085D02*
X-0077038D01*
X-0077121Y0059002D01*
X-0077454Y0058835D01*
X-0077538Y0058752D01*
X-0077038D01*
Y0058218D02*
X-0077121Y0058177D01*
X-0077454D01*
X-0077538Y0058218D01*
Y0058468D01*
X-0077454Y0058510D01*
X-0077121D01*
X-0077038Y0058468D01*
Y0058218D01*
X-0077121Y0057935D02*
X-0077038Y0057893D01*
Y0057643D01*
X-0077121Y0057602D01*
X-0077454D01*
X-0077538Y0057643D01*
Y0057893D01*
X-0077454Y0057935D01*
X-0079710Y0058582D02*
Y0058415D01*
Y0058499D02*
X-0080210D01*
X-0080127Y0058415D01*
X-0079710Y0058090D02*
X-0080210Y0057840D01*
Y0058090D02*
X-0079710Y0057840D01*
X-0057581Y0073318D02*
X-0057623Y0073402D01*
Y0073735D01*
X-0057581Y0073818D01*
X-0057331D01*
X-0057289Y0073735D01*
Y0073402D01*
X-0057331Y0073318D01*
X-0057581D01*
X-0057864Y0073568D02*
X-0058198D01*
X-0057864Y0073318D02*
Y0073818D01*
X-0058198Y0073318D02*
Y0073818D01*
X-0058439Y0073402D02*
X-0058481Y0073318D01*
X-0058731D01*
X-0058773Y0073402D01*
Y0073735D01*
X-0058731Y0073818D01*
X-0058481D01*
X-0058439Y0073735D01*
X-0059098Y0073568D02*
X-0059348D01*
X-0059014Y0073318D02*
X-0059348D01*
Y0073818D01*
X-0059014D01*
X-0059714Y0073568D02*
X-0059589Y0073318D01*
X-0059923Y0073568D02*
X-0059673D01*
X-0059589Y0073652D01*
Y0073735D01*
X-0059673Y0073818D01*
X-0059923D01*
Y0073318D01*
X-0060248Y0073568D02*
X-0060498D01*
X-0060164Y0073318D02*
X-0060498D01*
Y0073818D01*
X-0060164D01*
X-0061031Y0073318D02*
Y0073818D01*
X-0061073Y0073318D02*
X-0060823D01*
X-0060739Y0073485D01*
Y0073652D01*
X-0060823Y0073818D01*
X-0061073D01*
X-0062202Y0073568D02*
X-0062077Y0073318D01*
X-0062410Y0073568D02*
X-0062160D01*
X-0062077Y0073652D01*
Y0073735D01*
X-0062160Y0073818D01*
X-0062410D01*
Y0073318D01*
X-0062735Y0073568D02*
X-0062985D01*
X-0062652Y0073318D02*
X-0062985D01*
Y0073818D01*
X-0062652D01*
X-0063560Y0073568D02*
X-0063310D01*
X-0063227Y0073652D01*
Y0073735D01*
X-0063310Y0073818D01*
X-0063560D01*
Y0073318D01*
X-0063802D02*
Y0073818D01*
X-0063885Y0073735D01*
X-0063968Y0073568D01*
X-0064052Y0073735D01*
X-0064135Y0073818D01*
Y0073318D01*
X-0064377Y0073818D02*
Y0073402D01*
X-0064418Y0073318D01*
X-0064668D01*
X-0064710Y0073402D01*
Y0073818D01*
X-0065243Y0073318D02*
Y0073818D01*
X-0065285Y0073318D02*
X-0065035D01*
X-0064952Y0073402D01*
Y0073485D01*
X-0064993Y0073568D01*
X-0065243D02*
X-0064993D01*
X-0064952Y0073652D01*
Y0073735D01*
X-0065035Y0073818D01*
X-0065285D01*
X-0066289Y0073485D02*
X-0066623D01*
X-0066289Y0073318D02*
Y0073568D01*
X-0066414Y0073818D01*
X-0066498D01*
X-0066623Y0073568D01*
Y0073318D01*
X-0067031D02*
Y0073818D01*
X-0066864D02*
X-0067198D01*
X-0067523Y0073568D02*
X-0067773D01*
X-0067439Y0073318D02*
X-0067773D01*
Y0073818D01*
X-0067439D01*
X-0068014Y0073318D02*
X-0068306D01*
Y0073818D01*
X-0068714Y0073568D02*
X-0068548D01*
Y0073402D01*
X-0068589Y0073318D01*
X-0068839D01*
X-0068881Y0073402D01*
Y0073735D01*
X-0068839Y0073818D01*
X-0068589D01*
X-0068548Y0073735D01*
X-0069206Y0073568D02*
X-0069456D01*
X-0069123Y0073318D02*
X-0069456D01*
Y0073818D01*
X-0069123D01*
X-0069823Y0073568D02*
X-0069698Y0073318D01*
X-0070031Y0073568D02*
X-0069781D01*
X-0069698Y0073652D01*
Y0073735D01*
X-0069781Y0073818D01*
X-0070031D01*
Y0073318D01*
X-0069456Y0074693D02*
X-0069206D01*
X-0069164Y0074610D01*
Y0074527D01*
X-0069206Y0074443D01*
X-0069456D01*
X-0069498Y0074527D01*
Y0074610D01*
X-0069331Y0074943D01*
X-0070031Y0074610D02*
Y0074527D01*
X-0069989Y0074443D01*
X-0069823D01*
X-0069781Y0074527D01*
Y0074943D01*
X-0069739D02*
X-0069906D01*
X-0060576Y0073318D02*
X-0060618Y0073402D01*
Y0073735D01*
X-0060576Y0073818D01*
X-0060326D01*
X-0060284Y0073735D01*
Y0073402D01*
X-0060326Y0073318D01*
X-0060576D01*
X-0061151D02*
Y0073818D01*
X-0061193Y0073318D02*
X-0060943D01*
X-0060859Y0073485D01*
Y0073652D01*
X-0060943Y0073818D01*
X-0061193D01*
X-0061559Y0073568D02*
X-0061434Y0073318D01*
X-0061768Y0073568D02*
X-0061518D01*
X-0061434Y0073652D01*
Y0073735D01*
X-0061518Y0073818D01*
X-0061768D01*
Y0073318D01*
X-0062093Y0073568D02*
X-0062343D01*
X-0062009Y0073318D02*
X-0062343D01*
Y0073818D01*
X-0062009D01*
X-0062584Y0073318D02*
X-0062751D01*
X-0062668D02*
Y0073818D01*
X-0062584D02*
X-0062751D01*
X-0063076D02*
Y0073402D01*
X-0063118Y0073318D01*
X-0063368D01*
X-0063409Y0073402D01*
Y0073818D01*
X-0063818Y0073485D02*
X-0063651Y0073318D01*
X-0063984Y0073402D02*
X-0063943Y0073318D01*
X-0063776D01*
X-0063734Y0073402D01*
X-0063651Y0073485D01*
Y0073735D01*
X-0063693Y0073818D01*
X-0063943D01*
X-0063984Y0073735D01*
Y0073402D01*
X-0064226Y0073318D02*
X-0064476D01*
X-0064226Y0073818D01*
X-0064476D01*
X-0064759Y0073318D02*
X-0064926D01*
X-0064843D02*
Y0073818D01*
X-0064759D02*
X-0064926D01*
X-0066138Y0073568D02*
X-0066013Y0073318D01*
X-0066347Y0073568D02*
X-0066097D01*
X-0066013Y0073652D01*
Y0073735D01*
X-0066097Y0073818D01*
X-0066347D01*
Y0073318D01*
X-0066672Y0073568D02*
X-0066922D01*
X-0066588Y0073318D02*
X-0066922D01*
Y0073818D01*
X-0066588D01*
X-0067497Y0073568D02*
X-0067247D01*
X-0067163Y0073652D01*
Y0073735D01*
X-0067247Y0073818D01*
X-0067497D01*
Y0073318D01*
X-0067738D02*
Y0073818D01*
X-0067822Y0073735D01*
X-0067905Y0073568D01*
X-0067988Y0073735D01*
X-0068072Y0073818D01*
Y0073318D01*
X-0068313Y0073818D02*
Y0073402D01*
X-0068355Y0073318D01*
X-0068605D01*
X-0068647Y0073402D01*
Y0073818D01*
X-0069180Y0073318D02*
Y0073818D01*
X-0069222Y0073318D02*
X-0068972D01*
X-0068888Y0073402D01*
Y0073485D01*
X-0068930Y0073568D01*
X-0069180D02*
X-0068930D01*
X-0068888Y0073652D01*
Y0073735D01*
X-0068972Y0073818D01*
X-0069222D01*
X-0070226Y0073485D02*
X-0070559D01*
X-0070226Y0073318D02*
Y0073568D01*
X-0070351Y0073818D01*
X-0070434D01*
X-0070559Y0073568D01*
Y0073318D01*
X-0070968D02*
Y0073818D01*
X-0070801D02*
X-0071134D01*
X-0071459Y0073568D02*
X-0071709D01*
X-0071376Y0073318D02*
X-0071709D01*
Y0073818D01*
X-0071376D01*
X-0071951Y0073318D02*
X-0072243D01*
Y0073818D01*
X-0072651Y0073568D02*
X-0072484D01*
Y0073402D01*
X-0072526Y0073318D01*
X-0072776D01*
X-0072818Y0073402D01*
Y0073735D01*
X-0072776Y0073818D01*
X-0072526D01*
X-0072484Y0073735D01*
X-0073143Y0073568D02*
X-0073393D01*
X-0073059Y0073318D02*
X-0073393D01*
Y0073818D01*
X-0073059D01*
X-0073759Y0073568D02*
X-0073634Y0073318D01*
X-0073968Y0073568D02*
X-0073718D01*
X-0073634Y0073652D01*
Y0073735D01*
X-0073718Y0073818D01*
X-0073968D01*
Y0073318D01*
X-0073434Y0074527D02*
X-0073393Y0074443D01*
X-0073143D01*
X-0073101Y0074527D01*
Y0074693D01*
X-0073184Y0074777D01*
X-0073434D01*
Y0074943D01*
X-0073101D01*
X-0073968Y0074610D02*
Y0074527D01*
X-0073926Y0074443D01*
X-0073759D01*
X-0073718Y0074527D01*
Y0074943D01*
X-0073676D02*
X-0073843D01*
X-0083327Y0045439D02*
Y0045772D01*
X-0083493Y0045439D02*
X-0083243D01*
X-0082993Y0045564D01*
Y0045647D01*
X-0083243Y0045772D01*
X-0083493D01*
Y0046014D02*
Y0046181D01*
Y0046097D02*
X-0082993D01*
Y0046014D02*
Y0046181D01*
X-0083243Y0046631D02*
X-0083493Y0046506D01*
X-0083243Y0046839D02*
Y0046589D01*
X-0083160Y0046506D01*
X-0083077D01*
X-0082993Y0046589D01*
Y0046839D01*
X-0083493D01*
X-0083243Y0047164D02*
Y0047414D01*
X-0083493Y0047081D02*
Y0047414D01*
X-0082993D01*
Y0047081D01*
X-0083493Y0047822D02*
X-0082993D01*
Y0047656D02*
Y0047989D01*
X-0083327Y0048231D02*
Y0048564D01*
X-0083493Y0048231D02*
X-0083243D01*
X-0082993Y0048356D01*
Y0048439D01*
X-0083243Y0048564D01*
X-0083493D01*
Y0049097D02*
X-0082993D01*
X-0083493Y0049139D02*
Y0048889D01*
X-0083410Y0048806D01*
X-0083327D01*
X-0083243Y0048847D01*
Y0049097D02*
Y0048847D01*
X-0083160Y0048806D01*
X-0083077D01*
X-0082993Y0048889D01*
Y0049139D01*
X-0083327Y0050143D02*
Y0050477D01*
X-0083493Y0050143D02*
X-0083243D01*
X-0082993Y0050268D01*
Y0050352D01*
X-0083243Y0050477D01*
X-0083493D01*
Y0050885D02*
X-0082993D01*
Y0050718D02*
Y0051052D01*
X-0083243Y0051377D02*
Y0051627D01*
X-0083493Y0051293D02*
Y0051627D01*
X-0082993D01*
Y0051293D01*
X-0083493Y0051868D02*
Y0052160D01*
X-0082993D01*
X-0083243Y0052568D02*
Y0052402D01*
X-0083410D01*
X-0083493Y0052443D01*
Y0052693D01*
X-0083410Y0052735D01*
X-0083077D01*
X-0082993Y0052693D01*
Y0052443D01*
X-0083077Y0052402D01*
X-0083243Y0053060D02*
Y0053310D01*
X-0083493Y0052977D02*
Y0053310D01*
X-0082993D01*
Y0052977D01*
X-0083243Y0053677D02*
X-0083493Y0053552D01*
X-0083243Y0053885D02*
Y0053635D01*
X-0083160Y0053552D01*
X-0083077D01*
X-0082993Y0053635D01*
Y0053885D01*
X-0083493D01*
X-0078868Y0052852D02*
Y0053018D01*
Y0052935D02*
X-0078368D01*
X-0078452Y0053018D01*
X-0078702Y0053635D02*
X-0078785D01*
X-0078868Y0053593D01*
Y0053427D01*
X-0078785Y0053385D01*
X-0078368D01*
Y0053343D02*
Y0053510D01*
X-0071137Y0066942D02*
Y0066442D01*
X-0071303D02*
X-0070970D01*
X-0070437Y0066942D02*
X-0070395Y0066858D01*
Y0066525D01*
X-0070437Y0066442D01*
X-0070687D01*
X-0070728Y0066525D01*
Y0066858D01*
X-0070687Y0066942D01*
X-0070437D01*
X-0069862D02*
X-0069820Y0066858D01*
Y0066525D01*
X-0069862Y0066442D01*
X-0070112D01*
X-0070153Y0066525D01*
Y0066858D01*
X-0070112Y0066942D01*
X-0069862D01*
X-0069578Y0066692D02*
X-0069245D01*
X-0069578Y0066942D02*
Y0066442D01*
X-0069245Y0066942D02*
Y0066442D01*
X-0068837Y0066942D02*
Y0066442D01*
X-0069003D02*
X-0068670D01*
X-0068345Y0066692D02*
X-0068095D01*
X-0068428Y0066942D02*
X-0068095D01*
Y0066442D01*
X-0068428D01*
X-0067853D02*
Y0066858D01*
X-0067812Y0066942D01*
X-0067562D01*
X-0067520Y0066858D01*
Y0066442D01*
X-0067278Y0066942D02*
X-0066987D01*
Y0066442D01*
X-0066453Y0066942D02*
Y0066442D01*
X-0066412Y0066942D02*
X-0066662D01*
X-0066745Y0066858D01*
Y0066775D01*
X-0066703Y0066692D01*
X-0066453D02*
X-0066703D01*
X-0066745Y0066608D01*
Y0066525D01*
X-0066662Y0066442D01*
X-0066412D01*
X-0066170D02*
X-0065920Y0066942D01*
X-0065512Y0066692D02*
X-0065637Y0066942D01*
X-0065303Y0066692D02*
X-0065553D01*
X-0065637Y0066608D01*
Y0066525D01*
X-0065553Y0066442D01*
X-0065303D01*
Y0066942D01*
X-0065062Y0066775D02*
X-0064728D01*
X-0065062Y0066942D02*
Y0066692D01*
X-0064937Y0066442D01*
X-0064853D01*
X-0064728Y0066692D01*
Y0066942D01*
X-0064487Y0066442D02*
Y0066942D01*
X-0064403Y0066858D01*
X-0064237Y0066525D01*
X-0064153Y0066442D01*
Y0066942D01*
X-0063620D02*
X-0063578Y0066858D01*
Y0066525D01*
X-0063620Y0066442D01*
X-0063870D01*
X-0063912Y0066525D01*
Y0066858D01*
X-0063870Y0066942D01*
X-0063620D01*
X-0063337Y0066525D02*
X-0063295Y0066442D01*
X-0063045D01*
X-0063003Y0066525D01*
Y0066608D01*
X-0063045Y0066692D01*
X-0063295D01*
X-0063337Y0066775D01*
Y0066858D01*
X-0063295Y0066942D01*
X-0063045D01*
X-0063003Y0066858D01*
X-0061999Y0066775D02*
X-0061666D01*
X-0061999Y0066942D02*
Y0066692D01*
X-0061874Y0066442D01*
X-0061791D01*
X-0061666Y0066692D01*
Y0066942D01*
X-0061258D02*
Y0066442D01*
X-0061424D02*
X-0061091D01*
X-0060766Y0066692D02*
X-0060516D01*
X-0060849Y0066942D02*
X-0060516D01*
Y0066442D01*
X-0060849D01*
X-0060274Y0066942D02*
X-0059983D01*
Y0066442D01*
X-0059574Y0066692D02*
X-0059741D01*
Y0066858D01*
X-0059699Y0066942D01*
X-0059449D01*
X-0059408Y0066858D01*
Y0066525D01*
X-0059449Y0066442D01*
X-0059699D01*
X-0059741Y0066525D01*
X-0059083Y0066692D02*
X-0058833D01*
X-0059166Y0066942D02*
X-0058833D01*
Y0066442D01*
X-0059166D01*
X-0058466Y0066692D02*
X-0058591Y0066942D01*
X-0058258Y0066692D02*
X-0058508D01*
X-0058591Y0066608D01*
Y0066525D01*
X-0058508Y0066442D01*
X-0058258D01*
Y0066942D01*
X-0058874Y0065817D02*
X-0059124Y0065317D01*
X-0058791D01*
X-0058258Y0065650D02*
Y0065733D01*
X-0058299Y0065817D01*
X-0058466D01*
X-0058508Y0065733D01*
Y0065317D01*
X-0058549D02*
X-0058383D01*
X-0056172Y0063477D02*
X-0056422D01*
X-0056172Y0063977D01*
X-0056422D01*
X-0056705Y0063727D02*
X-0057038D01*
X-0056705Y0063477D02*
Y0063977D01*
X-0057038Y0063477D02*
Y0063977D01*
X-0057280Y0063477D02*
Y0063977D01*
X-0057363Y0063893D01*
X-0057447Y0063727D01*
X-0057530Y0063893D01*
X-0057613Y0063977D01*
Y0063477D01*
X-0058618Y0063643D02*
X-0058951D01*
X-0058784Y0063977D01*
X-0058701D01*
Y0063477D01*
X-0060718D02*
X-0061009D01*
Y0063977D01*
X-0061251Y0063643D02*
X-0061584D01*
X-0061251Y0063477D02*
Y0063727D01*
X-0061376Y0063977D01*
X-0061459D01*
X-0061584Y0063727D01*
Y0063477D01*
X-0061993D02*
Y0063977D01*
X-0061826D02*
X-0062159D01*
X-0062401Y0063893D02*
X-0062443Y0063977D01*
X-0062693D01*
X-0062734Y0063893D01*
Y0063810D01*
X-0062693Y0063727D01*
X-0062443D01*
X-0062401Y0063643D01*
Y0063560D01*
X-0062443Y0063477D01*
X-0062693D01*
X-0062734Y0063560D01*
X-0062976Y0063477D02*
X-0063143D01*
X-0063059D02*
Y0063977D01*
X-0062976D02*
X-0063143D01*
X-0063593Y0063727D02*
X-0063468Y0063477D01*
X-0063801Y0063727D02*
X-0063551D01*
X-0063468Y0063810D01*
Y0063893D01*
X-0063551Y0063977D01*
X-0063801D01*
Y0063477D01*
X-0064043Y0063560D02*
X-0064084Y0063477D01*
X-0064334D01*
X-0064376Y0063560D01*
Y0063893D01*
X-0064334Y0063977D01*
X-0064084D01*
X-0064043Y0063893D01*
X-0063551Y0064102D02*
X-0063718D01*
X-0063634D02*
Y0064602D01*
X-0063718Y0064518D01*
X-0064376Y0064352D02*
X-0064126D01*
X-0064043Y0064435D01*
Y0064518D01*
X-0064126Y0064602D01*
X-0064376D01*
Y0064102D01*
X-0075374Y0057767D02*
X-0075124Y0057892D01*
X-0075374Y0057558D02*
Y0057808D01*
X-0075458Y0057892D01*
X-0075541D01*
X-0075624Y0057808D01*
Y0057558D01*
X-0075124D01*
Y0057025D02*
X-0075208Y0056983D01*
X-0075541D01*
X-0075624Y0057025D01*
Y0057275D01*
X-0075541Y0057317D01*
X-0075208D01*
X-0075124Y0057275D01*
Y0057025D01*
Y0056575D02*
X-0075624D01*
Y0056742D02*
Y0056408D01*
X-0075374Y0055833D02*
Y0056083D01*
X-0075458Y0056167D01*
X-0075541D01*
X-0075624Y0056083D01*
Y0055833D01*
X-0075124D01*
X-0075624Y0055592D02*
X-0075208D01*
X-0075124Y0055550D01*
Y0055300D01*
X-0075208Y0055258D01*
X-0075624D01*
X-0075374Y0054892D02*
X-0075124Y0055017D01*
X-0075374Y0054683D02*
Y0054933D01*
X-0075458Y0055017D01*
X-0075541D01*
X-0075624Y0054933D01*
Y0054683D01*
X-0075124D01*
X-0075374Y0054317D02*
X-0075124Y0054442D01*
X-0075374Y0054108D02*
Y0054358D01*
X-0075458Y0054442D01*
X-0075541D01*
X-0075624Y0054358D01*
Y0054108D01*
X-0075124D01*
X-0075374Y0053783D02*
Y0053533D01*
X-0075124Y0053867D02*
Y0053533D01*
X-0075624D01*
Y0053867D01*
X-0075124Y0053125D02*
X-0075624D01*
Y0053292D02*
Y0052958D01*
Y0052717D02*
X-0075124D01*
X-0075208Y0052633D01*
X-0075541Y0052467D01*
X-0075624Y0052383D01*
X-0075124D01*
Y0052142D02*
Y0051975D01*
Y0052058D02*
X-0075624D01*
Y0052142D02*
Y0051975D01*
X-0074499Y0052717D02*
Y0052550D01*
Y0052633D02*
X-0074999D01*
X-0074916Y0052550D01*
Y0052225D02*
X-0074999Y0052183D01*
Y0051933D01*
X-0074916Y0051892D01*
X-0074833D01*
X-0074749Y0051933D01*
Y0052183D01*
X-0074666Y0052225D01*
X-0074583D01*
X-0074499Y0052183D01*
Y0051933D01*
X-0074583Y0051892D01*
X-0056191Y0063460D02*
X-0056274Y0063501D01*
X-0056358D01*
X-0056441Y0063460D01*
Y0063210D01*
X-0056358Y0063168D01*
X-0056274D01*
X-0056191Y0063210D01*
Y0063460D01*
X-0056108Y0063501D01*
X-0056024D01*
X-0055941Y0063460D01*
Y0063210D01*
X-0056024Y0063168D01*
X-0056108D01*
X-0056191Y0063210D01*
X-0056108Y0062635D02*
X-0056024D01*
X-0055941Y0062676D01*
Y0062843D01*
X-0056024Y0062885D01*
X-0056441D01*
Y0062926D02*
Y0062760D01*
X-0055066Y0069889D02*
X-0054816Y0070014D01*
X-0055066Y0069680D02*
Y0069930D01*
X-0055149Y0070014D01*
X-0055233D01*
X-0055316Y0069930D01*
Y0069680D01*
X-0054816D01*
X-0054983Y0069439D02*
Y0069105D01*
X-0054816Y0069439D02*
X-0055066D01*
X-0055316Y0069314D01*
Y0069230D01*
X-0055066Y0069105D01*
X-0054816D01*
X-0055316Y0068864D02*
X-0054816D01*
X-0054899Y0068780D01*
X-0055233Y0068614D01*
X-0055316Y0068530D01*
X-0054816D01*
Y0067997D02*
X-0054899Y0067955D01*
X-0055233D01*
X-0055316Y0067997D01*
Y0068247D01*
X-0055233Y0068289D01*
X-0054899D01*
X-0054816Y0068247D01*
Y0067997D01*
X-0055233Y0067714D02*
X-0055316Y0067672D01*
Y0067422D01*
X-0055233Y0067380D01*
X-0055149D01*
X-0055066Y0067422D01*
Y0067672D01*
X-0054983Y0067714D01*
X-0054899D01*
X-0054816Y0067672D01*
Y0067422D01*
X-0054899Y0067380D01*
X-0054983Y0066376D02*
Y0066043D01*
X-0054816Y0066376D02*
X-0055066D01*
X-0055316Y0066251D01*
Y0066168D01*
X-0055066Y0066043D01*
X-0054816D01*
Y0065635D02*
X-0055316D01*
Y0065801D02*
Y0065468D01*
X-0055066Y0065143D02*
Y0064893D01*
X-0054816Y0065226D02*
Y0064893D01*
X-0055316D01*
Y0065226D01*
X-0054816Y0064651D02*
Y0064360D01*
X-0055316D01*
X-0055066Y0063951D02*
Y0064118D01*
X-0054899D01*
X-0054816Y0064076D01*
Y0063826D01*
X-0054899Y0063785D01*
X-0055233D01*
X-0055316Y0063826D01*
Y0064076D01*
X-0055233Y0064118D01*
X-0055066Y0063460D02*
Y0063210D01*
X-0054816Y0063543D02*
Y0063210D01*
X-0055316D01*
Y0063543D01*
X-0055066Y0062843D02*
X-0054816Y0062968D01*
X-0055066Y0062635D02*
Y0062885D01*
X-0055149Y0062968D01*
X-0055233D01*
X-0055316Y0062885D01*
Y0062635D01*
X-0054816D01*
X-0050375Y0052454D02*
X-0050542D01*
X-0050458D02*
Y0052954D01*
X-0050375D02*
X-0050542D01*
X-0051754Y0052704D02*
X-0051629Y0052454D01*
X-0051962Y0052704D02*
X-0051712D01*
X-0051629Y0052787D01*
Y0052871D01*
X-0051712Y0052954D01*
X-0051962D01*
Y0052454D01*
X-0052496D02*
X-0052537Y0052537D01*
Y0052871D01*
X-0052496Y0052954D01*
X-0052246D01*
X-0052204Y0052871D01*
Y0052537D01*
X-0052246Y0052454D01*
X-0052496D01*
X-0052946D02*
Y0052954D01*
X-0052779D02*
X-0053112D01*
X-0053646Y0052454D02*
X-0053687Y0052537D01*
Y0052871D01*
X-0053646Y0052954D01*
X-0053396D01*
X-0053354Y0052871D01*
Y0052537D01*
X-0053396Y0052454D01*
X-0053646D01*
X-0053929D02*
Y0052954D01*
X-0054012Y0052871D01*
X-0054096Y0052704D01*
X-0054179Y0052871D01*
X-0054262Y0052954D01*
Y0052454D01*
X-0055267Y0052621D02*
X-0055600D01*
X-0055267Y0052454D02*
Y0052704D01*
X-0055392Y0052954D01*
X-0055475D01*
X-0055600Y0052704D01*
Y0052454D01*
X-0056008D02*
Y0052954D01*
X-0055842D02*
X-0056175D01*
X-0056500Y0052704D02*
X-0056750D01*
X-0056417Y0052454D02*
X-0056750D01*
Y0052954D01*
X-0056417D01*
X-0056992Y0052454D02*
X-0057283D01*
Y0052954D01*
X-0057692Y0052704D02*
X-0057525D01*
Y0052537D01*
X-0057567Y0052454D01*
X-0057817D01*
X-0057858Y0052537D01*
Y0052871D01*
X-0057817Y0052954D01*
X-0057567D01*
X-0057525Y0052871D01*
X-0058183Y0052704D02*
X-0058433D01*
X-0058100Y0052454D02*
X-0058433D01*
Y0052954D01*
X-0058100D01*
X-0058800Y0052704D02*
X-0058675Y0052454D01*
X-0059008Y0052704D02*
X-0058758D01*
X-0058675Y0052787D01*
Y0052871D01*
X-0058758Y0052954D01*
X-0059008D01*
Y0052454D01*
X-0058475Y0053662D02*
X-0058392Y0053579D01*
X-0058225D01*
X-0058142Y0053662D01*
Y0053746D01*
X-0058308Y0053912D01*
X-0058142Y0054079D01*
X-0058475D01*
X-0059008Y0053746D02*
Y0053662D01*
X-0058967Y0053579D01*
X-0058800D01*
X-0058758Y0053662D01*
Y0054079D01*
X-0058717D02*
X-0058883D01*
X-0054914Y0052454D02*
Y0052954D01*
X-0054955Y0052454D02*
X-0054705D01*
X-0054622Y0052621D01*
Y0052787D01*
X-0054705Y0052954D01*
X-0054955D01*
X-0056084Y0052704D02*
X-0055959Y0052454D01*
X-0056293Y0052704D02*
X-0056043D01*
X-0055959Y0052787D01*
Y0052871D01*
X-0056043Y0052954D01*
X-0056293D01*
Y0052454D01*
X-0056826D02*
X-0056868Y0052537D01*
Y0052871D01*
X-0056826Y0052954D01*
X-0056576D01*
X-0056534Y0052871D01*
Y0052537D01*
X-0056576Y0052454D01*
X-0056826D01*
X-0057276D02*
Y0052954D01*
X-0057109D02*
X-0057443D01*
X-0057976Y0052454D02*
X-0058018Y0052537D01*
Y0052871D01*
X-0057976Y0052954D01*
X-0057726D01*
X-0057684Y0052871D01*
Y0052537D01*
X-0057726Y0052454D01*
X-0057976D01*
X-0058259D02*
Y0052954D01*
X-0058343Y0052871D01*
X-0058426Y0052704D01*
X-0058509Y0052871D01*
X-0058593Y0052954D01*
Y0052454D01*
X-0059597Y0052621D02*
X-0059930D01*
X-0059597Y0052454D02*
Y0052704D01*
X-0059722Y0052954D01*
X-0059805D01*
X-0059930Y0052704D01*
Y0052454D01*
X-0060339D02*
Y0052954D01*
X-0060172D02*
X-0060505D01*
X-0060830Y0052704D02*
X-0061080D01*
X-0060747Y0052454D02*
X-0061080D01*
Y0052954D01*
X-0060747D01*
X-0061322Y0052454D02*
X-0061614D01*
Y0052954D01*
X-0062022Y0052704D02*
X-0061855D01*
Y0052537D01*
X-0061897Y0052454D01*
X-0062147D01*
X-0062189Y0052537D01*
Y0052871D01*
X-0062147Y0052954D01*
X-0061897D01*
X-0061855Y0052871D01*
X-0062514Y0052704D02*
X-0062764D01*
X-0062430Y0052454D02*
X-0062764D01*
Y0052954D01*
X-0062430D01*
X-0063130Y0052704D02*
X-0063005Y0052454D01*
X-0063339Y0052704D02*
X-0063089D01*
X-0063005Y0052787D01*
Y0052871D01*
X-0063089Y0052954D01*
X-0063339D01*
Y0052454D01*
X-0062472Y0053579D02*
X-0062805D01*
X-0062472Y0053912D01*
Y0053996D01*
X-0062514Y0054079D01*
X-0062764D01*
X-0062805Y0053996D01*
X-0063339Y0053746D02*
Y0053662D01*
X-0063297Y0053579D01*
X-0063130D01*
X-0063089Y0053662D01*
Y0054079D01*
X-0063047D02*
X-0063214D01*
G54D38*
G01X-0063176Y0064094D02*
X-0063398D01*
X-0063176Y0063983D02*
Y0064149D01*
X-0063259Y0064316D01*
X-0063315D01*
X-0063398Y0064149D01*
Y0063983D01*
X-0063780Y0064149D02*
X-0063613D01*
X-0063586Y0064094D01*
Y0064038D01*
X-0063613Y0063983D01*
X-0063780D01*
X-0063808Y0064038D01*
Y0064094D01*
X-0063697Y0064316D01*
X-0064162Y0063983D02*
X-0063996Y0064316D01*
X-0064218D01*
X-0064433Y0064149D02*
X-0064406Y0064205D01*
Y0064260D01*
X-0064433Y0064316D01*
X-0064600D01*
X-0064628Y0064260D01*
Y0064205D01*
X-0064600Y0064149D01*
X-0064433D01*
X-0064406Y0064094D01*
Y0064038D01*
X-0064433Y0063983D01*
X-0064600D01*
X-0064628Y0064038D01*
Y0064094D01*
X-0064600Y0064149D01*
X-0064871D02*
X-0065038D01*
Y0063983D02*
Y0064316D01*
X-0064816D01*
X-0065420Y0064149D02*
X-0065253D01*
X-0065226Y0064094D01*
Y0064038D01*
X-0065253Y0063983D01*
X-0065420D01*
X-0065448Y0064038D01*
Y0064094D01*
X-0065337Y0064316D01*
X-0065636Y0063983D02*
X-0065747D01*
X-0065691D02*
Y0064316D01*
X-0065747Y0064260D01*
X-0066525Y0064038D02*
X-0066553Y0063983D01*
X-0066719D01*
X-0066747Y0064038D01*
Y0064260D01*
X-0066719Y0064316D01*
X-0066553D01*
X-0066525Y0064260D01*
X-0066935Y0063983D02*
X-0067046D01*
X-0066990D02*
Y0064316D01*
X-0066935D02*
X-0067046D01*
X-0067512Y0064149D02*
X-0067345D01*
X-0067289Y0064205D01*
Y0064260D01*
X-0067345Y0064316D01*
X-0067512D01*
Y0063983D01*
X-0066720Y0065108D02*
X-0066943D01*
X-0066720Y0065330D01*
Y0065385D01*
X-0066748Y0065441D01*
X-0066915D01*
X-0066943Y0065385D01*
X-0067130Y0065441D02*
Y0065163D01*
X-0067158Y0065108D01*
X-0067325D01*
X-0067353Y0065163D01*
Y0065441D01*
X-0074293Y0049626D02*
X-0074627D01*
X-0074571Y0049682D01*
X-0074349Y0049793D01*
X-0074293Y0049849D01*
X-0074627D01*
Y0050175D02*
X-0074571Y0050231D01*
X-0074516Y0050259D01*
X-0074405D01*
X-0074349Y0050231D01*
X-0074293Y0050175D01*
Y0050120D01*
X-0074349Y0050064D01*
X-0074405Y0050036D01*
X-0074516D01*
X-0074571Y0050064D01*
X-0074627Y0050120D01*
Y0050175D01*
X-0074571Y0050669D02*
X-0074627Y0050613D01*
Y0050502D01*
X-0074571Y0050446D01*
X-0074516D01*
X-0074405Y0050557D01*
X-0074293Y0050446D01*
Y0050669D01*
X-0074571Y0051079D02*
X-0074627Y0051023D01*
Y0050912D01*
X-0074571Y0050856D01*
X-0074516D01*
X-0074405Y0050967D01*
X-0074293Y0050856D01*
Y0051079D01*
X-0058217Y0061974D02*
X-0058245Y0062030D01*
X-0058412D01*
X-0058439Y0061974D01*
Y0061863D01*
X-0058384Y0061807D01*
X-0058217D01*
Y0061696D01*
X-0058439D01*
X-0058029Y0061974D02*
X-0058002Y0062030D01*
X-0057835D01*
X-0057807Y0061974D01*
Y0061752D01*
X-0057835Y0061696D01*
X-0058002D01*
X-0058029Y0061752D01*
X-0058574Y0062469D02*
X-0058741D01*
X-0058797Y0062414D01*
Y0062358D01*
X-0058741Y0062302D01*
X-0058574D01*
Y0062636D01*
X-0058387D02*
X-0058164D01*
X-0058387Y0062414D01*
Y0062358D01*
X-0058359Y0062302D01*
X-0058192D01*
X-0058164Y0062358D01*
X-0057977Y0062636D02*
X-0057754D01*
X-0057977Y0062414D01*
Y0062358D01*
X-0057949Y0062302D01*
X-0057782D01*
X-0057754Y0062358D01*
X-0060267Y0057181D02*
X-0060489D01*
X-0060378Y0057404D01*
X-0060322D01*
Y0057070D01*
X-0060677Y0057126D02*
X-0060705Y0057070D01*
X-0060871D01*
X-0060899Y0057126D01*
Y0057348D01*
X-0060871Y0057404D01*
X-0060705D01*
X-0060677Y0057348D01*
X-0070736Y0054659D02*
Y0054436D01*
X-0070959Y0054659D01*
X-0071014D01*
X-0071070Y0054631D01*
Y0054464D01*
X-0071014Y0054436D01*
X-0070736Y0054054D02*
X-0071070D01*
X-0070736Y0054026D02*
Y0054193D01*
X-0070848Y0054249D01*
X-0070959D01*
X-0071070Y0054193D01*
Y0054026D01*
X-0071162Y0057348D02*
X-0071495Y0057514D01*
Y0057292D01*
X-0071162Y0056965D02*
X-0071217Y0056910D01*
X-0071273Y0056882D01*
X-0071384D01*
X-0071439Y0056910D01*
X-0071495Y0056965D01*
Y0057021D01*
X-0071439Y0057076D01*
X-0071384Y0057104D01*
X-0071273D01*
X-0071217Y0057076D01*
X-0071162Y0057021D01*
Y0056965D01*
Y0056555D02*
X-0071217Y0056500D01*
X-0071273Y0056472D01*
X-0071384D01*
X-0071439Y0056500D01*
X-0071495Y0056555D01*
Y0056611D01*
X-0071439Y0056666D01*
X-0071384Y0056694D01*
X-0071273D01*
X-0071217Y0056666D01*
X-0071162Y0056611D01*
Y0056555D01*
X-0071273Y0056284D02*
Y0056062D01*
X-0071495Y0056173D01*
Y0056229D01*
X-0071162D01*
X-0071495Y0055874D02*
X-0071162D01*
X-0071217Y0055819D01*
X-0071439Y0055708D01*
X-0071495Y0055652D01*
X-0071162D01*
Y0055464D02*
Y0055353D01*
Y0055409D02*
X-0071495D01*
X-0071439Y0055353D01*
X-0071162Y0054915D02*
X-0071495D01*
X-0071162Y0054888D02*
Y0055054D01*
X-0071273Y0055110D01*
X-0071384D01*
X-0071495Y0055054D01*
Y0054888D01*
X-0071162Y0054700D02*
X-0071495D01*
X-0071439Y0054644D01*
X-0071328Y0054589D01*
X-0071439Y0054533D01*
X-0071495Y0054478D01*
X-0071162D01*
X-0071439Y0054290D02*
X-0071495Y0054262D01*
Y0054095D01*
X-0071439Y0054068D01*
X-0071384D01*
X-0071328Y0054095D01*
Y0054262D01*
X-0071273Y0054290D01*
X-0071217D01*
X-0071162Y0054262D01*
Y0054095D01*
X-0071217Y0054068D01*
X-0075891Y0055790D02*
X-0075946Y0055734D01*
Y0055623D01*
X-0075891Y0055568D01*
X-0075835D01*
X-0075724Y0055679D01*
X-0075613Y0055568D01*
Y0055790D01*
X-0075946Y0056172D02*
X-0075613D01*
X-0075946Y0056200D02*
Y0056033D01*
X-0075835Y0055978D01*
X-0075724D01*
X-0075613Y0056033D01*
Y0056200D01*
X-0071001Y0050540D02*
X-0071112D01*
X-0071057D02*
Y0050873D01*
X-0071112Y0050818D01*
X-0071356Y0050873D02*
Y0050596D01*
X-0071384Y0050540D01*
X-0071550D01*
X-0071578Y0050596D01*
Y0050873D01*
X-0067215Y0050521D02*
X-0067187Y0050465D01*
X-0067020D01*
X-0066992Y0050521D01*
Y0050632D01*
X-0067048Y0050687D01*
X-0067215D01*
Y0050799D01*
X-0066992D01*
X-0067541Y0050465D02*
X-0067597Y0050521D01*
X-0067625Y0050576D01*
Y0050687D01*
X-0067597Y0050743D01*
X-0067541Y0050799D01*
X-0067486D01*
X-0067430Y0050743D01*
X-0067402Y0050687D01*
Y0050576D01*
X-0067430Y0050521D01*
X-0067486Y0050465D01*
X-0067541D01*
X-0067840Y0050632D02*
X-0067812Y0050687D01*
Y0050743D01*
X-0067840Y0050799D01*
X-0068007D01*
X-0068035Y0050743D01*
Y0050687D01*
X-0068007Y0050632D01*
X-0067840D01*
X-0067812Y0050576D01*
Y0050521D01*
X-0067840Y0050465D01*
X-0068007D01*
X-0068035Y0050521D01*
Y0050576D01*
X-0068007Y0050632D01*
X-0068389Y0050465D02*
X-0068222Y0050799D01*
X-0068445D01*
X-0068632Y0050465D02*
Y0050799D01*
X-0068688Y0050743D01*
X-0068744Y0050632D01*
X-0068799Y0050743D01*
X-0068855Y0050799D01*
Y0050465D01*
X-0069042D02*
X-0069237D01*
Y0050799D01*
X-0075521Y0052879D02*
X-0075188Y0052712D01*
Y0052935D01*
X-0075521Y0053261D02*
X-0075465Y0053317D01*
X-0075410Y0053345D01*
X-0075299D01*
X-0075243Y0053317D01*
X-0075188Y0053261D01*
Y0053206D01*
X-0075243Y0053150D01*
X-0075299Y0053122D01*
X-0075410D01*
X-0075465Y0053150D01*
X-0075521Y0053206D01*
Y0053261D01*
Y0053671D02*
X-0075465Y0053727D01*
X-0075410Y0053755D01*
X-0075299D01*
X-0075243Y0053727D01*
X-0075188Y0053671D01*
Y0053616D01*
X-0075243Y0053560D01*
X-0075299Y0053532D01*
X-0075410D01*
X-0075465Y0053560D01*
X-0075521Y0053616D01*
Y0053671D01*
X-0075410Y0053942D02*
Y0054165D01*
X-0075188Y0054053D01*
Y0053998D01*
X-0075521D01*
X-0075188Y0054352D02*
X-0075521D01*
X-0075465Y0054408D01*
X-0075243Y0054519D01*
X-0075188Y0054575D01*
X-0075521D01*
Y0054762D02*
Y0054873D01*
Y0054818D02*
X-0075188D01*
X-0075243Y0054873D01*
X-0075521Y0055311D02*
X-0075188D01*
X-0075521Y0055339D02*
Y0055172D01*
X-0075410Y0055117D01*
X-0075299D01*
X-0075188Y0055172D01*
Y0055339D01*
X-0075521Y0055527D02*
X-0075188D01*
X-0075243Y0055582D01*
X-0075354Y0055638D01*
X-0075243Y0055693D01*
X-0075188Y0055749D01*
X-0075521D01*
X-0075243Y0055937D02*
X-0075188Y0055964D01*
Y0056131D01*
X-0075243Y0056159D01*
X-0075299D01*
X-0075354Y0056131D01*
Y0055964D01*
X-0075410Y0055937D01*
X-0075465D01*
X-0075521Y0055964D01*
Y0056131D01*
X-0075465Y0056159D01*
X-0050977Y0060467D02*
X-0050866D01*
X-0050922D02*
Y0060134D01*
X-0050866Y0060190D01*
X-0050512Y0060356D02*
X-0050623Y0060467D01*
X-0050400Y0060412D02*
X-0050428Y0060467D01*
X-0050539D01*
X-0050567Y0060412D01*
X-0050623Y0060356D01*
Y0060190D01*
X-0050595Y0060134D01*
X-0050428D01*
X-0050400Y0060190D01*
Y0060412D01*
X-0052714Y0059931D02*
X-0052492D01*
X-0052603Y0059709D01*
X-0052658D01*
Y0060042D01*
X-0052165D02*
X-0052109Y0059987D01*
X-0052082Y0059931D01*
Y0059820D01*
X-0052109Y0059764D01*
X-0052165Y0059709D01*
X-0052221D01*
X-0052276Y0059764D01*
X-0052304Y0059820D01*
Y0059931D01*
X-0052276Y0059987D01*
X-0052221Y0060042D01*
X-0052165D01*
X-0051866Y0059876D02*
X-0051699D01*
X-0051672Y0059820D01*
Y0059764D01*
X-0051699Y0059709D01*
X-0051866D01*
X-0051894Y0059764D01*
Y0059820D01*
X-0051783Y0060042D01*
X-0051262Y0059987D02*
X-0051317Y0060042D01*
X-0051428D01*
X-0051484Y0059987D01*
Y0059931D01*
X-0051373Y0059820D01*
X-0051484Y0059709D01*
X-0051262D01*
X-0051074D02*
Y0060042D01*
X-0051018Y0059987D01*
X-0050907Y0059764D01*
X-0050852Y0059709D01*
Y0060042D01*
X-0050664D02*
X-0050442D01*
X-0050664Y0059820D01*
Y0059764D01*
X-0050636Y0059709D01*
X-0050469D01*
X-0050442Y0059764D01*
X-0060132Y0056631D02*
X-0059965D01*
X-0059910Y0056686D01*
Y0056742D01*
X-0059965Y0056797D01*
X-0060132D01*
Y0056464D01*
X-0060320D02*
X-0060542D01*
X-0060320Y0056686D01*
Y0056742D01*
X-0060347Y0056797D01*
X-0060514D01*
X-0060542Y0056742D01*
X-0060730Y0056464D02*
X-0060952D01*
X-0060730Y0056686D01*
Y0056742D01*
X-0060757Y0056797D01*
X-0060924D01*
X-0060952Y0056742D01*
X-0066349Y0052663D02*
X-0066293Y0052608D01*
X-0066182D01*
X-0066126Y0052663D01*
Y0052719D01*
X-0066238Y0052830D01*
X-0066126Y0052941D01*
X-0066349D01*
X-0066536Y0052663D02*
X-0066564Y0052608D01*
X-0066731D01*
X-0066759Y0052663D01*
Y0052885D01*
X-0066731Y0052941D01*
X-0066564D01*
X-0066536Y0052885D01*
X-0065575Y0052168D02*
X-0065742D01*
Y0052001D02*
Y0052335D01*
X-0065519D01*
X-0068856Y0050794D02*
X-0068633D01*
X-0068856Y0050572D01*
Y0050516D01*
X-0068828Y0050461D01*
X-0068661D01*
X-0068633Y0050516D01*
X-0068446Y0050739D02*
X-0068418Y0050794D01*
X-0068251D01*
X-0068223Y0050739D01*
Y0050516D01*
X-0068251Y0050461D01*
X-0068418D01*
X-0068446Y0050516D01*
X-0069567Y0051067D02*
Y0051400D01*
X-0069512Y0051345D01*
X-0069401Y0051123D01*
X-0069345Y0051067D01*
Y0051400D01*
X-0069018D02*
X-0068963Y0051345D01*
X-0068935Y0051289D01*
Y0051178D01*
X-0068963Y0051123D01*
X-0069018Y0051067D01*
X-0069074D01*
X-0069129Y0051123D01*
X-0069157Y0051178D01*
Y0051289D01*
X-0069129Y0051345D01*
X-0069074Y0051400D01*
X-0069018D01*
X-0068608D02*
X-0068553Y0051345D01*
X-0068525Y0051289D01*
Y0051178D01*
X-0068553Y0051123D01*
X-0068608Y0051067D01*
X-0068664D01*
X-0068719Y0051123D01*
X-0068747Y0051178D01*
Y0051289D01*
X-0068719Y0051345D01*
X-0068664Y0051400D01*
X-0068608D01*
X-0068337D02*
X-0068226D01*
X-0068282D02*
Y0051067D01*
X-0068226Y0051123D01*
X-0074021Y0050449D02*
Y0050560D01*
Y0050505D02*
X-0073687D01*
X-0073743Y0050560D01*
X-0073965Y0050803D02*
X-0074021Y0050831D01*
Y0050998D01*
X-0073965Y0051026D01*
X-0073743D01*
X-0073687Y0050998D01*
Y0050831D01*
X-0073743Y0050803D01*
X-0066446Y0049484D02*
X-0066557D01*
X-0066501D02*
Y0049818D01*
X-0066557Y0049762D01*
X-0066995Y0049484D02*
Y0049818D01*
X-0067022Y0049484D02*
X-0066856D01*
X-0066800Y0049595D01*
Y0049706D01*
X-0066856Y0049818D01*
X-0067022D01*
X-0066255Y0049003D02*
Y0049336D01*
X-0066283Y0049003D02*
X-0066116D01*
X-0066061Y0049114D01*
Y0049225D01*
X-0066116Y0049336D01*
X-0066283D01*
X-0066526Y0049170D02*
X-0066693D01*
X-0066471Y0049003D02*
X-0066693D01*
Y0049336D01*
X-0066471D01*
X-0066881Y0049003D02*
X-0067075D01*
Y0049336D01*
X-0073716Y0065700D02*
Y0065200D01*
Y0064200D01*
Y0063700D01*
X-0059716D01*
Y0065700D01*
X-0073716D01*
X-0074129Y0056113D02*
Y0057363D01*
X-0074754Y0055613D02*
X-0073504D01*
X-0074754Y0054113D02*
X-0073504D01*
Y0056113D01*
X-0074754D01*
Y0054113D01*
X-0074129Y0052863D02*
Y0054113D01*
X-0071566Y0053508D02*
X-0067366D01*
Y0051258D01*
X-0071566D01*
Y0053508D01*
X-0067366Y0052958D02*
X-0071566D01*
X-0072554Y0057363D02*
Y0056113D01*
Y0054113D02*
Y0052863D01*
X-0068216Y0049977D02*
Y0050227D01*
X-0070716D01*
Y0049977D01*
X-0072453Y0048533D02*
X-0072203D01*
Y0051033D01*
X-0072453D01*
X-0050287Y0059050D02*
X-0050337Y0059000D01*
X-0073203Y0051033D02*
X-0073453D01*
Y0048533D01*
X-0073203D01*
X-0060300Y0060462D02*
Y0060212D01*
X-0057800D01*
Y0060462D01*
X-0053637Y0059000D02*
Y0057800D01*
X-0050337D01*
Y0059000D01*
X-0053637D01*
X-0071929Y0056113D02*
X-0073179D01*
Y0054113D01*
X-0071929D01*
Y0056113D01*
X-0057800Y0061212D02*
Y0061462D01*
X-0060300D01*
Y0061212D01*
X-0058406Y0058638D02*
Y0058888D01*
X-0060906D01*
Y0058638D01*
X-0071929Y0054613D02*
X-0073179D01*
X-0060906Y0057888D02*
Y0057638D01*
X-0058406D01*
Y0057888D01*
X-0064266Y0054175D02*
Y0054425D01*
X-0066766D01*
Y0054175D01*
Y0053425D02*
Y0053175D01*
X-0064266D01*
Y0053425D01*
X-0070716Y0049227D02*
Y0048977D01*
X-0068216D01*
Y0049227D01*
X-0073716Y0065200D02*
X-0073466D01*
Y0064200D01*
X-0073716D01*
G01X-0067030Y0051177D02*
G03X-0066030Y0050177I0001000J0000000D01*
G03X-0065030Y0051177I0000000J0001000D01*
G03X-0066030Y0052177I0001000J0000000D01*
G03X-0067030Y0051177I0000000J0001000D01*
G54D39*
G01X-0054808Y0055206D02*
X-0054975Y0054873D01*
X-0054753D01*
X-0054522Y0055039D02*
X-0054605Y0055206D01*
X-0054383Y0055039D02*
X-0054549D01*
X-0054605Y0054984D01*
Y0054928D01*
X-0054549Y0054873D01*
X-0054383D01*
Y0055206D01*
X-0054758Y0054650D02*
X-0054786Y0054706D01*
X-0054953D01*
X-0054981Y0054650D01*
Y0054539D01*
X-0054925Y0054484D01*
X-0054758D01*
Y0054373D01*
X-0054981D01*
X-0054611Y0054706D02*
X-0054500D01*
X-0054555D02*
Y0054373D01*
X-0054500Y0054428D01*
X-0054517Y0060972D02*
X-0054461Y0060944D01*
X-0054406D01*
X-0054350Y0060972D01*
Y0061139D01*
X-0054406Y0061167D01*
X-0054461D01*
X-0054517Y0061139D01*
Y0060972D01*
X-0054572Y0060944D01*
X-0054628D01*
X-0054683Y0060972D01*
Y0061139D01*
X-0054628Y0061167D01*
X-0054572D01*
X-0054517Y0061139D01*
Y0061398D02*
X-0054683Y0061314D01*
X-0054517Y0061537D02*
Y0061370D01*
X-0054461Y0061314D01*
X-0054406D01*
X-0054350Y0061370D01*
Y0061537D01*
X-0054683D01*
X-0054183Y0060282D02*
X-0054128Y0060338D01*
X-0054072Y0060366D01*
X-0053961D01*
X-0053905Y0060338D01*
X-0053850Y0060282D01*
Y0060227D01*
X-0053905Y0060171D01*
X-0053961Y0060143D01*
X-0054072D01*
X-0054128Y0060171D01*
X-0054183Y0060227D01*
Y0060282D01*
Y0060513D02*
Y0060736D01*
X-0053961Y0060513D01*
X-0053905D01*
X-0053850Y0060541D01*
Y0060708D01*
X-0053905Y0060736D01*
X-0054072Y0060883D02*
Y0061106D01*
X-0053850Y0060994D01*
Y0060939D01*
X-0054183D01*
X-0054128Y0061476D02*
X-0054183Y0061448D01*
Y0061281D01*
X-0054128Y0061253D01*
X-0054017D01*
X-0053961Y0061309D01*
Y0061476D01*
X-0053850D01*
Y0061253D01*
X-0054277Y0070701D02*
X-0054444D01*
X-0054471Y0070756D01*
Y0070812D01*
X-0054444Y0070867D01*
X-0054277D01*
X-0054249Y0070812D01*
Y0070756D01*
X-0054360Y0070534D01*
X-0054018Y0070701D02*
X-0054101Y0070867D01*
X-0053879Y0070701D02*
X-0054046D01*
X-0054101Y0070645D01*
Y0070590D01*
X-0054046Y0070534D01*
X-0053879D01*
Y0070867D01*
X-0054736Y0070367D02*
X-0054903Y0070034D01*
X-0054680D01*
X-0054533Y0070367D02*
X-0054366Y0070201D01*
X-0054533Y0070034D01*
X-0054310D02*
Y0070367D01*
X-0054163Y0070256D02*
X-0053940D01*
X-0054051Y0070034D01*
X-0054107D01*
Y0070367D01*
X-0054349Y0068712D02*
X-0054377Y0068767D01*
X-0054544D01*
X-0054571Y0068712D01*
Y0068601D01*
X-0054516Y0068545D01*
X-0054349D01*
Y0068434D01*
X-0054571D01*
X-0054118Y0068601D02*
X-0054201Y0068767D01*
X-0053979Y0068601D02*
X-0054146D01*
X-0054201Y0068545D01*
Y0068490D01*
X-0054146Y0068434D01*
X-0053979D01*
Y0068767D01*
X-0054836Y0068267D02*
X-0055003Y0067934D01*
X-0054780D01*
X-0054633Y0068267D02*
X-0054466Y0068101D01*
X-0054633Y0067934D01*
X-0054410D02*
Y0068267D01*
X-0054263Y0068156D02*
X-0054040D01*
X-0054151Y0067934D01*
X-0054207D01*
Y0068267D01*
X-0075771Y0065667D02*
X-0075549D01*
X-0075771Y0065445D01*
Y0065390D01*
X-0075744Y0065334D01*
X-0075577D01*
X-0075549Y0065390D01*
X-0075318Y0065501D02*
X-0075401Y0065667D01*
X-0075179Y0065501D02*
X-0075346D01*
X-0075401Y0065445D01*
Y0065390D01*
X-0075346Y0065334D01*
X-0075179D01*
Y0065667D01*
X-0075777Y0065167D02*
X-0075610Y0065001D01*
X-0075777Y0064834D01*
X-0075555D02*
Y0065167D01*
X-0075407D02*
X-0075296D01*
X-0075351D02*
Y0064834D01*
X-0075296Y0064889D01*
X-0065315Y0053895D02*
X-0065260Y0053839D01*
X-0065149D01*
X-0065093Y0053895D01*
Y0053951D01*
X-0065204Y0054062D01*
X-0065093Y0054173D01*
X-0065315D01*
X-0065546Y0054006D02*
X-0065463Y0053839D01*
X-0065685Y0054006D02*
X-0065519D01*
X-0065463Y0054062D01*
Y0054117D01*
X-0065519Y0054173D01*
X-0065685D01*
Y0053839D01*
X-0064829Y0054340D02*
X-0064662Y0054673D01*
X-0064884D01*
X-0065032Y0054340D02*
X-0065199Y0054506D01*
X-0065032Y0054673D01*
X-0065254D02*
Y0054340D01*
X-0065402Y0054451D02*
X-0065624D01*
X-0065513Y0054673D01*
X-0065458D01*
Y0054340D01*
X-0067849Y0053951D02*
X-0068071D01*
X-0067960Y0054173D01*
X-0067904D01*
Y0053839D01*
X-0068302Y0054006D02*
X-0068219Y0053839D01*
X-0068441Y0054006D02*
X-0068274D01*
X-0068219Y0054062D01*
Y0054117D01*
X-0068274Y0054173D01*
X-0068441D01*
Y0053839D01*
X-0067584Y0054340D02*
X-0067418Y0054673D01*
X-0067640D01*
X-0067788Y0054340D02*
X-0067954Y0054506D01*
X-0067788Y0054673D01*
X-0068010D02*
Y0054340D01*
X-0068158Y0054451D02*
X-0068380D01*
X-0068269Y0054673D01*
X-0068213D01*
Y0054340D01*
X-0066330Y0047541D02*
X-0066441D01*
X-0066385D02*
Y0047874D01*
X-0066441Y0047819D01*
X-0066727Y0047707D02*
X-0066644Y0047541D01*
X-0066866Y0047707D02*
X-0066700D01*
X-0066644Y0047763D01*
Y0047819D01*
X-0066700Y0047874D01*
X-0066866D01*
Y0047541D01*
X-0065982Y0048041D02*
X-0066037Y0048096D01*
X-0066065Y0048152D01*
Y0048263D01*
X-0066037Y0048319D01*
X-0065982Y0048374D01*
X-0065926D01*
X-0065871Y0048319D01*
X-0065843Y0048263D01*
Y0048152D01*
X-0065871Y0048096D01*
X-0065926Y0048041D01*
X-0065982D01*
X-0066213D02*
X-0066435D01*
X-0066213Y0048263D01*
Y0048319D01*
X-0066241Y0048374D01*
X-0066407D01*
X-0066435Y0048319D01*
X-0066583Y0048041D02*
X-0066805D01*
X-0066583Y0048263D01*
Y0048319D01*
X-0066611Y0048374D01*
X-0066777D01*
X-0066805Y0048319D01*
X-0054285Y0053599D02*
Y0054164D01*
X-0056315D01*
Y0052914D01*
X-0054285D01*
Y0053429D01*
X-0054200Y0053514D01*
X-0054285Y0053599D01*
X-0053076Y0061635D02*
X-0053641D01*
Y0059605D01*
X-0052391D01*
Y0061635D01*
X-0052906D01*
X-0052991Y0061720D01*
X-0053076Y0061635D01*
X-0053781Y0069260D02*
Y0069825D01*
X-0055811D01*
Y0068575D01*
X-0053781D01*
Y0069090D01*
X-0053696Y0069175D01*
X-0053781Y0069260D01*
X-0053881Y0067160D02*
Y0067725D01*
X-0055911D01*
Y0066475D01*
X-0053881D01*
Y0066990D01*
X-0053796Y0067075D01*
X-0053881Y0067160D01*
X-0075081Y0064060D02*
Y0064625D01*
X-0077111D01*
Y0063375D01*
X-0075081D01*
Y0063890D01*
X-0074996Y0063975D01*
X-0075081Y0064060D01*
X-0065784Y0055447D02*
Y0054882D01*
X-0063754D01*
Y0056132D01*
X-0065784D01*
Y0055617D01*
X-0065869Y0055532D01*
X-0065784Y0055447D01*
X-0068539D02*
Y0054882D01*
X-0066509D01*
Y0056132D01*
X-0068539D01*
Y0055617D01*
X-0068624Y0055532D01*
X-0068539Y0055447D01*
X-0066965Y0049148D02*
Y0048583D01*
X-0064935D01*
Y0049833D01*
X-0066965D01*
Y0049318D01*
X-0067050Y0049233D01*
X-0066965Y0049148D01*
G54D40*
G01X-0086607Y0044091D02*
X-0046453D01*
Y0074797D01*
X-0086607D01*
Y0044091D01*
G54D37*
X-0078340Y0057082D03*
Y0061412D03*
X-0080702Y0057082D03*
Y0061412D03*
M02*
