%
T2C0.0394F200S100
X-080702Y055507
X-079521Y064168
X-075978Y061412
X-074129Y052238
X-074129Y057988
X-072554Y052238
X-072554Y057988
X-072041Y068498
X-070666Y052358
X-069466Y052358
X-069285Y054720
X-068266Y052358
X-068104Y068498
X-060625Y050783
X-059254Y068498
X-057082Y053539
X-055901Y050783
X-053087Y058400
X-051987Y058400
X-051964Y068498
X-050887Y058400
T1C0.0315F200S100
X-078871Y066392
X-078871Y068392
X-076916Y052100
X-076916Y053100
X-076916Y054100
X-075871Y066392
X-075871Y068392
X-073216Y063200
X-073216Y066200
X-072828Y048783
X-072828Y050783
X-072216Y063200
X-072216Y066200
X-071216Y063200
X-071216Y066200
X-070466Y049602
X-070216Y063200
X-069216Y063200
X-069216Y066200
X-070216Y066200
X-068466Y049602
X-068216Y063200
X-068216Y066200
X-067216Y063200
X-067216Y066200
X-066530Y051177
X-066516Y053800
X-066216Y063200
X-066216Y066200
X-065530Y051177
X-065216Y063200
X-065216Y066200
X-064516Y053800
X-064216Y063200
X-064216Y066200
X-064168Y061018
X-063216Y063200
X-063216Y066200
X-062216Y063200
X-062168Y061018
X-062216Y066200
X-061216Y063200
X-061216Y066200
X-060656Y058263
X-060216Y063200
X-060050Y060837
X-060216Y066200
X-058656Y058263
X-058050Y060837
T4C0.1181F200S100
X-085032Y045665
X-085032Y073222
X-048027Y045665
X-048027Y073222
T3C0.0472F200S100
X-080702Y051177
X-080702Y053177
X-077416Y049300
X-075416Y049300
X-051964Y053901
X-051964Y055901
M30
